<ttFont>
    <TTGlyph name="A" xMin="16" yMin="0" xMax="413" yMax="720">
      <contour>
        <pt x="393" y="0" on="1"/>
        <pt x="340" y="0" on="0"/>
        <pt x="320" y="15" on="0"/>
        <pt x="318" y="58" on="1"/>
        <pt x="307" y="235" on="1"/>
        <pt x="185" y="235" on="1"/>
        <pt x="96" y="0" on="1"/>
        <pt x="81" y="0" on="1"/>
        <pt x="25" y="0" on="0"/>
        <pt x="19" y="10" on="1"/>
        <pt x="16" y="16" on="0"/>
        <pt x="16" y="38" on="0"/>
        <pt x="65" y="165" on="1"/>
        <pt x="280" y="720" on="1"/>
        <pt x="364" y="720" on="1"/>
        <pt x="413" y="0" on="1"/>
      </contour>
      <contour>
        <pt x="303" y="317" on="1"/>
        <pt x="295" y="332" on="1"/>
        <pt x="295" y="547" on="1"/>
        <pt x="221" y="332" on="1"/>
        <pt x="209" y="317" on="1"/>
      </contour>
    </TTGlyph>
    <TTGlyph name="AE" xMin="40" yMin="0" xMax="691" yMax="720">
      <contour>
        <pt x="107" y="0" on="1"/>
        <pt x="71" y="0" on="0"/>
        <pt x="40" y="6" on="0"/>
        <pt x="40" y="17" on="1"/>
        <pt x="40" y="19" on="0"/>
        <pt x="42" y="25" on="1"/>
        <pt x="296" y="720" on="1"/>
        <pt x="691" y="720" on="1"/>
        <pt x="678" y="640" on="1"/>
        <pt x="477" y="640" on="1"/>
        <pt x="477" y="629" on="1"/>
        <pt x="447" y="435" on="1"/>
        <pt x="445" y="430" on="1"/>
        <pt x="631" y="430" on="1"/>
        <pt x="618" y="347" on="1"/>
        <pt x="431" y="347" on="1"/>
        <pt x="431" y="335" on="1"/>
        <pt x="390" y="84" on="1"/>
        <pt x="600" y="84" on="1"/>
        <pt x="586" y="0" on="1"/>
        <pt x="285" y="0" on="1"/>
        <pt x="320" y="230" on="1"/>
        <pt x="322" y="235" on="1"/>
        <pt x="211" y="235" on="1"/>
        <pt x="122" y="0" on="1"/>
      </contour>
      <contour>
        <pt x="337" y="317" on="1"/>
        <pt x="337" y="328" on="1"/>
        <pt x="386" y="640" on="1"/>
        <pt x="349" y="640" on="1"/>
        <pt x="244" y="322" on="1"/>
        <pt x="241" y="317" on="1"/>
      </contour>
    </TTGlyph>
    <TTGlyph name="Aacute" xMin="16" yMin="0" xMax="497" yMax="917">
      <contour>
        <pt x="393" y="0" on="1"/>
        <pt x="340" y="0" on="0"/>
        <pt x="320" y="15" on="0"/>
        <pt x="318" y="58" on="1"/>
        <pt x="307" y="235" on="1"/>
        <pt x="185" y="235" on="1"/>
        <pt x="96" y="0" on="1"/>
        <pt x="81" y="0" on="1"/>
        <pt x="25" y="0" on="0"/>
        <pt x="19" y="10" on="1"/>
        <pt x="16" y="16" on="0"/>
        <pt x="16" y="38" on="0"/>
        <pt x="65" y="165" on="1"/>
        <pt x="280" y="720" on="1"/>
        <pt x="364" y="720" on="1"/>
        <pt x="413" y="0" on="1"/>
      </contour>
      <contour>
        <pt x="303" y="317" on="1"/>
        <pt x="295" y="332" on="1"/>
        <pt x="295" y="547" on="1"/>
        <pt x="221" y="332" on="1"/>
        <pt x="209" y="317" on="1"/>
      </contour>
      <contour>
        <pt x="428" y="917" on="0"/>
        <pt x="458" y="917" on="0"/>
        <pt x="492" y="879" on="1"/>
        <pt x="495" y="875" on="0"/>
        <pt x="497" y="873" on="1"/>
        <pt x="348" y="744" on="1"/>
        <pt x="303" y="801" on="1"/>
        <pt x="394" y="887" on="1"/>
      </contour>
    </TTGlyph>
    <TTGlyph name="Acircumflex" xMin="16" yMin="0" xMax="473" yMax="917">
      <component glyphName="A" x="0" y="0" flags="0x1004"/>
      <component glyphName="circumflex" x="72" y="195" flags="0x1004"/>
    </TTGlyph>
    <TTGlyph name="Adieresis" xMin="16" yMin="0" xMax="469" yMax="904">
      <contour>
        <pt x="393" y="0" on="1"/>
        <pt x="340" y="0" on="0"/>
        <pt x="320" y="15" on="0"/>
        <pt x="318" y="58" on="1"/>
        <pt x="307" y="235" on="1"/>
        <pt x="185" y="235" on="1"/>
        <pt x="96" y="0" on="1"/>
        <pt x="81" y="0" on="1"/>
        <pt x="25" y="0" on="0"/>
        <pt x="19" y="10" on="1"/>
        <pt x="16" y="16" on="0"/>
        <pt x="16" y="38" on="0"/>
        <pt x="65" y="165" on="1"/>
        <pt x="280" y="720" on="1"/>
        <pt x="364" y="720" on="1"/>
        <pt x="413" y="0" on="1"/>
      </contour>
      <contour>
        <pt x="303" y="317" on="1"/>
        <pt x="295" y="332" on="1"/>
        <pt x="295" y="547" on="1"/>
        <pt x="221" y="332" on="1"/>
        <pt x="209" y="317" on="1"/>
      </contour>
      <contour>
        <pt x="333" y="829" on="0"/>
        <pt x="294" y="790" on="0"/>
        <pt x="247" y="790" on="0"/>
        <pt x="217" y="819" on="0"/>
        <pt x="217" y="865" on="0"/>
        <pt x="257" y="904" on="0"/>
        <pt x="305" y="904" on="0"/>
        <pt x="333" y="876" on="0"/>
      </contour>
      <contour>
        <pt x="440" y="904" on="0"/>
        <pt x="469" y="876" on="0"/>
        <pt x="469" y="829" on="0"/>
        <pt x="429" y="790" on="0"/>
        <pt x="382" y="790" on="0"/>
        <pt x="352" y="819" on="0"/>
        <pt x="352" y="865" on="0"/>
        <pt x="393" y="904" on="0"/>
      </contour>
    </TTGlyph>
    <TTGlyph name="Agrave" xMin="16" yMin="0" xMax="413" yMax="917">
      <component glyphName="A" x="0" y="0" flags="0x1004"/>
      <component glyphName="grave" x="92" y="195" flags="0x1004"/>
    </TTGlyph>
    <TTGlyph name="Aring" xMin="16" yMin="0" xMax="432" yMax="949">
      <contour>
        <pt x="393" y="0" on="1"/>
        <pt x="340" y="0" on="0"/>
        <pt x="320" y="15" on="0"/>
        <pt x="318" y="58" on="1"/>
        <pt x="307" y="235" on="1"/>
        <pt x="185" y="235" on="1"/>
        <pt x="96" y="0" on="1"/>
        <pt x="81" y="0" on="1"/>
        <pt x="25" y="0" on="0"/>
        <pt x="19" y="10" on="1"/>
        <pt x="16" y="16" on="0"/>
        <pt x="16" y="38" on="0"/>
        <pt x="65" y="165" on="1"/>
        <pt x="280" y="720" on="1"/>
        <pt x="364" y="720" on="1"/>
        <pt x="413" y="0" on="1"/>
      </contour>
      <contour>
        <pt x="303" y="317" on="1"/>
        <pt x="295" y="332" on="1"/>
        <pt x="295" y="547" on="1"/>
        <pt x="221" y="332" on="1"/>
        <pt x="209" y="317" on="1"/>
      </contour>
      <contour>
        <pt x="385" y="949" on="0"/>
        <pt x="432" y="904" on="0"/>
        <pt x="432" y="829" on="0"/>
        <pt x="367" y="766" on="0"/>
        <pt x="290" y="766" on="0"/>
        <pt x="244" y="811" on="0"/>
        <pt x="244" y="886" on="0"/>
        <pt x="308" y="949" on="0"/>
      </contour>
      <contour>
        <pt x="363" y="864" on="1"/>
        <pt x="363" y="881" on="0"/>
        <pt x="345" y="881" on="1"/>
        <pt x="334" y="881" on="0"/>
        <pt x="312" y="864" on="0"/>
        <pt x="312" y="844" on="0"/>
        <pt x="324" y="833" on="0"/>
        <pt x="344" y="833" on="0"/>
        <pt x="363" y="851" on="0"/>
      </contour>
    </TTGlyph>
    <TTGlyph name="Atilde" xMin="16" yMin="0" xMax="483" yMax="837">
      <contour>
        <pt x="393" y="0" on="1"/>
        <pt x="340" y="0" on="0"/>
        <pt x="320" y="15" on="0"/>
        <pt x="318" y="58" on="1"/>
        <pt x="307" y="235" on="1"/>
        <pt x="185" y="235" on="1"/>
        <pt x="96" y="0" on="1"/>
        <pt x="81" y="0" on="1"/>
        <pt x="25" y="0" on="0"/>
        <pt x="19" y="10" on="1"/>
        <pt x="16" y="16" on="0"/>
        <pt x="16" y="38" on="0"/>
        <pt x="65" y="165" on="1"/>
        <pt x="280" y="720" on="1"/>
        <pt x="364" y="720" on="1"/>
        <pt x="413" y="0" on="1"/>
      </contour>
      <contour>
        <pt x="303" y="317" on="1"/>
        <pt x="295" y="332" on="1"/>
        <pt x="295" y="547" on="1"/>
        <pt x="221" y="332" on="1"/>
        <pt x="209" y="317" on="1"/>
      </contour>
      <contour>
        <pt x="301" y="837" on="1"/>
        <pt x="411" y="834" on="1"/>
        <pt x="438" y="834" on="0"/>
        <pt x="453" y="837" on="1"/>
        <pt x="483" y="835" on="1"/>
        <pt x="478" y="799" on="1"/>
        <pt x="474" y="769" on="0"/>
        <pt x="454" y="759" on="0"/>
        <pt x="403" y="759" on="1"/>
        <pt x="293" y="762" on="1"/>
        <pt x="265" y="762" on="0"/>
        <pt x="252" y="759" on="1"/>
        <pt x="221" y="761" on="1"/>
        <pt x="226" y="797" on="1"/>
        <pt x="233" y="827" on="0"/>
        <pt x="250" y="837" on="0"/>
      </contour>
    </TTGlyph>
    <TTGlyph name="B" xMin="60" yMin="-8" xMax="451" yMax="732">
      <contour>
        <pt x="380" y="732" on="0"/>
        <pt x="451" y="675" on="0"/>
        <pt x="451" y="553" on="0"/>
        <pt x="421" y="427" on="0"/>
        <pt x="397" y="396" on="1"/>
        <pt x="429" y="368" on="0"/>
        <pt x="429" y="249" on="0"/>
        <pt x="423" y="175" on="0"/>
        <pt x="398" y="85" on="0"/>
        <pt x="354" y="30" on="0"/>
        <pt x="273" y="-8" on="0"/>
        <pt x="216" y="-8" on="1"/>
        <pt x="201" y="-8" on="0"/>
        <pt x="60" y="1" on="1"/>
        <pt x="174" y="721" on="1"/>
        <pt x="286" y="732" on="1"/>
      </contour>
      <contour>
        <pt x="231" y="431" on="1"/>
        <pt x="296" y="431" on="0"/>
        <pt x="328" y="463" on="1"/>
        <pt x="352" y="487" on="0"/>
        <pt x="356" y="545" on="1"/>
        <pt x="358" y="565" on="0"/>
        <pt x="358" y="625" on="0"/>
        <pt x="320" y="648" on="0"/>
        <pt x="269" y="648" on="1"/>
        <pt x="250" y="648" on="1"/>
        <pt x="250" y="636" on="1"/>
        <pt x="219" y="436" on="1"/>
        <pt x="217" y="431" on="1"/>
      </contour>
      <contour>
        <pt x="203" y="77" on="1"/>
        <pt x="239" y="77" on="0"/>
        <pt x="291" y="106" on="0"/>
        <pt x="318" y="146" on="0"/>
        <pt x="326" y="178" on="1"/>
        <pt x="337" y="223" on="0"/>
        <pt x="337" y="295" on="1"/>
        <pt x="337" y="323" on="0"/>
        <pt x="304" y="348" on="0"/>
        <pt x="261" y="348" on="1"/>
        <pt x="203" y="348" on="1"/>
        <pt x="203" y="336" on="1"/>
        <pt x="163" y="82" on="1"/>
        <pt x="161" y="77" on="1"/>
      </contour>
    </TTGlyph>
    <TTGlyph name="C" xMin="85" yMin="-7" xMax="452" yMax="732">
      <contour>
        <pt x="230" y="-7" on="1"/>
        <pt x="150" y="-7" on="0"/>
        <pt x="85" y="79" on="0"/>
        <pt x="85" y="231" on="0"/>
        <pt x="96" y="368" on="0"/>
        <pt x="131" y="530" on="0"/>
        <pt x="185" y="650" on="0"/>
        <pt x="282" y="732" on="0"/>
        <pt x="345" y="732" on="1"/>
        <pt x="452" y="709" on="1"/>
        <pt x="445" y="670" on="0"/>
        <pt x="415" y="641" on="0"/>
        <pt x="392" y="641" on="1"/>
        <pt x="389" y="641" on="0"/>
        <pt x="332" y="648" on="1"/>
        <pt x="291" y="648" on="0"/>
        <pt x="227" y="539" on="0"/>
        <pt x="210" y="460" on="1"/>
        <pt x="176" y="300" on="0"/>
        <pt x="176" y="181" on="1"/>
        <pt x="176" y="84" on="0"/>
        <pt x="241" y="84" on="1"/>
        <pt x="265" y="84" on="0"/>
        <pt x="341" y="94" on="0"/>
        <pt x="356" y="94" on="1"/>
        <pt x="342" y="11" on="1"/>
        <pt x="332" y="10" on="0"/>
        <pt x="252" y="-7" on="0"/>
      </contour>
    </TTGlyph>
    <TTGlyph name="Ccedilla" xMin="82" yMin="-175" xMax="452" yMax="732">
      <contour>
        <pt x="173" y="-175" on="1"/>
        <pt x="140" y="-175" on="1"/>
        <pt x="92" y="-175" on="0"/>
        <pt x="86" y="-166" on="1"/>
        <pt x="83" y="-162" on="0"/>
        <pt x="83" y="-133" on="0"/>
        <pt x="87" y="-103" on="1"/>
        <pt x="170" y="-103" on="1"/>
        <pt x="185" y="-2" on="1"/>
        <pt x="85" y="17" on="0"/>
        <pt x="85" y="162" on="1"/>
        <pt x="85" y="317" on="0"/>
        <pt x="131" y="530" on="0"/>
        <pt x="185" y="650" on="0"/>
        <pt x="282" y="732" on="0"/>
        <pt x="345" y="732" on="1"/>
        <pt x="452" y="709" on="1"/>
        <pt x="445" y="670" on="0"/>
        <pt x="415" y="641" on="0"/>
        <pt x="392" y="641" on="1"/>
        <pt x="389" y="641" on="0"/>
        <pt x="332" y="648" on="1"/>
        <pt x="291" y="648" on="0"/>
        <pt x="227" y="539" on="0"/>
        <pt x="210" y="460" on="1"/>
        <pt x="176" y="300" on="0"/>
        <pt x="176" y="181" on="1"/>
        <pt x="176" y="84" on="0"/>
        <pt x="241" y="84" on="1"/>
        <pt x="265" y="84" on="0"/>
        <pt x="341" y="94" on="0"/>
        <pt x="356" y="94" on="1"/>
        <pt x="342" y="11" on="1"/>
        <pt x="327" y="9" on="0"/>
        <pt x="271" y="-3" on="0"/>
        <pt x="257" y="-5" on="1"/>
        <pt x="240" y="-117" on="1"/>
        <pt x="234" y="-155" on="0"/>
        <pt x="212" y="-175" on="0"/>
      </contour>
    </TTGlyph>
    <TTGlyph name="D" xMin="60" yMin="-7" xMax="488" yMax="732">
      <contour>
        <pt x="422" y="732" on="0"/>
        <pt x="488" y="647" on="0"/>
        <pt x="488" y="499" on="0"/>
        <pt x="476" y="362" on="0"/>
        <pt x="442" y="200" on="0"/>
        <pt x="389" y="76" on="0"/>
        <pt x="296" y="-7" on="0"/>
        <pt x="237" y="-7" on="1"/>
        <pt x="232" y="-7" on="0"/>
        <pt x="60" y="1" on="1"/>
        <pt x="175" y="721" on="1"/>
        <pt x="342" y="732" on="1"/>
      </contour>
      <contour>
        <pt x="239" y="77" on="1"/>
        <pt x="280" y="77" on="0"/>
        <pt x="345" y="190" on="0"/>
        <pt x="362" y="272" on="1"/>
        <pt x="397" y="439" on="0"/>
        <pt x="397" y="551" on="1"/>
        <pt x="397" y="599" on="0"/>
        <pt x="369" y="648" on="0"/>
        <pt x="334" y="648" on="1"/>
        <pt x="250" y="648" on="1"/>
        <pt x="250" y="636" on="1"/>
        <pt x="163" y="82" on="1"/>
        <pt x="161" y="77" on="1"/>
      </contour>
    </TTGlyph>
    <TTGlyph name="E" xMin="60" yMin="0" xMax="456" yMax="720">
      <contour>
        <pt x="252" y="640" on="1"/>
        <pt x="252" y="629" on="1"/>
        <pt x="222" y="435" on="1"/>
        <pt x="220" y="430" on="1"/>
        <pt x="397" y="430" on="1"/>
        <pt x="383" y="347" on="1"/>
        <pt x="206" y="347" on="1"/>
        <pt x="206" y="335" on="1"/>
        <pt x="167" y="91" on="1"/>
        <pt x="167" y="89" on="1"/>
        <pt x="167" y="85" on="0"/>
        <pt x="166" y="84" on="1"/>
        <pt x="365" y="84" on="1"/>
        <pt x="352" y="0" on="1"/>
        <pt x="60" y="0" on="1"/>
        <pt x="174" y="720" on="1"/>
        <pt x="456" y="720" on="1"/>
        <pt x="443" y="640" on="1"/>
      </contour>
    </TTGlyph>
    <TTGlyph name="E_S" xMin="60" yMin="-6" xMax="751" yMax="732">
      <contour>
        <pt x="252" y="640" on="1"/>
        <pt x="252" y="629" on="1"/>
        <pt x="222" y="435" on="1"/>
        <pt x="220" y="430" on="1"/>
        <pt x="387" y="430" on="1"/>
        <pt x="373" y="347" on="1"/>
        <pt x="206" y="347" on="1"/>
        <pt x="206" y="335" on="1"/>
        <pt x="167" y="91" on="1"/>
        <pt x="167" y="89" on="1"/>
        <pt x="167" y="85" on="0"/>
        <pt x="166" y="84" on="1"/>
        <pt x="516" y="85" on="1"/>
        <pt x="628" y="91" on="0"/>
        <pt x="628" y="236" on="1"/>
        <pt x="628" y="253" on="0"/>
        <pt x="602" y="296" on="0"/>
        <pt x="577" y="323" on="0"/>
        <pt x="549" y="352" on="1"/>
        <pt x="549" y="351" on="1"/>
        <pt x="513" y="388" on="0"/>
        <pt x="476" y="430" on="0"/>
        <pt x="438" y="504" on="0"/>
        <pt x="438" y="587" on="0"/>
        <pt x="453" y="651" on="0"/>
        <pt x="474" y="678" on="1"/>
        <pt x="513" y="732" on="0"/>
        <pt x="638" y="732" on="1"/>
        <pt x="751" y="709" on="1"/>
        <pt x="744" y="670" on="0"/>
        <pt x="719" y="643" on="0"/>
        <pt x="698" y="643" on="1"/>
        <pt x="631" y="650" on="1"/>
        <pt x="573" y="649" on="0"/>
        <pt x="530" y="598" on="0"/>
        <pt x="530" y="551" on="1"/>
        <pt x="530" y="507" on="0"/>
        <pt x="597" y="444" on="1"/>
        <pt x="625" y="417" on="0"/>
        <pt x="681" y="362" on="0"/>
        <pt x="720" y="292" on="0"/>
        <pt x="720" y="257" on="1"/>
        <pt x="720" y="-5" on="0"/>
        <pt x="502" y="-6" on="1"/>
        <pt x="60" y="0" on="1"/>
        <pt x="174" y="720" on="1"/>
        <pt x="426" y="720" on="1"/>
        <pt x="413" y="640" on="1"/>
      </contour>
    </TTGlyph>
    <TTGlyph name="E_s" xMin="60" yMin="-5" xMax="649" yMax="720">
      <contour>
        <pt x="252" y="640" on="1"/>
        <pt x="252" y="629" on="1"/>
        <pt x="222" y="435" on="1"/>
        <pt x="220" y="430" on="1"/>
        <pt x="367" y="430" on="1"/>
        <pt x="353" y="347" on="1"/>
        <pt x="206" y="347" on="1"/>
        <pt x="206" y="335" on="1"/>
        <pt x="167" y="91" on="1"/>
        <pt x="167" y="89" on="1"/>
        <pt x="167" y="85" on="0"/>
        <pt x="166" y="84" on="1"/>
        <pt x="490" y="77" on="1"/>
        <pt x="513" y="78" on="0"/>
        <pt x="543" y="139" on="0"/>
        <pt x="543" y="178" on="1"/>
        <pt x="543" y="207" on="0"/>
        <pt x="472" y="264" on="1"/>
        <pt x="445" y="285" on="0"/>
        <pt x="400" y="351" on="0"/>
        <pt x="399" y="384" on="1"/>
        <pt x="399" y="463" on="0"/>
        <pt x="471" y="542" on="0"/>
        <pt x="546" y="546" on="1"/>
        <pt x="649" y="533" on="1"/>
        <pt x="641" y="465" on="0"/>
        <pt x="595" y="463" on="1"/>
        <pt x="542" y="469" on="1"/>
        <pt x="482" y="465" on="0"/>
        <pt x="482" y="409" on="1"/>
        <pt x="482" y="370" on="0"/>
        <pt x="556" y="310" on="1"/>
        <pt x="584" y="287" on="0"/>
        <pt x="631" y="223" on="0"/>
        <pt x="631" y="148" on="0"/>
        <pt x="604" y="62" on="0"/>
        <pt x="534" y="-5" on="0"/>
        <pt x="484" y="-5" on="1"/>
        <pt x="60" y="0" on="1"/>
        <pt x="174" y="720" on="1"/>
        <pt x="436" y="720" on="1"/>
        <pt x="423" y="640" on="1"/>
      </contour>
    </TTGlyph>
    <TTGlyph name="Eacute" xMin="60" yMin="0" xMax="488" yMax="917">
      <contour>
        <pt x="252" y="640" on="1"/>
        <pt x="252" y="629" on="1"/>
        <pt x="222" y="435" on="1"/>
        <pt x="220" y="430" on="1"/>
        <pt x="397" y="430" on="1"/>
        <pt x="383" y="347" on="1"/>
        <pt x="206" y="347" on="1"/>
        <pt x="206" y="335" on="1"/>
        <pt x="167" y="91" on="1"/>
        <pt x="167" y="89" on="1"/>
        <pt x="167" y="85" on="0"/>
        <pt x="166" y="84" on="1"/>
        <pt x="365" y="84" on="1"/>
        <pt x="352" y="0" on="1"/>
        <pt x="60" y="0" on="1"/>
        <pt x="174" y="720" on="1"/>
        <pt x="456" y="720" on="1"/>
        <pt x="443" y="640" on="1"/>
      </contour>
      <contour>
        <pt x="385" y="887" on="1"/>
        <pt x="420" y="917" on="0"/>
        <pt x="449" y="917" on="0"/>
        <pt x="483" y="879" on="1"/>
        <pt x="486" y="875" on="0"/>
        <pt x="488" y="873" on="1"/>
        <pt x="339" y="744" on="1"/>
        <pt x="294" y="801" on="1"/>
      </contour>
    </TTGlyph>
    <TTGlyph name="Ecircumflex" xMin="60" yMin="0" xMax="460" yMax="917">
      <contour>
        <pt x="252" y="640" on="1"/>
        <pt x="252" y="629" on="1"/>
        <pt x="222" y="435" on="1"/>
        <pt x="220" y="430" on="1"/>
        <pt x="397" y="430" on="1"/>
        <pt x="383" y="347" on="1"/>
        <pt x="206" y="347" on="1"/>
        <pt x="206" y="335" on="1"/>
        <pt x="167" y="91" on="1"/>
        <pt x="167" y="89" on="1"/>
        <pt x="167" y="85" on="0"/>
        <pt x="166" y="84" on="1"/>
        <pt x="365" y="84" on="1"/>
        <pt x="352" y="0" on="1"/>
        <pt x="60" y="0" on="1"/>
        <pt x="174" y="720" on="1"/>
        <pt x="456" y="720" on="1"/>
        <pt x="443" y="640" on="1"/>
      </contour>
      <contour>
        <pt x="446" y="770" on="1"/>
        <pt x="333" y="839" on="1"/>
        <pt x="194" y="768" on="1"/>
        <pt x="208" y="854" on="1"/>
        <pt x="326" y="917" on="1"/>
        <pt x="358" y="917" on="1"/>
        <pt x="460" y="852" on="1"/>
      </contour>
    </TTGlyph>
    <TTGlyph name="Edieresis" xMin="60" yMin="0" xMax="470" yMax="905">
      <contour>
        <pt x="252" y="640" on="1"/>
        <pt x="252" y="629" on="1"/>
        <pt x="222" y="435" on="1"/>
        <pt x="220" y="430" on="1"/>
        <pt x="397" y="430" on="1"/>
        <pt x="383" y="347" on="1"/>
        <pt x="206" y="347" on="1"/>
        <pt x="206" y="335" on="1"/>
        <pt x="167" y="91" on="1"/>
        <pt x="167" y="89" on="1"/>
        <pt x="167" y="85" on="0"/>
        <pt x="166" y="84" on="1"/>
        <pt x="365" y="84" on="1"/>
        <pt x="352" y="0" on="1"/>
        <pt x="60" y="0" on="1"/>
        <pt x="174" y="720" on="1"/>
        <pt x="456" y="720" on="1"/>
        <pt x="443" y="640" on="1"/>
      </contour>
      <contour>
        <pt x="334" y="830" on="0"/>
        <pt x="295" y="791" on="0"/>
        <pt x="248" y="791" on="0"/>
        <pt x="218" y="820" on="0"/>
        <pt x="218" y="866" on="0"/>
        <pt x="258" y="905" on="0"/>
        <pt x="306" y="905" on="0"/>
        <pt x="334" y="877" on="0"/>
      </contour>
      <contour>
        <pt x="441" y="905" on="0"/>
        <pt x="470" y="877" on="0"/>
        <pt x="470" y="830" on="0"/>
        <pt x="430" y="791" on="0"/>
        <pt x="383" y="791" on="0"/>
        <pt x="353" y="820" on="0"/>
        <pt x="353" y="866" on="0"/>
        <pt x="394" y="905" on="0"/>
      </contour>
    </TTGlyph>
    <TTGlyph name="Egrave" xMin="60" yMin="0" xMax="456" yMax="917">
      <contour>
        <pt x="252" y="640" on="1"/>
        <pt x="252" y="629" on="1"/>
        <pt x="222" y="435" on="1"/>
        <pt x="220" y="430" on="1"/>
        <pt x="397" y="430" on="1"/>
        <pt x="383" y="347" on="1"/>
        <pt x="206" y="347" on="1"/>
        <pt x="206" y="335" on="1"/>
        <pt x="167" y="91" on="1"/>
        <pt x="167" y="89" on="1"/>
        <pt x="167" y="85" on="0"/>
        <pt x="166" y="84" on="1"/>
        <pt x="365" y="84" on="1"/>
        <pt x="352" y="0" on="1"/>
        <pt x="60" y="0" on="1"/>
        <pt x="174" y="720" on="1"/>
        <pt x="456" y="720" on="1"/>
        <pt x="443" y="640" on="1"/>
      </contour>
      <contour>
        <pt x="265" y="890" on="1"/>
        <pt x="295" y="917" on="0"/>
        <pt x="325" y="917" on="0"/>
        <pt x="356" y="880" on="1"/>
        <pt x="416" y="797" on="1"/>
        <pt x="358" y="745" on="1"/>
        <pt x="248" y="875" on="1"/>
      </contour>
    </TTGlyph>
    <TTGlyph name="Eth" xMin="46" yMin="-7" xMax="493" yMax="732">
      <contour>
        <pt x="427" y="732" on="0"/>
        <pt x="493" y="647" on="0"/>
        <pt x="493" y="480" on="0"/>
        <pt x="471" y="304" on="0"/>
        <pt x="420" y="113" on="0"/>
        <pt x="314" y="-7" on="0"/>
        <pt x="241" y="-7" on="1"/>
        <pt x="236" y="-7" on="0"/>
        <pt x="46" y="1" on="1"/>
        <pt x="160" y="721" on="1"/>
        <pt x="346" y="732" on="1"/>
      </contour>
      <contour>
        <pt x="244" y="77" on="1"/>
        <pt x="285" y="77" on="0"/>
        <pt x="350" y="190" on="0"/>
        <pt x="367" y="272" on="1"/>
        <pt x="402" y="439" on="0"/>
        <pt x="402" y="551" on="1"/>
        <pt x="402" y="599" on="0"/>
        <pt x="374" y="648" on="0"/>
        <pt x="339" y="648" on="1"/>
        <pt x="232" y="648" on="1"/>
        <pt x="234" y="624" on="1"/>
        <pt x="207" y="453" on="1"/>
        <pt x="201" y="432" on="1"/>
        <pt x="321" y="432" on="1"/>
        <pt x="310" y="354" on="1"/>
        <pt x="188" y="354" on="1"/>
        <pt x="188" y="330" on="1"/>
        <pt x="149" y="86" on="1"/>
        <pt x="146" y="77" on="1"/>
      </contour>
    </TTGlyph>
    <TTGlyph name="Euro" xMin="48" yMin="-6" xMax="420" yMax="545">
      <contour>
        <pt x="276" y="183" on="1"/>
        <pt x="201" y="186" on="1"/>
        <pt x="196" y="165" on="0"/>
        <pt x="196" y="98" on="0"/>
        <pt x="213" y="73" on="0"/>
        <pt x="236" y="73" on="1"/>
        <pt x="345" y="73" on="1"/>
        <pt x="335" y="2" on="1"/>
        <pt x="228" y="-6" on="1"/>
        <pt x="162" y="-6" on="0"/>
        <pt x="111" y="47" on="0"/>
        <pt x="111" y="148" on="0"/>
        <pt x="118" y="193" on="1"/>
        <pt x="48" y="193" on="1"/>
        <pt x="53" y="229" on="1"/>
        <pt x="58" y="260" on="0"/>
        <pt x="76" y="270" on="0"/>
        <pt x="128" y="270" on="1"/>
        <pt x="130" y="270" on="1"/>
        <pt x="133" y="287" on="1"/>
        <pt x="65" y="287" on="1"/>
        <pt x="71" y="323" on="1"/>
        <pt x="76" y="354" on="0"/>
        <pt x="95" y="364" on="0"/>
        <pt x="146" y="364" on="1"/>
        <pt x="146" y="367" on="1"/>
        <pt x="164" y="466" on="0"/>
        <pt x="230" y="545" on="0"/>
        <pt x="310" y="545" on="1"/>
        <pt x="420" y="537" on="1"/>
        <pt x="411" y="484" on="0"/>
        <pt x="393" y="466" on="0"/>
        <pt x="348" y="466" on="1"/>
        <pt x="302" y="466" on="1"/>
        <pt x="270" y="466" on="0"/>
        <pt x="240" y="418" on="0"/>
        <pt x="228" y="358" on="1"/>
        <pt x="235" y="358" on="1"/>
        <pt x="240" y="358" on="0"/>
        <pt x="276" y="353" on="0"/>
        <pt x="284" y="352" on="1"/>
        <pt x="312" y="351" on="0"/>
        <pt x="333" y="356" on="1"/>
        <pt x="364" y="354" on="1"/>
        <pt x="360" y="318" on="1"/>
        <pt x="356" y="288" on="0"/>
        <pt x="336" y="277" on="0"/>
        <pt x="252" y="277" on="0"/>
        <pt x="216" y="280" on="1"/>
        <pt x="213" y="263" on="1"/>
        <pt x="252" y="259" on="0"/>
        <pt x="302" y="259" on="0"/>
        <pt x="316" y="262" on="1"/>
        <pt x="346" y="260" on="1"/>
        <pt x="342" y="224" on="1"/>
        <pt x="338" y="190" on="0"/>
        <pt x="306" y="186" on="1"/>
        <pt x="290" y="183" on="0"/>
      </contour>
    </TTGlyph>
    <TTGlyph name="F" xMin="67" yMin="0" xMax="457" yMax="720">
      <contour>
        <pt x="133" y="0" on="1"/>
        <pt x="102" y="0" on="0"/>
        <pt x="91" y="2" on="1"/>
        <pt x="67" y="5" on="0"/>
        <pt x="67" y="33" on="1"/>
        <pt x="67" y="39" on="0"/>
        <pt x="174" y="720" on="1"/>
        <pt x="457" y="720" on="1"/>
        <pt x="443" y="640" on="1"/>
        <pt x="252" y="640" on="1"/>
        <pt x="252" y="629" on="1"/>
        <pt x="222" y="435" on="1"/>
        <pt x="220" y="430" on="1"/>
        <pt x="397" y="430" on="1"/>
        <pt x="384" y="347" on="1"/>
        <pt x="206" y="347" on="1"/>
        <pt x="206" y="335" on="1"/>
        <pt x="153" y="0" on="1"/>
      </contour>
    </TTGlyph>
    <TTGlyph name="G" xMin="95" yMin="-7" xMax="481" yMax="732">
      <contour>
        <pt x="422" y="641" on="1"/>
        <pt x="337" y="648" on="1"/>
        <pt x="299" y="648" on="0"/>
        <pt x="236" y="535" on="0"/>
        <pt x="219" y="454" on="1"/>
        <pt x="185" y="292" on="0"/>
        <pt x="185" y="176" on="1"/>
        <pt x="185" y="77" on="0"/>
        <pt x="249" y="77" on="1"/>
        <pt x="314" y="85" on="1"/>
        <pt x="314" y="98" on="1"/>
        <pt x="348" y="311" on="1"/>
        <pt x="356" y="362" on="0"/>
        <pt x="372" y="379" on="0"/>
        <pt x="415" y="379" on="1"/>
        <pt x="448" y="379" on="1"/>
        <pt x="390" y="11" on="1"/>
        <pt x="240" y="-7" on="1"/>
        <pt x="160" y="-7" on="0"/>
        <pt x="95" y="79" on="0"/>
        <pt x="95" y="226" on="0"/>
        <pt x="106" y="361" on="0"/>
        <pt x="139" y="524" on="0"/>
        <pt x="191" y="648" on="0"/>
        <pt x="282" y="732" on="0"/>
        <pt x="341" y="732" on="1"/>
        <pt x="350" y="732" on="0"/>
        <pt x="481" y="710" on="1"/>
        <pt x="474" y="670" on="0"/>
        <pt x="444" y="641" on="0"/>
      </contour>
    </TTGlyph>
    <TTGlyph name="H" xMin="60" yMin="0" xMax="490" yMax="720">
      <contour>
        <pt x="368" y="0" on="1"/>
        <pt x="328" y="0" on="0"/>
        <pt x="301" y="7" on="0"/>
        <pt x="301" y="24" on="1"/>
        <pt x="301" y="30" on="0"/>
        <pt x="349" y="339" on="1"/>
        <pt x="351" y="347" on="1"/>
        <pt x="202" y="347" on="1"/>
        <pt x="202" y="335" on="1"/>
        <pt x="158" y="57" on="1"/>
        <pt x="151" y="17" on="0"/>
        <pt x="128" y="0" on="0"/>
        <pt x="81" y="0" on="1"/>
        <pt x="60" y="0" on="1"/>
        <pt x="175" y="720" on="1"/>
        <pt x="191" y="720" on="1"/>
        <pt x="220" y="720" on="0"/>
        <pt x="230" y="718" on="1"/>
        <pt x="256" y="715" on="0"/>
        <pt x="256" y="688" on="1"/>
        <pt x="256" y="678" on="0"/>
        <pt x="219" y="435" on="1"/>
        <pt x="217" y="430" on="1"/>
        <pt x="366" y="430" on="1"/>
        <pt x="366" y="442" on="1"/>
        <pt x="410" y="720" on="1"/>
        <pt x="426" y="720" on="1"/>
        <pt x="481" y="720" on="0"/>
        <pt x="487" y="705" on="1"/>
        <pt x="490" y="698" on="0"/>
        <pt x="490" y="676" on="0"/>
        <pt x="385" y="0" on="1"/>
      </contour>
    </TTGlyph>
    <TTGlyph name="I" xMin="65" yMin="0" xMax="255" yMax="720">
      <contour>
        <pt x="131" y="0" on="1"/>
        <pt x="100" y="0" on="0"/>
        <pt x="89" y="2" on="1"/>
        <pt x="65" y="5" on="0"/>
        <pt x="65" y="33" on="1"/>
        <pt x="65" y="39" on="0"/>
        <pt x="172" y="720" on="1"/>
        <pt x="189" y="720" on="1"/>
        <pt x="231" y="720" on="0"/>
        <pt x="255" y="711" on="0"/>
        <pt x="255" y="680" on="0"/>
        <pt x="148" y="0" on="1"/>
      </contour>
    </TTGlyph>
    <TTGlyph name="I_J" xMin="65" yMin="-192" xMax="468" yMax="720">
      <contour>
        <pt x="131" y="0" on="1"/>
        <pt x="100" y="0" on="0"/>
        <pt x="89" y="2" on="1"/>
        <pt x="65" y="5" on="0"/>
        <pt x="65" y="33" on="1"/>
        <pt x="65" y="39" on="0"/>
        <pt x="172" y="720" on="1"/>
        <pt x="189" y="720" on="1"/>
        <pt x="231" y="720" on="0"/>
        <pt x="255" y="711" on="0"/>
        <pt x="255" y="680" on="0"/>
        <pt x="148" y="0" on="1"/>
      </contour>
      <contour>
        <pt x="402" y="720" on="1"/>
        <pt x="431" y="720" on="0"/>
        <pt x="442" y="719" on="1"/>
        <pt x="470" y="716" on="0"/>
        <pt x="468" y="688" on="1"/>
        <pt x="384" y="146" on="1"/>
        <pt x="356" y="-46" on="0"/>
        <pt x="321" y="-100" on="1"/>
        <pt x="278" y="-166" on="0"/>
        <pt x="222" y="-182" on="1"/>
        <pt x="188" y="-192" on="0"/>
        <pt x="143" y="-192" on="1"/>
        <pt x="155" y="-115" on="1"/>
        <pt x="228" y="-115" on="0"/>
        <pt x="262" y="-5" on="1"/>
        <pt x="277" y="47" on="0"/>
        <pt x="309" y="241" on="0"/>
        <pt x="370" y="628" on="0"/>
        <pt x="385" y="720" on="1"/>
      </contour>
    </TTGlyph>
    <TTGlyph name="Iacute" xMin="65" yMin="0" xMax="389" yMax="917">
      <contour>
        <pt x="131" y="0" on="1"/>
        <pt x="100" y="0" on="0"/>
        <pt x="89" y="2" on="1"/>
        <pt x="65" y="5" on="0"/>
        <pt x="65" y="33" on="1"/>
        <pt x="65" y="39" on="0"/>
        <pt x="172" y="720" on="1"/>
        <pt x="189" y="720" on="1"/>
        <pt x="231" y="720" on="0"/>
        <pt x="255" y="711" on="0"/>
        <pt x="255" y="680" on="0"/>
        <pt x="148" y="0" on="1"/>
      </contour>
      <contour>
        <pt x="320" y="917" on="0"/>
        <pt x="350" y="917" on="0"/>
        <pt x="384" y="879" on="1"/>
        <pt x="387" y="875" on="0"/>
        <pt x="389" y="873" on="1"/>
        <pt x="240" y="744" on="1"/>
        <pt x="195" y="801" on="1"/>
        <pt x="286" y="887" on="1"/>
      </contour>
    </TTGlyph>
    <TTGlyph name="Icircumflex" xMin="65" yMin="0" xMax="375" yMax="917">
      <contour>
        <pt x="131" y="0" on="1"/>
        <pt x="100" y="0" on="0"/>
        <pt x="89" y="2" on="1"/>
        <pt x="65" y="5" on="0"/>
        <pt x="65" y="33" on="1"/>
        <pt x="65" y="39" on="0"/>
        <pt x="172" y="720" on="1"/>
        <pt x="189" y="720" on="1"/>
        <pt x="231" y="720" on="0"/>
        <pt x="255" y="711" on="0"/>
        <pt x="255" y="680" on="0"/>
        <pt x="148" y="0" on="1"/>
      </contour>
      <contour>
        <pt x="361" y="770" on="1"/>
        <pt x="248" y="839" on="1"/>
        <pt x="109" y="768" on="1"/>
        <pt x="123" y="854" on="1"/>
        <pt x="241" y="917" on="1"/>
        <pt x="273" y="917" on="1"/>
        <pt x="375" y="852" on="1"/>
      </contour>
    </TTGlyph>
    <TTGlyph name="Idieresis" xMin="65" yMin="0" xMax="363" yMax="905">
      <contour>
        <pt x="131" y="0" on="1"/>
        <pt x="100" y="0" on="0"/>
        <pt x="89" y="2" on="1"/>
        <pt x="65" y="5" on="0"/>
        <pt x="65" y="33" on="1"/>
        <pt x="65" y="39" on="0"/>
        <pt x="172" y="720" on="1"/>
        <pt x="189" y="720" on="1"/>
        <pt x="231" y="720" on="0"/>
        <pt x="255" y="711" on="0"/>
        <pt x="255" y="680" on="0"/>
        <pt x="148" y="0" on="1"/>
      </contour>
      <contour>
        <pt x="227" y="830" on="0"/>
        <pt x="188" y="791" on="0"/>
        <pt x="141" y="791" on="0"/>
        <pt x="111" y="820" on="0"/>
        <pt x="111" y="866" on="0"/>
        <pt x="151" y="905" on="0"/>
        <pt x="199" y="905" on="0"/>
        <pt x="227" y="877" on="0"/>
      </contour>
      <contour>
        <pt x="334" y="905" on="0"/>
        <pt x="363" y="877" on="0"/>
        <pt x="363" y="830" on="0"/>
        <pt x="323" y="791" on="0"/>
        <pt x="276" y="791" on="0"/>
        <pt x="246" y="820" on="0"/>
        <pt x="246" y="866" on="0"/>
        <pt x="287" y="905" on="0"/>
      </contour>
    </TTGlyph>
    <TTGlyph name="Igrave" xMin="65" yMin="0" xMax="304" yMax="917">
      <component glyphName="I" x="0" y="0" flags="0x1004"/>
      <component glyphName="grave" x="37" y="195" flags="0x1004"/>
    </TTGlyph>
    <TTGlyph name="J" xMin="-29" yMin="-192" xMax="296" yMax="720">
      <contour>
        <pt x="230" y="720" on="1"/>
        <pt x="259" y="720" on="0"/>
        <pt x="270" y="719" on="1"/>
        <pt x="298" y="716" on="0"/>
        <pt x="296" y="688" on="1"/>
        <pt x="212" y="146" on="1"/>
        <pt x="184" y="-46" on="0"/>
        <pt x="149" y="-100" on="1"/>
        <pt x="106" y="-166" on="0"/>
        <pt x="50" y="-182" on="1"/>
        <pt x="16" y="-192" on="0"/>
        <pt x="-29" y="-192" on="1"/>
        <pt x="-17" y="-115" on="1"/>
        <pt x="56" y="-115" on="0"/>
        <pt x="90" y="-5" on="1"/>
        <pt x="105" y="47" on="0"/>
        <pt x="122" y="144" on="1"/>
        <pt x="159" y="365" on="0"/>
        <pt x="213" y="720" on="1"/>
      </contour>
    </TTGlyph>
    <TTGlyph name="K" xMin="60" yMin="0" xMax="512" yMax="720">
      <contour>
        <pt x="404" y="0" on="1"/>
        <pt x="351" y="0" on="0"/>
        <pt x="321" y="15" on="0"/>
        <pt x="309" y="54" on="1"/>
        <pt x="232" y="364" on="1"/>
        <pt x="437" y="720" on="1"/>
        <pt x="449" y="720" on="1"/>
        <pt x="476" y="720" on="0"/>
        <pt x="486" y="719" on="1"/>
        <pt x="512" y="717" on="0"/>
        <pt x="512" y="695" on="1"/>
        <pt x="512" y="688" on="0"/>
        <pt x="477" y="625" on="1"/>
        <pt x="328" y="361" on="1"/>
        <pt x="426" y="0" on="1"/>
      </contour>
      <contour>
        <pt x="81" y="0" on="1"/>
        <pt x="60" y="0" on="1"/>
        <pt x="174" y="720" on="1"/>
        <pt x="191" y="720" on="1"/>
        <pt x="229" y="720" on="0"/>
        <pt x="257" y="714" on="0"/>
        <pt x="257" y="701" on="1"/>
        <pt x="257" y="699" on="0"/>
        <pt x="158" y="57" on="1"/>
        <pt x="152" y="17" on="0"/>
        <pt x="130" y="0" on="0"/>
      </contour>
    </TTGlyph>
    <TTGlyph name="L" xMin="59" yMin="0" xMax="333" yMax="720">
      <contour>
        <pt x="193" y="720" on="1"/>
        <pt x="250" y="720" on="0"/>
        <pt x="256" y="710" on="1"/>
        <pt x="259" y="706" on="0"/>
        <pt x="259" y="696" on="0"/>
        <pt x="166" y="98" on="1"/>
        <pt x="158" y="84" on="1"/>
        <pt x="268" y="84" on="1"/>
        <pt x="310" y="84" on="0"/>
        <pt x="333" y="75" on="0"/>
        <pt x="333" y="52" on="1"/>
        <pt x="329" y="0" on="1"/>
        <pt x="59" y="0" on="1"/>
        <pt x="173" y="720" on="1"/>
      </contour>
    </TTGlyph>
    <TTGlyph name="Lslash" xMin="28" yMin="0" xMax="333" yMax="720">
      <component glyphName="L" x="0" y="0" flags="0x1004"/>
      <component glyphName="endash" x="-64" y="0" flags="0x1004"/>
    </TTGlyph>
    <TTGlyph name="M" xMin="57" yMin="0" xMax="616" yMax="720">
      <contour>
        <pt x="616" y="696" on="1"/>
        <pt x="508" y="0" on="1"/>
        <pt x="492" y="0" on="1"/>
        <pt x="432" y="0" on="0"/>
        <pt x="426" y="10" on="1"/>
        <pt x="423" y="16" on="0"/>
        <pt x="423" y="30" on="0"/>
        <pt x="496" y="502" on="1"/>
        <pt x="397" y="340" on="1"/>
        <pt x="362" y="289" on="1"/>
        <pt x="311" y="289" on="1"/>
        <pt x="276" y="342" on="1"/>
        <pt x="225" y="505" on="1"/>
        <pt x="155" y="57" on="1"/>
        <pt x="149" y="17" on="0"/>
        <pt x="126" y="0" on="0"/>
        <pt x="78" y="0" on="1"/>
        <pt x="57" y="0" on="1"/>
        <pt x="171" y="720" on="1"/>
        <pt x="188" y="720" on="1"/>
        <pt x="235" y="720" on="0"/>
        <pt x="259" y="704" on="0"/>
        <pt x="271" y="665" on="1"/>
        <pt x="347" y="418" on="1"/>
        <pt x="536" y="720" on="1"/>
        <pt x="549" y="720" on="1"/>
        <pt x="589" y="720" on="0"/>
        <pt x="616" y="713" on="0"/>
      </contour>
    </TTGlyph>
    <TTGlyph name="N" xMin="56" yMin="0" xMax="495" yMax="720">
      <contour>
        <pt x="371" y="0" on="1"/>
        <pt x="321" y="0" on="0"/>
        <pt x="300" y="14" on="0"/>
        <pt x="292" y="56" on="1"/>
        <pt x="216" y="453" on="1"/>
        <pt x="153" y="57" on="1"/>
        <pt x="147" y="17" on="0"/>
        <pt x="125" y="0" on="0"/>
        <pt x="77" y="0" on="1"/>
        <pt x="56" y="0" on="1"/>
        <pt x="170" y="720" on="1"/>
        <pt x="187" y="720" on="1"/>
        <pt x="236" y="720" on="0"/>
        <pt x="258" y="706" on="0"/>
        <pt x="265" y="664" on="1"/>
        <pt x="339" y="256" on="1"/>
        <pt x="413" y="720" on="1"/>
        <pt x="429" y="720" on="1"/>
        <pt x="460" y="720" on="0"/>
        <pt x="472" y="718" on="1"/>
        <pt x="494" y="716" on="0"/>
        <pt x="494" y="694" on="1"/>
        <pt x="494" y="691" on="0"/>
        <pt x="494" y="687" on="1"/>
        <pt x="388" y="0" on="1"/>
      </contour>
    </TTGlyph>
    <TTGlyph name="Ntilde" xMin="56" yMin="0" xMax="495" yMax="837">
      <contour>
        <pt x="371" y="0" on="1"/>
        <pt x="321" y="0" on="0"/>
        <pt x="300" y="14" on="0"/>
        <pt x="292" y="56" on="1"/>
        <pt x="216" y="453" on="1"/>
        <pt x="153" y="57" on="1"/>
        <pt x="147" y="17" on="0"/>
        <pt x="125" y="0" on="0"/>
        <pt x="77" y="0" on="1"/>
        <pt x="56" y="0" on="1"/>
        <pt x="170" y="720" on="1"/>
        <pt x="187" y="720" on="1"/>
        <pt x="236" y="720" on="0"/>
        <pt x="258" y="706" on="0"/>
        <pt x="265" y="664" on="1"/>
        <pt x="339" y="256" on="1"/>
        <pt x="413" y="720" on="1"/>
        <pt x="429" y="720" on="1"/>
        <pt x="460" y="720" on="0"/>
        <pt x="472" y="718" on="1"/>
        <pt x="494" y="716" on="0"/>
        <pt x="494" y="694" on="1"/>
        <pt x="494" y="691" on="0"/>
        <pt x="494" y="687" on="1"/>
        <pt x="388" y="0" on="1"/>
      </contour>
      <contour>
        <pt x="301" y="837" on="1"/>
        <pt x="411" y="834" on="1"/>
        <pt x="438" y="834" on="0"/>
        <pt x="453" y="837" on="1"/>
        <pt x="483" y="835" on="1"/>
        <pt x="478" y="799" on="1"/>
        <pt x="474" y="769" on="0"/>
        <pt x="454" y="759" on="0"/>
        <pt x="403" y="759" on="1"/>
        <pt x="293" y="762" on="1"/>
        <pt x="265" y="762" on="0"/>
        <pt x="252" y="759" on="1"/>
        <pt x="221" y="761" on="1"/>
        <pt x="226" y="797" on="1"/>
        <pt x="233" y="827" on="0"/>
        <pt x="250" y="837" on="0"/>
      </contour>
    </TTGlyph>
    <TTGlyph name="O" xMin="89" yMin="-7" xMax="494" yMax="732">
      <contour>
        <pt x="406" y="99" on="0"/>
        <pt x="302" y="-7" on="0"/>
        <pt x="157" y="-7" on="0"/>
        <pt x="89" y="82" on="0"/>
        <pt x="89" y="271" on="0"/>
        <pt x="118" y="458" on="0"/>
        <pt x="176" y="627" on="0"/>
        <pt x="280" y="732" on="0"/>
        <pt x="426" y="732" on="0"/>
        <pt x="494" y="647" on="0"/>
        <pt x="494" y="459" on="0"/>
        <pt x="465" y="270" on="0"/>
      </contour>
      <contour>
        <pt x="244" y="77" on="1"/>
        <pt x="291" y="77" on="0"/>
        <pt x="366" y="253" on="0"/>
        <pt x="399" y="459" on="0"/>
        <pt x="399" y="538" on="1"/>
        <pt x="399" y="648" on="0"/>
        <pt x="339" y="648" on="1"/>
        <pt x="291" y="648" on="0"/>
        <pt x="217" y="473" on="0"/>
        <pt x="184" y="268" on="0"/>
        <pt x="184" y="188" on="1"/>
        <pt x="184" y="77" on="0"/>
      </contour>
    </TTGlyph>
    <TTGlyph name="OE" xMin="75" yMin="-7" xMax="725" yMax="734">
      <contour>
        <pt x="148" y="-7" on="0"/>
        <pt x="75" y="68" on="0"/>
        <pt x="75" y="215" on="0"/>
        <pt x="86" y="352" on="0"/>
        <pt x="120" y="519" on="0"/>
        <pt x="173" y="647" on="0"/>
        <pt x="266" y="734" on="0"/>
        <pt x="326" y="734" on="1"/>
        <pt x="336" y="734" on="0"/>
        <pt x="436" y="720" on="1"/>
        <pt x="725" y="720" on="1"/>
        <pt x="712" y="640" on="1"/>
        <pt x="504" y="640" on="1"/>
        <pt x="504" y="629" on="1"/>
        <pt x="475" y="435" on="1"/>
        <pt x="473" y="430" on="1"/>
        <pt x="666" y="430" on="1"/>
        <pt x="652" y="347" on="1"/>
        <pt x="459" y="347" on="1"/>
        <pt x="459" y="335" on="1"/>
        <pt x="421" y="95" on="1"/>
        <pt x="419" y="84" on="1"/>
        <pt x="634" y="84" on="1"/>
        <pt x="621" y="0" on="1"/>
        <pt x="328" y="0" on="1"/>
        <pt x="238" y="-7" on="1"/>
      </contour>
      <contour>
        <pt x="328" y="649" on="1"/>
        <pt x="286" y="649" on="0"/>
        <pt x="220" y="535" on="0"/>
        <pt x="185" y="371" on="0"/>
        <pt x="168" y="225" on="0"/>
        <pt x="168" y="125" on="0"/>
        <pt x="203" y="77" on="0"/>
        <pt x="245" y="77" on="1"/>
        <pt x="323" y="84" on="1"/>
        <pt x="411" y="638" on="1"/>
        <pt x="337" y="649" on="0"/>
      </contour>
    </TTGlyph>
    <TTGlyph name="Oacute" xMin="89" yMin="-7" xMax="495" yMax="917">
      <contour>
        <pt x="406" y="99" on="0"/>
        <pt x="302" y="-7" on="0"/>
        <pt x="157" y="-7" on="0"/>
        <pt x="89" y="82" on="0"/>
        <pt x="89" y="271" on="0"/>
        <pt x="118" y="458" on="0"/>
        <pt x="176" y="627" on="0"/>
        <pt x="280" y="732" on="0"/>
        <pt x="426" y="732" on="0"/>
        <pt x="494" y="647" on="0"/>
        <pt x="494" y="459" on="0"/>
        <pt x="465" y="270" on="0"/>
      </contour>
      <contour>
        <pt x="244" y="77" on="1"/>
        <pt x="291" y="77" on="0"/>
        <pt x="366" y="253" on="0"/>
        <pt x="399" y="459" on="0"/>
        <pt x="399" y="538" on="1"/>
        <pt x="399" y="648" on="0"/>
        <pt x="339" y="648" on="1"/>
        <pt x="291" y="648" on="0"/>
        <pt x="217" y="473" on="0"/>
        <pt x="184" y="268" on="0"/>
        <pt x="184" y="188" on="1"/>
        <pt x="184" y="77" on="0"/>
      </contour>
      <contour>
        <pt x="426" y="917" on="0"/>
        <pt x="456" y="917" on="0"/>
        <pt x="490" y="879" on="1"/>
        <pt x="493" y="875" on="0"/>
        <pt x="495" y="873" on="1"/>
        <pt x="346" y="744" on="1"/>
        <pt x="301" y="801" on="1"/>
        <pt x="392" y="887" on="1"/>
      </contour>
    </TTGlyph>
    <TTGlyph name="Ocircumflex" xMin="89" yMin="-7" xMax="511" yMax="917">
      <contour>
        <pt x="406" y="99" on="0"/>
        <pt x="302" y="-7" on="0"/>
        <pt x="157" y="-7" on="0"/>
        <pt x="89" y="82" on="0"/>
        <pt x="89" y="271" on="0"/>
        <pt x="118" y="458" on="0"/>
        <pt x="176" y="627" on="0"/>
        <pt x="280" y="732" on="0"/>
        <pt x="426" y="732" on="0"/>
        <pt x="494" y="647" on="0"/>
        <pt x="494" y="459" on="0"/>
        <pt x="465" y="270" on="0"/>
      </contour>
      <contour>
        <pt x="244" y="77" on="1"/>
        <pt x="291" y="77" on="0"/>
        <pt x="366" y="253" on="0"/>
        <pt x="399" y="459" on="0"/>
        <pt x="399" y="538" on="1"/>
        <pt x="399" y="648" on="0"/>
        <pt x="339" y="648" on="1"/>
        <pt x="291" y="648" on="0"/>
        <pt x="217" y="473" on="0"/>
        <pt x="184" y="268" on="0"/>
        <pt x="184" y="188" on="1"/>
        <pt x="184" y="77" on="0"/>
      </contour>
      <contour>
        <pt x="497" y="770" on="1"/>
        <pt x="384" y="839" on="1"/>
        <pt x="245" y="768" on="1"/>
        <pt x="259" y="854" on="1"/>
        <pt x="377" y="917" on="1"/>
        <pt x="409" y="917" on="1"/>
        <pt x="511" y="852" on="1"/>
      </contour>
    </TTGlyph>
    <TTGlyph name="Odieresis" xMin="89" yMin="-7" xMax="497" yMax="905">
      <contour>
        <pt x="406" y="99" on="0"/>
        <pt x="302" y="-7" on="0"/>
        <pt x="157" y="-7" on="0"/>
        <pt x="89" y="82" on="0"/>
        <pt x="89" y="271" on="0"/>
        <pt x="118" y="458" on="0"/>
        <pt x="176" y="627" on="0"/>
        <pt x="280" y="732" on="0"/>
        <pt x="426" y="732" on="0"/>
        <pt x="494" y="647" on="0"/>
        <pt x="494" y="459" on="0"/>
        <pt x="465" y="270" on="0"/>
      </contour>
      <contour>
        <pt x="244" y="77" on="1"/>
        <pt x="291" y="77" on="0"/>
        <pt x="366" y="253" on="0"/>
        <pt x="399" y="459" on="0"/>
        <pt x="399" y="538" on="1"/>
        <pt x="399" y="648" on="0"/>
        <pt x="339" y="648" on="1"/>
        <pt x="291" y="648" on="0"/>
        <pt x="217" y="473" on="0"/>
        <pt x="184" y="268" on="0"/>
        <pt x="184" y="188" on="1"/>
        <pt x="184" y="77" on="0"/>
      </contour>
      <contour>
        <pt x="361" y="830" on="0"/>
        <pt x="322" y="791" on="0"/>
        <pt x="275" y="791" on="0"/>
        <pt x="245" y="820" on="0"/>
        <pt x="245" y="866" on="0"/>
        <pt x="285" y="905" on="0"/>
        <pt x="333" y="905" on="0"/>
        <pt x="361" y="877" on="0"/>
      </contour>
      <contour>
        <pt x="468" y="905" on="0"/>
        <pt x="497" y="877" on="0"/>
        <pt x="497" y="830" on="0"/>
        <pt x="457" y="791" on="0"/>
        <pt x="410" y="791" on="0"/>
        <pt x="380" y="820" on="0"/>
        <pt x="380" y="866" on="0"/>
        <pt x="421" y="905" on="0"/>
      </contour>
    </TTGlyph>
    <TTGlyph name="Ograve" xMin="89" yMin="-7" xMax="494" yMax="917">
      <contour>
        <pt x="406" y="99" on="0"/>
        <pt x="302" y="-7" on="0"/>
        <pt x="157" y="-7" on="0"/>
        <pt x="89" y="82" on="0"/>
        <pt x="89" y="271" on="0"/>
        <pt x="118" y="458" on="0"/>
        <pt x="176" y="627" on="0"/>
        <pt x="280" y="732" on="0"/>
        <pt x="426" y="732" on="0"/>
        <pt x="494" y="647" on="0"/>
        <pt x="494" y="459" on="0"/>
        <pt x="465" y="270" on="0"/>
      </contour>
      <contour>
        <pt x="244" y="77" on="1"/>
        <pt x="291" y="77" on="0"/>
        <pt x="366" y="253" on="0"/>
        <pt x="399" y="459" on="0"/>
        <pt x="399" y="538" on="1"/>
        <pt x="399" y="648" on="0"/>
        <pt x="339" y="648" on="1"/>
        <pt x="291" y="648" on="0"/>
        <pt x="217" y="473" on="0"/>
        <pt x="184" y="268" on="0"/>
        <pt x="184" y="188" on="1"/>
        <pt x="184" y="77" on="0"/>
      </contour>
      <contour>
        <pt x="283" y="890" on="1"/>
        <pt x="313" y="917" on="0"/>
        <pt x="343" y="917" on="0"/>
        <pt x="374" y="880" on="1"/>
        <pt x="434" y="797" on="1"/>
        <pt x="376" y="745" on="1"/>
        <pt x="266" y="875" on="1"/>
      </contour>
    </TTGlyph>
    <TTGlyph name="Oslash" xMin="44" yMin="-48" xMax="531" yMax="799">
      <contour>
        <pt x="110" y="71" on="1"/>
        <pt x="95" y="108" on="0"/>
        <pt x="95" y="272" on="0"/>
        <pt x="123" y="458" on="0"/>
        <pt x="181" y="627" on="0"/>
        <pt x="285" y="732" on="0"/>
        <pt x="353" y="732" on="1"/>
        <pt x="368" y="732" on="0"/>
        <pt x="392" y="728" on="1"/>
        <pt x="433" y="799" on="1"/>
        <pt x="531" y="799" on="1"/>
        <pt x="468" y="685" on="1"/>
        <pt x="499" y="642" on="0"/>
        <pt x="499" y="459" on="0"/>
        <pt x="470" y="271" on="0"/>
        <pt x="413" y="99" on="0"/>
        <pt x="308" y="-7" on="0"/>
        <pt x="241" y="-7" on="1"/>
        <pt x="201" y="-7" on="0"/>
        <pt x="172" y="6" on="1"/>
        <pt x="142" y="-48" on="1"/>
        <pt x="44" y="-48" on="1"/>
      </contour>
      <contour>
        <pt x="250" y="77" on="1"/>
        <pt x="287" y="77" on="0"/>
        <pt x="349" y="176" on="0"/>
        <pt x="368" y="249" on="1"/>
        <pt x="407" y="405" on="0"/>
        <pt x="407" y="648" on="0"/>
        <pt x="345" y="648" on="1"/>
        <pt x="308" y="648" on="0"/>
        <pt x="245" y="549" on="0"/>
        <pt x="226" y="476" on="1"/>
        <pt x="186" y="322" on="0"/>
        <pt x="186" y="77" on="0"/>
      </contour>
    </TTGlyph>
    <TTGlyph name="Otilde" xMin="89" yMin="-7" xMax="506" yMax="893">
      <component glyphName="O" x="0" y="0" flags="0x1004"/>
      <component glyphName="tilde" x="88" y="183" flags="0x1004"/>
    </TTGlyph>
    <TTGlyph name="P" xMin="60" yMin="0" xMax="488" yMax="732">
      <contour>
        <pt x="82" y="0" on="1"/>
        <pt x="60" y="0" on="1"/>
        <pt x="175" y="721" on="1"/>
        <pt x="316" y="732" on="1"/>
        <pt x="415" y="732" on="0"/>
        <pt x="488" y="674" on="0"/>
        <pt x="488" y="561" on="0"/>
        <pt x="482" y="491" on="0"/>
        <pt x="455" y="409" on="0"/>
        <pt x="408" y="361" on="0"/>
        <pt x="320" y="328" on="0"/>
        <pt x="258" y="328" on="1"/>
        <pt x="200" y="328" on="1"/>
        <pt x="200" y="317" on="1"/>
        <pt x="159" y="57" on="1"/>
        <pt x="154" y="17" on="0"/>
        <pt x="131" y="0" on="0"/>
      </contour>
      <contour>
        <pt x="267" y="412" on="1"/>
        <pt x="383" y="412" on="0"/>
        <pt x="394" y="541" on="1"/>
        <pt x="396" y="565" on="0"/>
        <pt x="396" y="625" on="0"/>
        <pt x="359" y="648" on="0"/>
        <pt x="308" y="648" on="1"/>
        <pt x="250" y="648" on="1"/>
        <pt x="250" y="636" on="1"/>
        <pt x="217" y="417" on="1"/>
        <pt x="215" y="412" on="1"/>
      </contour>
    </TTGlyph>
    <TTGlyph name="Q" xMin="59" yMin="-165" xMax="546" yMax="732">
      <contour>
        <pt x="535" y="-150" on="0"/>
        <pt x="512" y="-165" on="0"/>
        <pt x="404" y="-165" on="0"/>
        <pt x="161" y="-121" on="0"/>
        <pt x="102" y="-120" on="1"/>
        <pt x="59" y="-119" on="1"/>
        <pt x="66" y="-80" on="0"/>
        <pt x="73" y="-58" on="0"/>
        <pt x="82" y="-53" on="1"/>
        <pt x="162" y="8" on="1"/>
        <pt x="90" y="39" on="0"/>
        <pt x="90" y="178" on="1"/>
        <pt x="90" y="340" on="0"/>
        <pt x="127" y="476" on="1"/>
        <pt x="170" y="635" on="0"/>
        <pt x="250" y="697" on="1"/>
        <pt x="294" y="732" on="0"/>
        <pt x="348" y="732" on="1"/>
        <pt x="426" y="732" on="0"/>
        <pt x="493" y="645" on="0"/>
        <pt x="493" y="550" on="1"/>
        <pt x="493" y="404" on="0"/>
        <pt x="446" y="218" on="1"/>
        <pt x="424" y="128" on="0"/>
        <pt x="346" y="5" on="0"/>
        <pt x="301" y="3" on="1"/>
        <pt x="195" y="-51" on="1"/>
        <pt x="414" y="-80" on="0"/>
        <pt x="500" y="-82" on="1"/>
        <pt x="546" y="-83" on="1"/>
        <pt x="540" y="-118" on="1"/>
      </contour>
      <contour>
        <pt x="244" y="77" on="1"/>
        <pt x="281" y="77" on="0"/>
        <pt x="345" y="178" on="0"/>
        <pt x="364" y="252" on="1"/>
        <pt x="403" y="408" on="0"/>
        <pt x="403" y="648" on="0"/>
        <pt x="339" y="648" on="1"/>
        <pt x="290" y="648" on="0"/>
        <pt x="214" y="477" on="0"/>
        <pt x="181" y="275" on="0"/>
        <pt x="181" y="193" on="1"/>
        <pt x="181" y="77" on="0"/>
      </contour>
    </TTGlyph>
    <TTGlyph name="R" xMin="60" yMin="0" xMax="451" yMax="732">
      <contour>
        <pt x="401" y="0" on="1"/>
        <pt x="344" y="0" on="0"/>
        <pt x="321" y="13" on="0"/>
        <pt x="308" y="55" on="1"/>
        <pt x="226" y="328" on="1"/>
        <pt x="200" y="328" on="1"/>
        <pt x="200" y="317" on="1"/>
        <pt x="160" y="57" on="1"/>
        <pt x="154" y="17" on="0"/>
        <pt x="131" y="0" on="0"/>
        <pt x="83" y="0" on="1"/>
        <pt x="60" y="0" on="1"/>
        <pt x="174" y="721" on="1"/>
        <pt x="296" y="732" on="1"/>
        <pt x="385" y="732" on="0"/>
        <pt x="451" y="676" on="0"/>
        <pt x="451" y="618" on="1"/>
        <pt x="451" y="374" on="0"/>
        <pt x="316" y="331" on="1"/>
        <pt x="424" y="0" on="1"/>
      </contour>
      <contour>
        <pt x="247" y="412" on="1"/>
        <pt x="358" y="412" on="0"/>
        <pt x="358" y="603" on="1"/>
        <pt x="358" y="628" on="0"/>
        <pt x="328" y="648" on="0"/>
        <pt x="288" y="648" on="1"/>
        <pt x="243" y="648" on="1"/>
        <pt x="247" y="620" on="1"/>
        <pt x="219" y="429" on="1"/>
        <pt x="207" y="412" on="1"/>
      </contour>
    </TTGlyph>
    <TTGlyph name="S" xMin="26" yMin="-7" xMax="424" yMax="732">
      <contour>
        <pt x="301" y="236" on="1"/>
        <pt x="301" y="253" on="0"/>
        <pt x="275" y="296" on="0"/>
        <pt x="250" y="323" on="0"/>
        <pt x="222" y="352" on="1"/>
        <pt x="222" y="351" on="1"/>
        <pt x="186" y="388" on="0"/>
        <pt x="149" y="430" on="0"/>
        <pt x="111" y="504" on="0"/>
        <pt x="111" y="587" on="0"/>
        <pt x="126" y="651" on="0"/>
        <pt x="146" y="678" on="1"/>
        <pt x="186" y="732" on="0"/>
        <pt x="311" y="732" on="1"/>
        <pt x="424" y="709" on="1"/>
        <pt x="417" y="670" on="0"/>
        <pt x="392" y="643" on="0"/>
        <pt x="371" y="643" on="1"/>
        <pt x="304" y="650" on="1"/>
        <pt x="246" y="649" on="0"/>
        <pt x="203" y="598" on="0"/>
        <pt x="203" y="551" on="1"/>
        <pt x="203" y="507" on="0"/>
        <pt x="270" y="444" on="1"/>
        <pt x="298" y="417" on="0"/>
        <pt x="354" y="362" on="0"/>
        <pt x="393" y="292" on="0"/>
        <pt x="393" y="257" on="1"/>
        <pt x="393" y="-6" on="0"/>
        <pt x="175" y="-7" on="1"/>
        <pt x="26" y="14" on="1"/>
        <pt x="37" y="96" on="1"/>
        <pt x="189" y="85" on="1"/>
        <pt x="301" y="91" on="0"/>
      </contour>
    </TTGlyph>
    <TTGlyph name="Scaron" xMin="26" yMin="-7" xMax="466" yMax="925">
      <contour>
        <pt x="393" y="257" on="1"/>
        <pt x="393" y="-6" on="0"/>
        <pt x="175" y="-7" on="1"/>
        <pt x="26" y="14" on="1"/>
        <pt x="37" y="96" on="1"/>
        <pt x="189" y="85" on="1"/>
        <pt x="301" y="91" on="0"/>
        <pt x="301" y="236" on="1"/>
        <pt x="301" y="253" on="0"/>
        <pt x="275" y="296" on="0"/>
        <pt x="250" y="323" on="0"/>
        <pt x="222" y="352" on="1"/>
        <pt x="222" y="351" on="1"/>
        <pt x="186" y="388" on="0"/>
        <pt x="149" y="430" on="0"/>
        <pt x="111" y="504" on="0"/>
        <pt x="111" y="587" on="0"/>
        <pt x="126" y="651" on="0"/>
        <pt x="146" y="678" on="1"/>
        <pt x="186" y="732" on="0"/>
        <pt x="311" y="732" on="1"/>
        <pt x="424" y="709" on="1"/>
        <pt x="417" y="670" on="0"/>
        <pt x="392" y="643" on="0"/>
        <pt x="371" y="643" on="1"/>
        <pt x="304" y="650" on="1"/>
        <pt x="246" y="649" on="0"/>
        <pt x="203" y="598" on="0"/>
        <pt x="203" y="507" on="0"/>
        <pt x="270" y="444" on="1"/>
        <pt x="298" y="417" on="0"/>
        <pt x="354" y="362" on="0"/>
        <pt x="393" y="292" on="0"/>
      </contour>
      <contour>
        <pt x="455" y="842" on="1"/>
        <pt x="338" y="789" on="1"/>
        <pt x="307" y="789" on="1"/>
        <pt x="204" y="843" on="1"/>
        <pt x="214" y="924" on="1"/>
        <pt x="330" y="865" on="1"/>
        <pt x="466" y="925" on="1"/>
      </contour>
    </TTGlyph>
    <TTGlyph name="T" xMin="113" yMin="0" xMax="428" yMax="720">
      <contour>
        <pt x="141" y="0" on="1"/>
        <pt x="116" y="0" on="1"/>
        <pt x="216" y="636" on="1"/>
        <pt x="218" y="640" on="1"/>
        <pt x="113" y="640" on="1"/>
        <pt x="126" y="720" on="1"/>
        <pt x="428" y="720" on="1"/>
        <pt x="414" y="640" on="1"/>
        <pt x="308" y="640" on="1"/>
        <pt x="308" y="629" on="1"/>
        <pt x="218" y="57" on="1"/>
        <pt x="212" y="17" on="0"/>
        <pt x="189" y="0" on="0"/>
      </contour>
    </TTGlyph>
    <TTGlyph name="Thorn" xMin="21" yMin="-192" xMax="427" yMax="735">
      <contour>
        <pt x="371" y="609" on="0"/>
        <pt x="427" y="549" on="0"/>
        <pt x="427" y="424" on="0"/>
        <pt x="406" y="262" on="0"/>
        <pt x="365" y="95" on="0"/>
        <pt x="291" y="-19" on="0"/>
        <pt x="246" y="-19" on="1"/>
        <pt x="227" y="-19" on="0"/>
        <pt x="135" y="31" on="1"/>
        <pt x="100" y="-192" on="1"/>
        <pt x="49" y="-192" on="0"/>
        <pt x="21" y="-183" on="0"/>
        <pt x="21" y="-160" on="1"/>
        <pt x="21" y="-153" on="0"/>
        <pt x="24" y="-132" on="1"/>
        <pt x="152" y="679" on="1"/>
        <pt x="158" y="719" on="0"/>
        <pt x="184" y="735" on="0"/>
        <pt x="246" y="735" on="1"/>
        <pt x="222" y="588" on="1"/>
        <pt x="301" y="609" on="1"/>
      </contour>
      <contour>
        <pt x="226" y="71" on="1"/>
        <pt x="272" y="71" on="0"/>
        <pt x="340" y="368" on="0"/>
        <pt x="340" y="463" on="1"/>
        <pt x="340" y="528" on="0"/>
        <pt x="295" y="529" on="1"/>
        <pt x="209" y="508" on="1"/>
        <pt x="209" y="493" on="1"/>
        <pt x="150" y="123" on="1"/>
        <pt x="146" y="108" on="1"/>
        <pt x="223" y="71" on="0"/>
      </contour>
    </TTGlyph>
    <TTGlyph name="U" xMin="87" yMin="-7" xMax="508" yMax="720">
      <contour>
        <pt x="261" y="697" on="1"/>
        <pt x="179" y="125" on="1"/>
        <pt x="179" y="106" on="0"/>
        <pt x="207" y="77" on="0"/>
        <pt x="238" y="77" on="1"/>
        <pt x="294" y="77" on="0"/>
        <pt x="335" y="168" on="0"/>
        <pt x="356" y="301" on="1"/>
        <pt x="423" y="720" on="1"/>
        <pt x="442" y="720" on="1"/>
        <pt x="482" y="720" on="0"/>
        <pt x="508" y="713" on="0"/>
        <pt x="508" y="696" on="1"/>
        <pt x="508" y="695" on="0"/>
        <pt x="481" y="519" on="0"/>
        <pt x="440" y="245" on="0"/>
        <pt x="429" y="186" on="0"/>
        <pt x="411" y="110" on="0"/>
        <pt x="391" y="71" on="0"/>
        <pt x="360" y="27" on="0"/>
        <pt x="340" y="17" on="1"/>
        <pt x="292" y="-7" on="0"/>
        <pt x="230" y="-7" on="1"/>
        <pt x="87" y="-7" on="0"/>
        <pt x="87" y="96" on="1"/>
        <pt x="87" y="114" on="0"/>
        <pt x="176" y="720" on="1"/>
        <pt x="195" y="720" on="1"/>
        <pt x="252" y="720" on="0"/>
        <pt x="258" y="710" on="1"/>
        <pt x="261" y="706" on="0"/>
      </contour>
    </TTGlyph>
    <TTGlyph name="Uacute" xMin="87" yMin="-7" xMax="508" yMax="917">
      <contour>
        <pt x="261" y="697" on="1"/>
        <pt x="179" y="125" on="1"/>
        <pt x="179" y="106" on="0"/>
        <pt x="207" y="77" on="0"/>
        <pt x="238" y="77" on="1"/>
        <pt x="294" y="77" on="0"/>
        <pt x="335" y="168" on="0"/>
        <pt x="356" y="301" on="1"/>
        <pt x="423" y="720" on="1"/>
        <pt x="442" y="720" on="1"/>
        <pt x="482" y="720" on="0"/>
        <pt x="508" y="713" on="0"/>
        <pt x="508" y="696" on="1"/>
        <pt x="508" y="695" on="0"/>
        <pt x="481" y="519" on="0"/>
        <pt x="440" y="245" on="0"/>
        <pt x="429" y="186" on="0"/>
        <pt x="411" y="110" on="0"/>
        <pt x="391" y="71" on="0"/>
        <pt x="360" y="27" on="0"/>
        <pt x="340" y="17" on="1"/>
        <pt x="292" y="-7" on="0"/>
        <pt x="230" y="-7" on="1"/>
        <pt x="87" y="-7" on="0"/>
        <pt x="87" y="96" on="1"/>
        <pt x="87" y="114" on="0"/>
        <pt x="176" y="720" on="1"/>
        <pt x="195" y="720" on="1"/>
        <pt x="252" y="720" on="0"/>
        <pt x="258" y="710" on="1"/>
        <pt x="261" y="706" on="0"/>
      </contour>
      <contour>
        <pt x="395" y="887" on="1"/>
        <pt x="430" y="917" on="0"/>
        <pt x="459" y="917" on="0"/>
        <pt x="493" y="879" on="1"/>
        <pt x="496" y="875" on="0"/>
        <pt x="498" y="873" on="1"/>
        <pt x="349" y="744" on="1"/>
        <pt x="304" y="801" on="1"/>
      </contour>
    </TTGlyph>
    <TTGlyph name="Ucircumflex" xMin="87" yMin="-7" xMax="508" yMax="917">
      <component glyphName="U" x="0" y="0" flags="0x1004"/>
      <component glyphName="circumflex" x="95" y="195" flags="0x1004"/>
    </TTGlyph>
    <TTGlyph name="Udieresis" xMin="87" yMin="-7" xMax="508" yMax="905">
      <contour>
        <pt x="261" y="697" on="1"/>
        <pt x="179" y="125" on="1"/>
        <pt x="179" y="106" on="0"/>
        <pt x="207" y="77" on="0"/>
        <pt x="238" y="77" on="1"/>
        <pt x="294" y="77" on="0"/>
        <pt x="335" y="168" on="0"/>
        <pt x="356" y="301" on="1"/>
        <pt x="423" y="720" on="1"/>
        <pt x="442" y="720" on="1"/>
        <pt x="482" y="720" on="0"/>
        <pt x="508" y="713" on="0"/>
        <pt x="508" y="696" on="1"/>
        <pt x="508" y="695" on="0"/>
        <pt x="481" y="519" on="0"/>
        <pt x="440" y="245" on="0"/>
        <pt x="429" y="186" on="0"/>
        <pt x="411" y="110" on="0"/>
        <pt x="391" y="71" on="0"/>
        <pt x="360" y="27" on="0"/>
        <pt x="340" y="17" on="1"/>
        <pt x="292" y="-7" on="0"/>
        <pt x="230" y="-7" on="1"/>
        <pt x="87" y="-7" on="0"/>
        <pt x="87" y="96" on="1"/>
        <pt x="87" y="114" on="0"/>
        <pt x="176" y="720" on="1"/>
        <pt x="195" y="720" on="1"/>
        <pt x="252" y="720" on="0"/>
        <pt x="258" y="710" on="1"/>
        <pt x="261" y="706" on="0"/>
      </contour>
      <contour>
        <pt x="360" y="830" on="0"/>
        <pt x="321" y="791" on="0"/>
        <pt x="274" y="791" on="0"/>
        <pt x="244" y="820" on="0"/>
        <pt x="244" y="866" on="0"/>
        <pt x="284" y="905" on="0"/>
        <pt x="332" y="905" on="0"/>
        <pt x="360" y="877" on="0"/>
      </contour>
      <contour>
        <pt x="467" y="905" on="0"/>
        <pt x="496" y="877" on="0"/>
        <pt x="496" y="830" on="0"/>
        <pt x="456" y="791" on="0"/>
        <pt x="409" y="791" on="0"/>
        <pt x="379" y="820" on="0"/>
        <pt x="379" y="866" on="0"/>
        <pt x="420" y="905" on="0"/>
      </contour>
    </TTGlyph>
    <TTGlyph name="Ugrave" xMin="87" yMin="-7" xMax="508" yMax="917">
      <contour>
        <pt x="261" y="697" on="1"/>
        <pt x="179" y="125" on="1"/>
        <pt x="179" y="106" on="0"/>
        <pt x="207" y="77" on="0"/>
        <pt x="238" y="77" on="1"/>
        <pt x="294" y="77" on="0"/>
        <pt x="335" y="168" on="0"/>
        <pt x="356" y="301" on="1"/>
        <pt x="423" y="720" on="1"/>
        <pt x="442" y="720" on="1"/>
        <pt x="482" y="720" on="0"/>
        <pt x="508" y="713" on="0"/>
        <pt x="508" y="696" on="1"/>
        <pt x="508" y="695" on="0"/>
        <pt x="481" y="519" on="0"/>
        <pt x="440" y="245" on="0"/>
        <pt x="429" y="186" on="0"/>
        <pt x="411" y="110" on="0"/>
        <pt x="391" y="71" on="0"/>
        <pt x="360" y="27" on="0"/>
        <pt x="340" y="17" on="1"/>
        <pt x="292" y="-7" on="0"/>
        <pt x="230" y="-7" on="1"/>
        <pt x="87" y="-7" on="0"/>
        <pt x="87" y="96" on="1"/>
        <pt x="87" y="114" on="0"/>
        <pt x="176" y="720" on="1"/>
        <pt x="195" y="720" on="1"/>
        <pt x="252" y="720" on="0"/>
        <pt x="258" y="710" on="1"/>
        <pt x="261" y="706" on="0"/>
      </contour>
      <contour>
        <pt x="286" y="890" on="1"/>
        <pt x="316" y="917" on="0"/>
        <pt x="346" y="917" on="0"/>
        <pt x="377" y="880" on="1"/>
        <pt x="437" y="797" on="1"/>
        <pt x="379" y="745" on="1"/>
        <pt x="269" y="875" on="1"/>
      </contour>
    </TTGlyph>
    <TTGlyph name="V" xMin="79" yMin="0" xMax="450" yMax="720">
      <contour>
        <pt x="396" y="720" on="1"/>
        <pt x="430" y="720" on="0"/>
        <pt x="449" y="713" on="0"/>
        <pt x="449" y="700" on="0"/>
        <pt x="447" y="695" on="1"/>
        <pt x="221" y="85" on="1"/>
        <pt x="198" y="21" on="0"/>
        <pt x="179" y="0" on="0"/>
        <pt x="144" y="0" on="1"/>
        <pt x="105" y="0" on="0"/>
        <pt x="87" y="46" on="1"/>
        <pt x="80" y="65" on="0"/>
        <pt x="80" y="90" on="1"/>
        <pt x="79" y="720" on="1"/>
        <pt x="103" y="720" on="1"/>
        <pt x="153" y="720" on="0"/>
        <pt x="170" y="705" on="0"/>
        <pt x="170" y="661" on="1"/>
        <pt x="162" y="161" on="1"/>
        <pt x="372" y="720" on="1"/>
      </contour>
    </TTGlyph>
    <TTGlyph name="W" xMin="85" yMin="0" xMax="672" yMax="720">
      <contour>
        <pt x="324" y="90" on="1"/>
        <pt x="324" y="359" on="1"/>
        <pt x="227" y="85" on="1"/>
        <pt x="205" y="21" on="0"/>
        <pt x="185" y="0" on="0"/>
        <pt x="150" y="0" on="1"/>
        <pt x="111" y="0" on="0"/>
        <pt x="93" y="46" on="1"/>
        <pt x="86" y="65" on="0"/>
        <pt x="86" y="90" on="1"/>
        <pt x="85" y="720" on="1"/>
        <pt x="111" y="720" on="1"/>
        <pt x="155" y="720" on="0"/>
        <pt x="170" y="707" on="0"/>
        <pt x="171" y="668" on="1"/>
        <pt x="176" y="173" on="1"/>
        <pt x="282" y="467" on="1"/>
        <pt x="309" y="528" on="1"/>
        <pt x="383" y="528" on="1"/>
        <pt x="409" y="463" on="1"/>
        <pt x="409" y="181" on="1"/>
        <pt x="588" y="720" on="1"/>
        <pt x="611" y="720" on="0"/>
        <pt x="640" y="720" on="0"/>
        <pt x="648" y="719" on="1"/>
        <pt x="660" y="718" on="0"/>
        <pt x="672" y="710" on="0"/>
        <pt x="672" y="707" on="1"/>
        <pt x="670" y="695" on="1"/>
        <pt x="465" y="85" on="1"/>
        <pt x="444" y="21" on="0"/>
        <pt x="424" y="0" on="0"/>
        <pt x="388" y="0" on="1"/>
        <pt x="349" y="0" on="0"/>
        <pt x="331" y="46" on="1"/>
        <pt x="324" y="65" on="0"/>
      </contour>
    </TTGlyph>
    <TTGlyph name="X" xMin="5" yMin="0" xMax="469" yMax="720">
      <contour>
        <pt x="325" y="0" on="1"/>
        <pt x="283" y="0" on="0"/>
        <pt x="266" y="14" on="0"/>
        <pt x="260" y="56" on="1"/>
        <pt x="230" y="265" on="1"/>
        <pt x="128" y="52" on="1"/>
        <pt x="109" y="13" on="0"/>
        <pt x="88" y="0" on="0"/>
        <pt x="51" y="0" on="1"/>
        <pt x="5" y="0" on="1"/>
        <pt x="194" y="357" on="1"/>
        <pt x="131" y="720" on="1"/>
        <pt x="170" y="720" on="1"/>
        <pt x="210" y="720" on="0"/>
        <pt x="227" y="705" on="0"/>
        <pt x="234" y="663" on="1"/>
        <pt x="265" y="440" on="1"/>
        <pt x="393" y="720" on="1"/>
        <pt x="408" y="720" on="1"/>
        <pt x="442" y="720" on="0"/>
        <pt x="469" y="710" on="0"/>
        <pt x="469" y="694" on="1"/>
        <pt x="469" y="670" on="0"/>
        <pt x="298" y="354" on="1"/>
        <pt x="363" y="0" on="1"/>
      </contour>
    </TTGlyph>
    <TTGlyph name="Y" xMin="122" yMin="0" xMax="464" yMax="720">
      <contour>
        <pt x="231" y="0" on="1"/>
        <pt x="210" y="0" on="0"/>
        <pt x="182" y="0" on="0"/>
        <pt x="161" y="4" on="0"/>
        <pt x="158" y="8" on="1"/>
        <pt x="148" y="17" on="0"/>
        <pt x="148" y="50" on="0"/>
        <pt x="195" y="347" on="1"/>
        <pt x="122" y="720" on="1"/>
        <pt x="154" y="720" on="1"/>
        <pt x="197" y="720" on="0"/>
        <pt x="218" y="703" on="0"/>
        <pt x="225" y="664" on="1"/>
        <pt x="259" y="467" on="1"/>
        <pt x="389" y="720" on="1"/>
        <pt x="408" y="720" on="1"/>
        <pt x="438" y="720" on="0"/>
        <pt x="464" y="716" on="0"/>
        <pt x="464" y="702" on="0"/>
        <pt x="284" y="344" on="1"/>
      </contour>
    </TTGlyph>
    <TTGlyph name="Yacute" xMin="122" yMin="0" xMax="481" yMax="917">
      <component glyphName="Y" x="0" y="0" flags="0x1004"/>
      <component glyphName="acute" x="196" y="195" flags="0x1004"/>
    </TTGlyph>
    <TTGlyph name="Ydieresis" xMin="122" yMin="0" xMax="464" yMax="893">
      <component glyphName="Y" x="0" y="0" flags="0x1004"/>
      <component glyphName="dieresis" x="62" y="183" flags="0x1004"/>
    </TTGlyph>
    <TTGlyph name="Z" xMin="23" yMin="0" xMax="451" yMax="720">
      <contour>
        <pt x="325" y="0" on="1"/>
        <pt x="23" y="0" on="1"/>
        <pt x="35" y="73" on="1"/>
        <pt x="336" y="640" on="1"/>
        <pt x="133" y="640" on="1"/>
        <pt x="147" y="720" on="1"/>
        <pt x="451" y="720" on="1"/>
        <pt x="440" y="652" on="1"/>
        <pt x="135" y="84" on="1"/>
        <pt x="338" y="84" on="1"/>
      </contour>
    </TTGlyph>
    <TTGlyph name="Zcaron" xMin="23" yMin="0" xMax="463" yMax="925">
      <component glyphName="Z" x="0" y="0" flags="0x1004"/>
      <component glyphName="caron" x="54" y="195" flags="0x1004"/>
    </TTGlyph>
    <TTGlyph name="a" xMin="43" yMin="-7" xMax="387" yMax="548">
      <contour>
        <pt x="85" y="-7" on="0"/>
        <pt x="43" y="41" on="0"/>
        <pt x="43" y="162" on="0"/>
        <pt x="59" y="299" on="0"/>
        <pt x="95" y="450" on="0"/>
        <pt x="168" y="548" on="0"/>
        <pt x="218" y="548" on="1"/>
        <pt x="245" y="548" on="0"/>
        <pt x="323" y="522" on="1"/>
        <pt x="351" y="520" on="0"/>
        <pt x="387" y="491" on="0"/>
        <pt x="387" y="467" on="1"/>
        <pt x="387" y="466" on="0"/>
        <pt x="314" y="0" on="1"/>
        <pt x="264" y="0" on="0"/>
        <pt x="237" y="10" on="0"/>
        <pt x="237" y="29" on="1"/>
        <pt x="237" y="31" on="0"/>
        <pt x="237" y="34" on="1"/>
        <pt x="240" y="67" on="1"/>
        <pt x="152" y="-7" on="1"/>
      </contour>
      <contour>
        <pt x="227" y="466" on="1"/>
        <pt x="197" y="466" on="0"/>
        <pt x="148" y="311" on="0"/>
        <pt x="129" y="158" on="0"/>
        <pt x="129" y="97" on="0"/>
        <pt x="138" y="78" on="0"/>
        <pt x="152" y="78" on="1"/>
        <pt x="255" y="155" on="1"/>
        <pt x="255" y="172" on="1"/>
        <pt x="298" y="434" on="1"/>
        <pt x="301" y="445" on="1"/>
        <pt x="242" y="466" on="0"/>
      </contour>
    </TTGlyph>
    <TTGlyph name="aacute" xMin="43" yMin="-7" xMax="422" yMax="738">
      <component glyphName="a" x="0" y="0" flags="0x1004"/>
      <component glyphName="acute" x="137" y="16" flags="0x1004"/>
    </TTGlyph>
    <TTGlyph name="acircumflex" xMin="43" yMin="-7" xMax="405" yMax="732">
      <component glyphName="a" x="0" y="0" flags="0x1004"/>
      <component glyphName="circumflex" x="4" y="10" flags="0x1004"/>
    </TTGlyph>
    <TTGlyph name="acute" xMin="91" yMin="549" xMax="285" yMax="722">
      <contour>
        <pt x="216" y="722" on="0"/>
        <pt x="246" y="722" on="0"/>
        <pt x="280" y="684" on="1"/>
        <pt x="283" y="680" on="0"/>
        <pt x="285" y="678" on="1"/>
        <pt x="136" y="549" on="1"/>
        <pt x="91" y="606" on="1"/>
        <pt x="182" y="692" on="1"/>
      </contour>
    </TTGlyph>
    <TTGlyph name="adieresis" xMin="43" yMin="-7" xMax="421" yMax="701">
      <component glyphName="a" x="0" y="0" flags="0x1004"/>
      <component glyphName="dieresis" x="26" y="-9" flags="0x1004"/>
    </TTGlyph>
    <TTGlyph name="ae" xMin="64" yMin="-7" xMax="555" yMax="544">
      <contour>
        <pt x="469" y="422" on="1"/>
        <pt x="469" y="445" on="0"/>
        <pt x="450" y="465" on="0"/>
        <pt x="399" y="465" on="0"/>
        <pt x="381" y="420" on="0"/>
        <pt x="371" y="349" on="1"/>
        <pt x="369" y="341" on="1"/>
        <pt x="469" y="343" on="0"/>
      </contour>
      <contour>
        <pt x="499" y="11" on="1"/>
        <pt x="401" y="-7" on="0"/>
        <pt x="305" y="-7" on="0"/>
        <pt x="271" y="16" on="0"/>
        <pt x="261" y="47" on="1"/>
        <pt x="148" y="-7" on="1"/>
        <pt x="101" y="-7" on="0"/>
        <pt x="64" y="26" on="0"/>
        <pt x="64" y="68" on="1"/>
        <pt x="85" y="229" on="1"/>
        <pt x="106" y="339" on="0"/>
        <pt x="280" y="343" on="1"/>
        <pt x="280" y="354" on="1"/>
        <pt x="283" y="371" on="0"/>
        <pt x="286" y="386" on="1"/>
        <pt x="290" y="410" on="1"/>
        <pt x="291" y="419" on="0"/>
        <pt x="293" y="434" on="0"/>
        <pt x="295" y="442" on="0"/>
        <pt x="296" y="448" on="0"/>
        <pt x="296" y="450" on="0"/>
        <pt x="296" y="451" on="1"/>
        <pt x="296" y="465" on="0"/>
        <pt x="264" y="465" on="1"/>
        <pt x="204" y="456" on="0"/>
        <pt x="200" y="456" on="1"/>
        <pt x="157" y="456" on="0"/>
        <pt x="157" y="499" on="1"/>
        <pt x="159" y="526" on="1"/>
        <pt x="271" y="544" on="1"/>
        <pt x="337" y="544" on="0"/>
        <pt x="361" y="520" on="1"/>
        <pt x="393" y="544" on="0"/>
        <pt x="435" y="544" on="1"/>
        <pt x="503" y="544" on="0"/>
        <pt x="555" y="496" on="0"/>
        <pt x="555" y="443" on="1"/>
        <pt x="555" y="424" on="0"/>
        <pt x="552" y="393" on="0"/>
        <pt x="530" y="333" on="0"/>
        <pt x="491" y="293" on="0"/>
        <pt x="407" y="261" on="0"/>
        <pt x="349" y="261" on="1"/>
        <pt x="332" y="114" on="1"/>
        <pt x="332" y="72" on="0"/>
        <pt x="360" y="72" on="1"/>
        <pt x="406" y="72" on="0"/>
        <pt x="509" y="87" on="1"/>
      </contour>
      <contour>
        <pt x="169" y="233" on="1"/>
        <pt x="147" y="100" on="0"/>
        <pt x="147" y="74" on="0"/>
        <pt x="150" y="72" on="1"/>
        <pt x="170" y="80" on="0"/>
        <pt x="241" y="113" on="1"/>
        <pt x="265" y="259" on="1"/>
        <pt x="266" y="261" on="1"/>
        <pt x="173" y="259" on="0"/>
      </contour>
    </TTGlyph>
    <TTGlyph name="agrave" xMin="43" yMin="-7" xMax="387" yMax="738">
      <component glyphName="a" x="0" y="0" flags="0x1004"/>
      <component glyphName="grave" x="112" y="16" flags="0x1004"/>
    </TTGlyph>
    <TTGlyph name="ampersand" xMin="64" yMin="-7" xMax="568" yMax="692">
      <contour>
        <pt x="384" y="613" on="1"/>
        <pt x="339" y="611" on="1"/>
        <pt x="303" y="611" on="1"/>
        <pt x="222" y="611" on="0"/>
        <pt x="222" y="474" on="1"/>
        <pt x="222" y="445" on="0"/>
        <pt x="257" y="431" on="0"/>
        <pt x="300" y="431" on="1"/>
        <pt x="286" y="347" on="1"/>
        <pt x="235" y="347" on="0"/>
        <pt x="154" y="246" on="0"/>
        <pt x="154" y="164" on="1"/>
        <pt x="154" y="75" on="0"/>
        <pt x="242" y="75" on="1"/>
        <pt x="298" y="75" on="0"/>
        <pt x="359" y="143" on="0"/>
        <pt x="371" y="212" on="1"/>
        <pt x="392" y="339" on="1"/>
        <pt x="395" y="347" on="1"/>
        <pt x="346" y="347" on="1"/>
        <pt x="359" y="426" on="1"/>
        <pt x="407" y="426" on="1"/>
        <pt x="407" y="438" on="1"/>
        <pt x="416" y="492" on="1"/>
        <pt x="454" y="492" on="0"/>
        <pt x="468" y="490" on="1"/>
        <pt x="498" y="487" on="0"/>
        <pt x="498" y="456" on="1"/>
        <pt x="498" y="443" on="0"/>
        <pt x="494" y="426" on="1"/>
        <pt x="568" y="426" on="1"/>
        <pt x="560" y="373" on="0"/>
        <pt x="537" y="347" on="0"/>
        <pt x="495" y="347" on="1"/>
        <pt x="481" y="347" on="1"/>
        <pt x="481" y="335" on="1"/>
        <pt x="460" y="208" on="1"/>
        <pt x="442" y="99" on="0"/>
        <pt x="335" y="-7" on="0"/>
        <pt x="146" y="-7" on="0"/>
        <pt x="64" y="71" on="0"/>
        <pt x="64" y="150" on="1"/>
        <pt x="64" y="308" on="0"/>
        <pt x="171" y="390" on="1"/>
        <pt x="134" y="425" on="0"/>
        <pt x="134" y="540" on="0"/>
        <pt x="168" y="629" on="0"/>
        <pt x="196" y="651" on="1"/>
        <pt x="250" y="692" on="0"/>
        <pt x="312" y="692" on="1"/>
        <pt x="440" y="683" on="1"/>
        <pt x="432" y="635" on="0"/>
        <pt x="418" y="617" on="0"/>
        <pt x="387" y="613" on="1"/>
      </contour>
    </TTGlyph>
    <TTGlyph name="approxequal" xMin="59" yMin="177" xMax="368" yMax="397">
      <contour>
        <pt x="139" y="263" on="1"/>
        <pt x="299" y="253" on="1"/>
        <pt x="327" y="256" on="1"/>
        <pt x="359" y="254" on="1"/>
        <pt x="353" y="217" on="1"/>
        <pt x="348" y="187" on="0"/>
        <pt x="330" y="177" on="0"/>
        <pt x="279" y="177" on="1"/>
        <pt x="117" y="187" on="1"/>
        <pt x="89" y="185" on="1"/>
        <pt x="59" y="187" on="1"/>
        <pt x="65" y="223" on="1"/>
        <pt x="70" y="253" on="0"/>
        <pt x="88" y="263" on="0"/>
      </contour>
      <contour>
        <pt x="148" y="397" on="1"/>
        <pt x="308" y="387" on="1"/>
        <pt x="336" y="390" on="1"/>
        <pt x="368" y="388" on="1"/>
        <pt x="362" y="351" on="1"/>
        <pt x="357" y="321" on="0"/>
        <pt x="339" y="311" on="0"/>
        <pt x="288" y="311" on="1"/>
        <pt x="126" y="321" on="1"/>
        <pt x="98" y="319" on="1"/>
        <pt x="68" y="321" on="1"/>
        <pt x="74" y="357" on="1"/>
        <pt x="79" y="387" on="0"/>
        <pt x="97" y="397" on="0"/>
      </contour>
    </TTGlyph>
    <TTGlyph name="aring" xMin="43" yMin="-7" xMax="387" yMax="739">
      <component glyphName="a" x="0" y="0" flags="0x1004"/>
      <component glyphName="ring" x="51" y="18" flags="0x1004"/>
    </TTGlyph>
    <TTGlyph name="asciicircum" xMin="118" yMin="566" xMax="475" yMax="722">
      <contour>
        <pt x="465" y="567" on="1"/>
        <pt x="304" y="645" on="1"/>
        <pt x="118" y="566" on="1"/>
        <pt x="129" y="652" on="1"/>
        <pt x="295" y="722" on="1"/>
        <pt x="327" y="722" on="1"/>
        <pt x="475" y="649" on="1"/>
      </contour>
    </TTGlyph>
    <TTGlyph name="asciitilde" xMin="81" yMin="282" xMax="381" yMax="368">
      <contour>
        <pt x="161" y="368" on="1"/>
        <pt x="321" y="358" on="1"/>
        <pt x="349" y="361" on="1"/>
        <pt x="381" y="359" on="1"/>
        <pt x="375" y="322" on="1"/>
        <pt x="370" y="292" on="0"/>
        <pt x="352" y="282" on="0"/>
        <pt x="301" y="282" on="1"/>
        <pt x="139" y="292" on="1"/>
        <pt x="111" y="290" on="1"/>
        <pt x="81" y="292" on="1"/>
        <pt x="87" y="328" on="1"/>
        <pt x="92" y="358" on="0"/>
        <pt x="110" y="368" on="0"/>
      </contour>
    </TTGlyph>
    <TTGlyph name="asterisk" xMin="103" yMin="463" xMax="374" yMax="727">
      <contour>
        <pt x="325" y="501" on="1"/>
        <pt x="252" y="463" on="1"/>
        <pt x="229" y="525" on="1"/>
        <pt x="190" y="465" on="1"/>
        <pt x="126" y="506" on="1"/>
        <pt x="170" y="556" on="1"/>
        <pt x="103" y="556" on="1"/>
        <pt x="117" y="628" on="1"/>
        <pt x="188" y="628" on="1"/>
        <pt x="156" y="689" on="1"/>
        <pt x="228" y="727" on="1"/>
        <pt x="251" y="666" on="1"/>
        <pt x="290" y="726" on="1"/>
        <pt x="354" y="686" on="1"/>
        <pt x="308" y="633" on="1"/>
        <pt x="374" y="633" on="1"/>
        <pt x="363" y="561" on="1"/>
        <pt x="292" y="561" on="1"/>
      </contour>
    </TTGlyph>
    <TTGlyph name="at" xMin="68" yMin="-15" xMax="580" yMax="544">
      <contour>
        <pt x="338" y="250" on="1"/>
        <pt x="334" y="257" on="1"/>
        <pt x="346" y="331" on="1"/>
        <pt x="304" y="331" on="0"/>
        <pt x="301" y="324" on="1"/>
        <pt x="283" y="226" on="1"/>
      </contour>
      <contour>
        <pt x="188" y="-15" on="1"/>
        <pt x="110" y="-15" on="0"/>
        <pt x="68" y="67" on="0"/>
        <pt x="68" y="180" on="1"/>
        <pt x="68" y="521" on="0"/>
        <pt x="254" y="531" on="1"/>
        <pt x="501" y="544" on="0"/>
        <pt x="506" y="544" on="1"/>
        <pt x="580" y="544" on="0"/>
        <pt x="580" y="470" on="1"/>
        <pt x="580" y="342" on="0"/>
        <pt x="564" y="282" on="1"/>
        <pt x="548" y="217" on="0"/>
        <pt x="518" y="186" on="1"/>
        <pt x="480" y="149" on="0"/>
        <pt x="341" y="149" on="0"/>
        <pt x="330" y="173" on="1"/>
        <pt x="278" y="144" on="1"/>
        <pt x="235" y="144" on="0"/>
        <pt x="202" y="157" on="0"/>
        <pt x="202" y="182" on="1"/>
        <pt x="202" y="190" on="0"/>
        <pt x="219" y="318" on="1"/>
        <pt x="227" y="367" on="0"/>
        <pt x="316" y="409" on="0"/>
        <pt x="374" y="409" on="1"/>
        <pt x="435" y="409" on="1"/>
        <pt x="407" y="228" on="1"/>
        <pt x="406" y="227" on="1"/>
        <pt x="456" y="227" on="0"/>
        <pt x="464" y="249" on="1"/>
        <pt x="467" y="259" on="0"/>
        <pt x="498" y="449" on="0"/>
        <pt x="498" y="463" on="0"/>
        <pt x="483" y="463" on="0"/>
        <pt x="247" y="448" on="1"/>
        <pt x="155" y="442" on="0"/>
        <pt x="155" y="137" on="1"/>
        <pt x="155" y="63" on="0"/>
        <pt x="198" y="63" on="1"/>
        <pt x="370" y="63" on="1"/>
        <pt x="407" y="63" on="0"/>
        <pt x="429" y="52" on="0"/>
        <pt x="429" y="29" on="1"/>
        <pt x="426" y="-15" on="1"/>
      </contour>
    </TTGlyph>
    <TTGlyph name="atilde" xMin="43" yMin="-7" xMax="402" yMax="682">
      <component glyphName="a" x="0" y="0" flags="0x1004"/>
      <component glyphName="tilde" x="-16" y="-28" flags="0x1004"/>
    </TTGlyph>
    <TTGlyph name="b" xMin="41" yMin="-12" xMax="385" yMax="722">
      <contour>
        <pt x="216" y="719" on="0"/>
        <pt x="232" y="705" on="0"/>
        <pt x="232" y="677" on="0"/>
        <pt x="210" y="544" on="1"/>
        <pt x="264" y="544" on="1"/>
        <pt x="331" y="544" on="0"/>
        <pt x="385" y="491" on="0"/>
        <pt x="385" y="365" on="0"/>
        <pt x="369" y="228" on="0"/>
        <pt x="334" y="82" on="0"/>
        <pt x="261" y="-12" on="0"/>
        <pt x="212" y="-12" on="1"/>
        <pt x="195" y="-12" on="0"/>
        <pt x="131" y="37" on="1"/>
        <pt x="125" y="10" on="0"/>
        <pt x="98" y="0" on="0"/>
        <pt x="41" y="0" on="1"/>
        <pt x="154" y="722" on="1"/>
        <pt x="190" y="722" on="0"/>
      </contour>
      <contour>
        <pt x="195" y="465" on="1"/>
        <pt x="195" y="464" on="0"/>
        <pt x="196" y="461" on="1"/>
        <pt x="144" y="122" on="1"/>
        <pt x="139" y="108" on="1"/>
        <pt x="197" y="72" on="1"/>
        <pt x="199" y="71" on="0"/>
        <pt x="203" y="71" on="1"/>
        <pt x="242" y="71" on="0"/>
        <pt x="298" y="333" on="0"/>
        <pt x="298" y="408" on="1"/>
        <pt x="298" y="465" on="0"/>
        <pt x="260" y="465" on="1"/>
      </contour>
    </TTGlyph>
    <TTGlyph name="backslash" xMin="103" yMin="-189" xMax="336" yMax="722">
      <contour>
        <pt x="336" y="-189" on="1"/>
        <pt x="247" y="-189" on="1"/>
        <pt x="103" y="722" on="1"/>
        <pt x="193" y="722" on="1"/>
      </contour>
    </TTGlyph>
    <TTGlyph name="bar" xMin="22" yMin="-189" xMax="240" yMax="722">
      <contour>
        <pt x="25" y="-180" on="1"/>
        <pt x="22" y="-175" on="0"/>
        <pt x="22" y="-161" on="0"/>
        <pt x="161" y="722" on="1"/>
        <pt x="228" y="722" on="0"/>
        <pt x="236" y="712" on="1"/>
        <pt x="240" y="706" on="0"/>
        <pt x="240" y="696" on="0"/>
        <pt x="189" y="370" on="0"/>
        <pt x="104" y="-177" on="1"/>
        <pt x="90" y="-189" on="1"/>
        <pt x="31" y="-189" on="0"/>
      </contour>
    </TTGlyph>
    <TTGlyph name="braceleft" xMin="57" yMin="-66" xMax="341" yMax="760">
      <contour>
        <pt x="338" y="750" on="1"/>
        <pt x="341" y="746" on="0"/>
        <pt x="341" y="742" on="1"/>
        <pt x="341" y="736" on="1"/>
        <pt x="341" y="736" on="0"/>
        <pt x="333" y="688" on="1"/>
        <pt x="258" y="688" on="1"/>
        <pt x="229" y="505" on="1"/>
        <pt x="135" y="349" on="1"/>
        <pt x="180" y="193" on="1"/>
        <pt x="150" y="6" on="1"/>
        <pt x="160" y="6" on="1"/>
        <pt x="198" y="6" on="0"/>
        <pt x="220" y="-3" on="0"/>
        <pt x="220" y="-48" on="0"/>
        <pt x="214" y="-66" on="1"/>
        <pt x="127" y="-66" on="1"/>
        <pt x="99" y="-66" on="0"/>
        <pt x="89" y="-65" on="1"/>
        <pt x="66" y="-63" on="0"/>
        <pt x="66" y="-36" on="1"/>
        <pt x="66" y="-30" on="0"/>
        <pt x="101" y="194" on="1"/>
        <pt x="57" y="339" on="1"/>
        <pt x="61" y="368" on="1"/>
        <pt x="151" y="515" on="1"/>
        <pt x="191" y="760" on="1"/>
        <pt x="279" y="760" on="1"/>
        <pt x="332" y="760" on="0"/>
      </contour>
    </TTGlyph>
    <TTGlyph name="braceright" xMin="-6" yMin="-66" xMax="285" yMax="760">
      <contour>
        <pt x="87" y="-66" on="1"/>
        <pt x="-6" y="-66" on="1"/>
        <pt x="4" y="-12" on="0"/>
        <pt x="23" y="6" on="0"/>
        <pt x="69" y="6" on="1"/>
        <pt x="82" y="6" on="1"/>
        <pt x="113" y="199" on="1"/>
        <pt x="207" y="355" on="1"/>
        <pt x="162" y="510" on="1"/>
        <pt x="190" y="688" on="1"/>
        <pt x="114" y="688" on="1"/>
        <pt x="123" y="742" on="0"/>
        <pt x="142" y="760" on="0"/>
        <pt x="188" y="760" on="1"/>
        <pt x="281" y="760" on="1"/>
        <pt x="241" y="510" on="1"/>
        <pt x="285" y="364" on="1"/>
        <pt x="281" y="334" on="1"/>
        <pt x="189" y="188" on="1"/>
        <pt x="159" y="-10" on="1"/>
        <pt x="153" y="-50" on="0"/>
        <pt x="133" y="-66" on="0"/>
      </contour>
    </TTGlyph>
    <TTGlyph name="bracketleft" xMin="40" yMin="-66" xMax="314" yMax="760">
      <contour>
        <pt x="100" y="-66" on="1"/>
        <pt x="72" y="-66" on="0"/>
        <pt x="62" y="-65" on="1"/>
        <pt x="40" y="-63" on="0"/>
        <pt x="40" y="-36" on="1"/>
        <pt x="40" y="-29" on="0"/>
        <pt x="41" y="-20" on="0"/>
        <pt x="42" y="-7" on="0"/>
        <pt x="46" y="16" on="0"/>
        <pt x="52" y="49" on="0"/>
        <pt x="62" y="109" on="0"/>
        <pt x="75" y="185" on="0"/>
        <pt x="94" y="304" on="0"/>
        <pt x="116" y="444" on="0"/>
        <pt x="148" y="645" on="0"/>
        <pt x="165" y="760" on="1"/>
        <pt x="253" y="760" on="1"/>
        <pt x="292" y="760" on="0"/>
        <pt x="314" y="751" on="0"/>
        <pt x="314" y="729" on="1"/>
        <pt x="307" y="688" on="1"/>
        <pt x="232" y="688" on="1"/>
        <pt x="125" y="6" on="1"/>
        <pt x="134" y="6" on="1"/>
        <pt x="172" y="6" on="0"/>
        <pt x="194" y="-3" on="0"/>
        <pt x="194" y="-25" on="1"/>
        <pt x="188" y="-66" on="1"/>
      </contour>
    </TTGlyph>
    <TTGlyph name="bracketright" xMin="-16" yMin="-66" xMax="270" yMax="760">
      <contour>
        <pt x="75" y="-66" on="1"/>
        <pt x="-16" y="-66" on="1"/>
        <pt x="-8" y="-12" on="0"/>
        <pt x="11" y="6" on="0"/>
        <pt x="57" y="6" on="1"/>
        <pt x="71" y="6" on="1"/>
        <pt x="178" y="688" on="1"/>
        <pt x="102" y="688" on="1"/>
        <pt x="111" y="742" on="0"/>
        <pt x="130" y="760" on="0"/>
        <pt x="177" y="760" on="1"/>
        <pt x="270" y="760" on="1"/>
        <pt x="147" y="-10" on="1"/>
        <pt x="142" y="-50" on="0"/>
        <pt x="120" y="-66" on="0"/>
      </contour>
    </TTGlyph>
    <TTGlyph name="breve" xMin="117" yMin="584" xMax="417" yMax="742">
      <contour>
        <pt x="406" y="656" on="1"/>
        <pt x="267" y="584" on="1"/>
        <pt x="235" y="584" on="1"/>
        <pt x="117" y="658" on="1"/>
        <pt x="128" y="741" on="1"/>
        <pt x="260" y="661" on="1"/>
        <pt x="417" y="742" on="1"/>
      </contour>
    </TTGlyph>
    <TTGlyph name="brokenbar" xMin="19" yMin="-186" xMax="239" yMax="722">
      <contour>
        <pt x="100" y="314" on="1"/>
        <pt x="96" y="319" on="0"/>
        <pt x="96" y="332" on="0"/>
        <pt x="157" y="722" on="1"/>
        <pt x="206" y="722" on="0"/>
        <pt x="239" y="714" on="0"/>
        <pt x="239" y="695" on="1"/>
        <pt x="239" y="694" on="0"/>
        <pt x="218" y="556" on="0"/>
        <pt x="182" y="317" on="1"/>
        <pt x="167" y="305" on="1"/>
        <pt x="107" y="305" on="0"/>
      </contour>
      <contour>
        <pt x="162" y="204" on="1"/>
        <pt x="162" y="203" on="0"/>
        <pt x="154" y="155" on="0"/>
        <pt x="146" y="100" on="0"/>
        <pt x="120" y="-66" on="0"/>
        <pt x="104" y="-173" on="1"/>
        <pt x="90" y="-186" on="1"/>
        <pt x="30" y="-186" on="0"/>
        <pt x="22" y="-176" on="1"/>
        <pt x="19" y="-172" on="0"/>
        <pt x="19" y="-163" on="1"/>
        <pt x="79" y="231" on="1"/>
        <pt x="129" y="231" on="0"/>
        <pt x="162" y="223" on="0"/>
      </contour>
    </TTGlyph>
    <TTGlyph name="bullet" xMin="73" yMin="220" xMax="234" yMax="378">
      <contour>
        <pt x="194" y="378" on="0"/>
        <pt x="234" y="339" on="0"/>
        <pt x="234" y="274" on="0"/>
        <pt x="177" y="220" on="0"/>
        <pt x="113" y="220" on="0"/>
        <pt x="73" y="260" on="0"/>
        <pt x="73" y="323" on="0"/>
        <pt x="128" y="378" on="0"/>
      </contour>
    </TTGlyph>
    <TTGlyph name="c" xMin="59" yMin="-7" xMax="352" yMax="546">
      <contour>
        <pt x="295" y="460" on="1"/>
        <pt x="245" y="465" on="1"/>
        <pt x="217" y="465" on="0"/>
        <pt x="175" y="378" on="0"/>
        <pt x="164" y="316" on="1"/>
        <pt x="145" y="201" on="0"/>
        <pt x="145" y="96" on="0"/>
        <pt x="162" y="72" on="0"/>
        <pt x="184" y="72" on="1"/>
        <pt x="284" y="83" on="1"/>
        <pt x="274" y="11" on="1"/>
        <pt x="177" y="-7" on="1"/>
        <pt x="111" y="-7" on="0"/>
        <pt x="59" y="45" on="0"/>
        <pt x="59" y="166" on="0"/>
        <pt x="74" y="299" on="0"/>
        <pt x="110" y="449" on="0"/>
        <pt x="187" y="546" on="0"/>
        <pt x="240" y="546" on="1"/>
        <pt x="247" y="546" on="0"/>
        <pt x="352" y="529" on="1"/>
        <pt x="340" y="460" on="0"/>
      </contour>
    </TTGlyph>
    <TTGlyph name="caron" xMin="147" yMin="594" xMax="409" yMax="730">
      <contour>
        <pt x="398" y="647" on="1"/>
        <pt x="281" y="594" on="1"/>
        <pt x="250" y="594" on="1"/>
        <pt x="147" y="648" on="1"/>
        <pt x="157" y="729" on="1"/>
        <pt x="273" y="670" on="1"/>
        <pt x="409" y="730" on="1"/>
      </contour>
    </TTGlyph>
    <TTGlyph name="ccedilla" xMin="24" yMin="-175" xMax="352" yMax="546">
      <contour>
        <pt x="295" y="460" on="1"/>
        <pt x="245" y="465" on="1"/>
        <pt x="217" y="465" on="0"/>
        <pt x="175" y="378" on="0"/>
        <pt x="164" y="316" on="1"/>
        <pt x="145" y="201" on="0"/>
        <pt x="145" y="96" on="0"/>
        <pt x="162" y="72" on="0"/>
        <pt x="184" y="72" on="1"/>
        <pt x="284" y="83" on="1"/>
        <pt x="274" y="11" on="1"/>
        <pt x="199" y="-3" on="1"/>
        <pt x="182" y="-117" on="1"/>
        <pt x="176" y="-155" on="0"/>
        <pt x="154" y="-175" on="0"/>
        <pt x="115" y="-175" on="1"/>
        <pt x="82" y="-175" on="1"/>
        <pt x="34" y="-175" on="0"/>
        <pt x="28" y="-166" on="1"/>
        <pt x="25" y="-162" on="0"/>
        <pt x="25" y="-133" on="0"/>
        <pt x="29" y="-103" on="1"/>
        <pt x="112" y="-103" on="1"/>
        <pt x="127" y="-2" on="1"/>
        <pt x="90" y="6" on="0"/>
        <pt x="59" y="57" on="0"/>
        <pt x="59" y="166" on="0"/>
        <pt x="74" y="299" on="0"/>
        <pt x="110" y="449" on="0"/>
        <pt x="187" y="546" on="0"/>
        <pt x="240" y="546" on="1"/>
        <pt x="247" y="546" on="0"/>
        <pt x="352" y="529" on="1"/>
        <pt x="340" y="460" on="0"/>
      </contour>
    </TTGlyph>
    <TTGlyph name="cedilla" xMin="-22" yMin="-175" xMax="154" yMax="0">
      <contour>
        <pt x="69" y="-175" on="1"/>
        <pt x="36" y="-175" on="1"/>
        <pt x="-12" y="-175" on="0"/>
        <pt x="-18" y="-166" on="1"/>
        <pt x="-21" y="-162" on="0"/>
        <pt x="-21" y="-133" on="0"/>
        <pt x="-17" y="-103" on="1"/>
        <pt x="66" y="-103" on="1"/>
        <pt x="82" y="0" on="1"/>
        <pt x="154" y="0" on="1"/>
        <pt x="136" y="-117" on="1"/>
        <pt x="130" y="-155" on="0"/>
        <pt x="108" y="-175" on="0"/>
      </contour>
    </TTGlyph>
    <TTGlyph name="cent" xMin="44" yMin="-112" xMax="372" yMax="629">
      <contour>
        <pt x="289" y="542" on="1"/>
        <pt x="372" y="536" on="1"/>
        <pt x="363" y="483" on="0"/>
        <pt x="345" y="465" on="0"/>
        <pt x="300" y="465" on="1"/>
        <pt x="244" y="465" on="1"/>
        <pt x="203" y="465" on="0"/>
        <pt x="175" y="392" on="1"/>
        <pt x="130" y="275" on="0"/>
        <pt x="130" y="130" on="1"/>
        <pt x="130" y="99" on="0"/>
        <pt x="152" y="72" on="0"/>
        <pt x="198" y="72" on="0"/>
        <pt x="298" y="82" on="1"/>
        <pt x="288" y="11" on="1"/>
        <pt x="203" y="-3" on="1"/>
        <pt x="197" y="-33" on="0"/>
        <pt x="188" y="-102" on="0"/>
        <pt x="186" y="-112" on="1"/>
        <pt x="140" y="-112" on="0"/>
        <pt x="116" y="-103" on="0"/>
        <pt x="116" y="-70" on="0"/>
        <pt x="120" y="-45" on="0"/>
        <pt x="126" y="-14" on="0"/>
        <pt x="127" y="-4" on="1"/>
        <pt x="81" y="4" on="0"/>
        <pt x="44" y="56" on="0"/>
        <pt x="44" y="153" on="0"/>
        <pt x="51" y="252" on="0"/>
        <pt x="73" y="378" on="0"/>
        <pt x="108" y="475" on="0"/>
        <pt x="171" y="542" on="0"/>
        <pt x="212" y="542" on="1"/>
        <pt x="226" y="629" on="1"/>
        <pt x="271" y="629" on="0"/>
        <pt x="296" y="620" on="0"/>
        <pt x="296" y="577" on="0"/>
      </contour>
    </TTGlyph>
    <TTGlyph name="circumflex" xMin="135" yMin="573" xMax="401" yMax="722">
      <contour>
        <pt x="387" y="575" on="1"/>
        <pt x="274" y="644" on="1"/>
        <pt x="135" y="573" on="1"/>
        <pt x="149" y="659" on="1"/>
        <pt x="267" y="722" on="1"/>
        <pt x="299" y="722" on="1"/>
        <pt x="401" y="657" on="1"/>
      </contour>
    </TTGlyph>
    <TTGlyph name="colon" xMin="34" yMin="0" xMax="223" yMax="537">
      <contour>
        <pt x="150" y="39" on="0"/>
        <pt x="111" y="0" on="0"/>
        <pt x="64" y="0" on="0"/>
        <pt x="34" y="30" on="0"/>
        <pt x="34" y="75" on="0"/>
        <pt x="73" y="115" on="0"/>
        <pt x="122" y="115" on="0"/>
        <pt x="150" y="86" on="0"/>
      </contour>
      <contour>
        <pt x="223" y="462" on="0"/>
        <pt x="184" y="422" on="0"/>
        <pt x="137" y="422" on="0"/>
        <pt x="107" y="452" on="0"/>
        <pt x="107" y="498" on="0"/>
        <pt x="148" y="537" on="0"/>
        <pt x="195" y="537" on="0"/>
        <pt x="223" y="509" on="0"/>
      </contour>
    </TTGlyph>
    <TTGlyph name="comma" xMin="5" yMin="-108" xMax="151" yMax="115">
      <contour>
        <pt x="40" y="22" on="1"/>
        <pt x="39" y="55" on="1"/>
        <pt x="39" y="78" on="0"/>
        <pt x="80" y="115" on="0"/>
        <pt x="103" y="115" on="1"/>
        <pt x="151" y="115" on="0"/>
        <pt x="151" y="71" on="1"/>
        <pt x="151" y="50" on="0"/>
        <pt x="48" y="-108" on="0"/>
        <pt x="41" y="-108" on="1"/>
        <pt x="10" y="-89" on="1"/>
        <pt x="5" y="-70" on="1"/>
        <pt x="40" y="-11" on="0"/>
      </contour>
    </TTGlyph>
    <TTGlyph name="copyright" xMin="74" yMin="0" xMax="650" yMax="587">
      <contour>
        <pt x="247" y="153" on="0"/>
        <pt x="247" y="243" on="0"/>
        <pt x="258" y="331" on="0"/>
        <pt x="283" y="428" on="0"/>
        <pt x="339" y="488" on="0"/>
        <pt x="378" y="488" on="1"/>
        <pt x="383" y="488" on="0"/>
        <pt x="473" y="482" on="1"/>
        <pt x="466" y="436" on="0"/>
        <pt x="452" y="421" on="0"/>
        <pt x="420" y="421" on="1"/>
        <pt x="379" y="421" on="1"/>
        <pt x="352" y="421" on="0"/>
        <pt x="318" y="262" on="0"/>
        <pt x="318" y="177" on="0"/>
        <pt x="334" y="176" on="1"/>
        <pt x="391" y="185" on="0"/>
        <pt x="436" y="188" on="1"/>
        <pt x="425" y="119" on="1"/>
        <pt x="331" y="105" on="1"/>
        <pt x="285" y="105" on="0"/>
      </contour>
      <contour>
        <pt x="319" y="0" on="1"/>
        <pt x="209" y="0" on="0"/>
        <pt x="74" y="139" on="0"/>
        <pt x="74" y="245" on="1"/>
        <pt x="74" y="376" on="0"/>
        <pt x="270" y="587" on="0"/>
        <pt x="407" y="587" on="1"/>
        <pt x="515" y="587" on="0"/>
        <pt x="650" y="447" on="0"/>
        <pt x="650" y="341" on="1"/>
        <pt x="650" y="203" on="0"/>
        <pt x="451" y="0" on="0"/>
      </contour>
      <contour>
        <pt x="326" y="77" on="1"/>
        <pt x="426" y="77" on="0"/>
        <pt x="572" y="230" on="0"/>
        <pt x="572" y="334" on="1"/>
        <pt x="572" y="410" on="0"/>
        <pt x="477" y="510" on="0"/>
        <pt x="399" y="510" on="1"/>
        <pt x="301" y="510" on="0"/>
        <pt x="152" y="355" on="0"/>
        <pt x="152" y="254" on="1"/>
        <pt x="152" y="177" on="0"/>
        <pt x="248" y="77" on="0"/>
      </contour>
    </TTGlyph>
    <TTGlyph name="currency" xMin="107" yMin="186" xMax="502" yMax="553">
      <contour>
        <pt x="318" y="313" on="0"/>
        <pt x="363" y="355" on="0"/>
        <pt x="363" y="404" on="0"/>
        <pt x="335" y="431" on="0"/>
        <pt x="287" y="431" on="0"/>
        <pt x="240" y="389" on="0"/>
        <pt x="240" y="340" on="0"/>
        <pt x="268" y="313" on="0"/>
      </contour>
      <contour>
        <pt x="316" y="234" on="0"/>
        <pt x="250" y="234" on="0"/>
        <pt x="221" y="249" on="1"/>
        <pt x="137" y="186" on="1"/>
        <pt x="107" y="219" on="0"/>
        <pt x="107" y="246" on="0"/>
        <pt x="127" y="271" on="0"/>
        <pt x="169" y="302" on="0"/>
        <pt x="172" y="305" on="1"/>
        <pt x="161" y="329" on="0"/>
        <pt x="161" y="401" on="0"/>
        <pt x="193" y="442" on="1"/>
        <pt x="142" y="514" on="1"/>
        <pt x="179" y="548" on="0"/>
        <pt x="211" y="548" on="0"/>
        <pt x="235" y="518" on="1"/>
        <pt x="255" y="493" on="1"/>
        <pt x="293" y="510" on="0"/>
        <pt x="361" y="510" on="0"/>
        <pt x="389" y="491" on="1"/>
        <pt x="471" y="553" on="1"/>
        <pt x="502" y="520" on="0"/>
        <pt x="501" y="487" on="0"/>
        <pt x="435" y="434" on="1"/>
        <pt x="443" y="413" on="0"/>
        <pt x="443" y="390" on="1"/>
        <pt x="443" y="343" on="0"/>
        <pt x="413" y="302" on="1"/>
        <pt x="464" y="229" on="1"/>
        <pt x="426" y="195" on="0"/>
        <pt x="398" y="196" on="0"/>
        <pt x="378" y="213" on="0"/>
        <pt x="353" y="247" on="0"/>
        <pt x="350" y="250" on="1"/>
      </contour>
    </TTGlyph>
    <TTGlyph name="d" xMin="60" yMin="-7" xMax="428" yMax="722">
      <contour>
        <pt x="428" y="698" on="1"/>
        <pt x="428" y="697" on="0"/>
        <pt x="320" y="0" on="1"/>
        <pt x="270" y="0" on="0"/>
        <pt x="242" y="9" on="0"/>
        <pt x="242" y="32" on="1"/>
        <pt x="242" y="34" on="0"/>
        <pt x="243" y="36" on="1"/>
        <pt x="181" y="-7" on="1"/>
        <pt x="113" y="-7" on="0"/>
        <pt x="60" y="44" on="0"/>
        <pt x="60" y="167" on="0"/>
        <pt x="77" y="301" on="0"/>
        <pt x="117" y="450" on="0"/>
        <pt x="204" y="544" on="0"/>
        <pt x="264" y="544" on="1"/>
        <pt x="322" y="544" on="1"/>
        <pt x="349" y="722" on="1"/>
        <pt x="396" y="722" on="0"/>
        <pt x="428" y="715" on="0"/>
      </contour>
      <contour>
        <pt x="252" y="465" on="1"/>
        <pt x="216" y="465" on="0"/>
        <pt x="164" y="310" on="0"/>
        <pt x="146" y="162" on="0"/>
        <pt x="146" y="95" on="0"/>
        <pt x="162" y="73" on="0"/>
        <pt x="183" y="72" on="1"/>
        <pt x="256" y="109" on="1"/>
        <pt x="256" y="126" on="1"/>
        <pt x="308" y="460" on="1"/>
        <pt x="310" y="465" on="1"/>
      </contour>
    </TTGlyph>
    <TTGlyph name="dagger" xMin="49" yMin="0" xMax="347" yMax="722">
      <contour>
        <pt x="161" y="410" on="1"/>
        <pt x="161" y="421" on="1"/>
        <pt x="208" y="722" on="1"/>
        <pt x="297" y="722" on="1"/>
        <pt x="249" y="415" on="1"/>
        <pt x="247" y="410" on="1"/>
        <pt x="347" y="410" on="1"/>
        <pt x="336" y="333" on="1"/>
        <pt x="234" y="333" on="1"/>
        <pt x="234" y="322" on="1"/>
        <pt x="183" y="0" on="1"/>
        <pt x="94" y="0" on="1"/>
        <pt x="147" y="333" on="1"/>
        <pt x="49" y="333" on="1"/>
        <pt x="60" y="410" on="1"/>
      </contour>
    </TTGlyph>
    <TTGlyph name="daggerdbl" xMin="45" yMin="0" xMax="366" yMax="722">
      <contour>
        <pt x="179" y="509" on="1"/>
        <pt x="179" y="520" on="1"/>
        <pt x="210" y="722" on="1"/>
        <pt x="299" y="722" on="1"/>
        <pt x="267" y="513" on="1"/>
        <pt x="265" y="509" on="1"/>
        <pt x="366" y="509" on="1"/>
        <pt x="354" y="432" on="1"/>
        <pt x="252" y="432" on="1"/>
        <pt x="246" y="400" on="1"/>
        <pt x="242" y="390" on="1"/>
        <pt x="343" y="390" on="1"/>
        <pt x="332" y="313" on="1"/>
        <pt x="230" y="313" on="1"/>
        <pt x="230" y="302" on="1"/>
        <pt x="186" y="0" on="1"/>
        <pt x="97" y="0" on="1"/>
        <pt x="142" y="306" on="1"/>
        <pt x="144" y="313" on="1"/>
        <pt x="45" y="313" on="1"/>
        <pt x="56" y="390" on="1"/>
        <pt x="157" y="390" on="1"/>
        <pt x="163" y="422" on="1"/>
        <pt x="167" y="432" on="1"/>
        <pt x="67" y="432" on="1"/>
        <pt x="79" y="509" on="1"/>
      </contour>
    </TTGlyph>
    <TTGlyph name="degree" xMin="120" yMin="445" xMax="403" yMax="721">
      <contour>
        <pt x="334" y="721" on="0"/>
        <pt x="403" y="653" on="0"/>
        <pt x="403" y="540" on="0"/>
        <pt x="303" y="445" on="0"/>
        <pt x="190" y="445" on="0"/>
        <pt x="120" y="514" on="0"/>
        <pt x="120" y="625" on="0"/>
        <pt x="217" y="721" on="0"/>
      </contour>
      <contour>
        <pt x="277" y="524" on="0"/>
        <pt x="323" y="565" on="0"/>
        <pt x="323" y="614" on="0"/>
        <pt x="294" y="642" on="0"/>
        <pt x="245" y="642" on="0"/>
        <pt x="200" y="600" on="0"/>
        <pt x="200" y="551" on="0"/>
        <pt x="228" y="524" on="0"/>
      </contour>
    </TTGlyph>
    <TTGlyph name="dieresis" xMin="143" yMin="596" xMax="395" yMax="710">
      <contour>
        <pt x="259" y="635" on="0"/>
        <pt x="220" y="596" on="0"/>
        <pt x="173" y="596" on="0"/>
        <pt x="143" y="625" on="0"/>
        <pt x="143" y="671" on="0"/>
        <pt x="183" y="710" on="0"/>
        <pt x="231" y="710" on="0"/>
        <pt x="259" y="682" on="0"/>
      </contour>
      <contour>
        <pt x="366" y="710" on="0"/>
        <pt x="395" y="682" on="0"/>
        <pt x="395" y="635" on="0"/>
        <pt x="355" y="596" on="0"/>
        <pt x="308" y="596" on="0"/>
        <pt x="278" y="625" on="0"/>
        <pt x="278" y="671" on="0"/>
        <pt x="319" y="710" on="0"/>
      </contour>
    </TTGlyph>
    <TTGlyph name="divide" xMin="57" yMin="0" xMax="299" yMax="537">
      <contour>
        <pt x="194" y="39" on="0"/>
        <pt x="155" y="0" on="0"/>
        <pt x="108" y="0" on="0"/>
        <pt x="78" y="30" on="0"/>
        <pt x="78" y="75" on="0"/>
        <pt x="117" y="115" on="0"/>
        <pt x="166" y="115" on="0"/>
        <pt x="194" y="86" on="0"/>
      </contour>
      <contour>
        <pt x="267" y="462" on="0"/>
        <pt x="228" y="422" on="0"/>
        <pt x="181" y="422" on="0"/>
        <pt x="151" y="452" on="0"/>
        <pt x="151" y="498" on="0"/>
        <pt x="192" y="537" on="0"/>
        <pt x="239" y="537" on="0"/>
        <pt x="267" y="509" on="0"/>
      </contour>
      <contour>
        <pt x="288" y="254" on="1"/>
        <pt x="57" y="254" on="1"/>
        <pt x="68" y="331" on="1"/>
        <pt x="299" y="331" on="1"/>
      </contour>
    </TTGlyph>
    <TTGlyph name="dollar" xMin="62" yMin="-115" xMax="373" yMax="626">
      <contour>
        <pt x="144" y="-102" on="0"/>
        <pt x="144" y="-93" on="0"/>
        <pt x="156" y="-6" on="1"/>
        <pt x="105" y="0" on="0"/>
        <pt x="62" y="12" on="1"/>
        <pt x="72" y="82" on="1"/>
        <pt x="86" y="81" on="0"/>
        <pt x="172" y="72" on="0"/>
        <pt x="192" y="72" on="1"/>
        <pt x="259" y="72" on="0"/>
        <pt x="259" y="170" on="1"/>
        <pt x="259" y="198" on="0"/>
        <pt x="185" y="259" on="1"/>
        <pt x="157" y="282" on="0"/>
        <pt x="111" y="350" on="0"/>
        <pt x="111" y="383" on="1"/>
        <pt x="111" y="526" on="0"/>
        <pt x="238" y="542" on="1"/>
        <pt x="252" y="626" on="1"/>
        <pt x="296" y="626" on="0"/>
        <pt x="320" y="617" on="0"/>
        <pt x="320" y="595" on="1"/>
        <pt x="314" y="534" on="1"/>
        <pt x="373" y="527" on="1"/>
        <pt x="361" y="457" on="0"/>
        <pt x="317" y="457" on="1"/>
        <pt x="309" y="457" on="0"/>
        <pt x="267" y="465" on="1"/>
        <pt x="196" y="464" on="0"/>
        <pt x="196" y="394" on="1"/>
        <pt x="196" y="365" on="0"/>
        <pt x="274" y="304" on="1"/>
        <pt x="303" y="282" on="0"/>
        <pt x="352" y="216" on="0"/>
        <pt x="352" y="185" on="1"/>
        <pt x="352" y="118" on="0"/>
        <pt x="289" y="13" on="0"/>
        <pt x="233" y="-2" on="1"/>
        <pt x="213" y="-115" on="1"/>
        <pt x="154" y="-115" on="0"/>
      </contour>
    </TTGlyph>
    <TTGlyph name="dotaccent" xMin="136" yMin="607" xMax="252" yMax="722">
      <contour>
        <pt x="252" y="646" on="0"/>
        <pt x="213" y="607" on="0"/>
        <pt x="166" y="607" on="0"/>
        <pt x="136" y="637" on="0"/>
        <pt x="136" y="686" on="0"/>
        <pt x="177" y="722" on="0"/>
        <pt x="224" y="722" on="0"/>
        <pt x="252" y="694" on="0"/>
      </contour>
    </TTGlyph>
    <TTGlyph name="dotlessi" xMin="57" yMin="121" xMax="224" yMax="454">
      <contour>
        <pt x="132" y="454" on="1"/>
        <pt x="224" y="454" on="1"/>
        <pt x="171" y="121" on="1"/>
        <pt x="92" y="121" on="1"/>
        <pt x="134" y="382" on="1"/>
        <pt x="57" y="382" on="1"/>
        <pt x="66" y="436" on="0"/>
        <pt x="85" y="454" on="0"/>
      </contour>
    </TTGlyph>
    <TTGlyph name="e" xMin="59" yMin="-7" xMax="370" yMax="544">
      <contour>
        <pt x="183" y="-7" on="1"/>
        <pt x="113" y="-7" on="0"/>
        <pt x="59" y="43" on="0"/>
        <pt x="59" y="104" on="1"/>
        <pt x="59" y="452" on="0"/>
        <pt x="194" y="526" on="1"/>
        <pt x="226" y="544" on="0"/>
        <pt x="324" y="544" on="0"/>
        <pt x="370" y="495" on="0"/>
        <pt x="370" y="442" on="1"/>
        <pt x="370" y="394" on="0"/>
        <pt x="352" y="334" on="1"/>
        <pt x="340" y="297" on="0"/>
        <pt x="281" y="249" on="0"/>
        <pt x="237" y="249" on="1"/>
        <pt x="149" y="249" on="1"/>
        <pt x="149" y="238" on="1"/>
        <pt x="143" y="194" on="0"/>
        <pt x="143" y="126" on="0"/>
        <pt x="145" y="105" on="0"/>
        <pt x="153" y="81" on="0"/>
        <pt x="173" y="74" on="0"/>
        <pt x="241" y="74" on="0"/>
        <pt x="321" y="91" on="1"/>
        <pt x="310" y="11" on="1"/>
        <pt x="220" y="-7" on="0"/>
      </contour>
      <contour>
        <pt x="226" y="318" on="1"/>
        <pt x="248" y="318" on="0"/>
        <pt x="262" y="341" on="1"/>
        <pt x="285" y="377" on="0"/>
        <pt x="285" y="465" on="0"/>
        <pt x="258" y="465" on="1"/>
        <pt x="215" y="465" on="0"/>
        <pt x="175" y="402" on="0"/>
        <pt x="165" y="334" on="1"/>
        <pt x="159" y="318" on="1"/>
      </contour>
    </TTGlyph>
    <TTGlyph name="eacute" xMin="59" yMin="-7" xMax="416" yMax="740">
      <contour>
        <pt x="183" y="-7" on="1"/>
        <pt x="113" y="-7" on="0"/>
        <pt x="59" y="43" on="0"/>
        <pt x="59" y="104" on="1"/>
        <pt x="59" y="452" on="0"/>
        <pt x="194" y="526" on="1"/>
        <pt x="226" y="544" on="0"/>
        <pt x="324" y="544" on="0"/>
        <pt x="370" y="495" on="0"/>
        <pt x="370" y="442" on="1"/>
        <pt x="370" y="394" on="0"/>
        <pt x="352" y="334" on="1"/>
        <pt x="340" y="297" on="0"/>
        <pt x="281" y="249" on="0"/>
        <pt x="237" y="249" on="1"/>
        <pt x="149" y="249" on="1"/>
        <pt x="149" y="238" on="1"/>
        <pt x="143" y="194" on="0"/>
        <pt x="143" y="126" on="0"/>
        <pt x="145" y="105" on="0"/>
        <pt x="153" y="81" on="0"/>
        <pt x="173" y="74" on="0"/>
        <pt x="241" y="74" on="0"/>
        <pt x="321" y="91" on="1"/>
        <pt x="310" y="11" on="1"/>
        <pt x="220" y="-7" on="0"/>
      </contour>
      <contour>
        <pt x="226" y="318" on="1"/>
        <pt x="248" y="318" on="0"/>
        <pt x="262" y="341" on="1"/>
        <pt x="285" y="377" on="0"/>
        <pt x="285" y="465" on="0"/>
        <pt x="258" y="465" on="1"/>
        <pt x="215" y="465" on="0"/>
        <pt x="175" y="402" on="0"/>
        <pt x="165" y="334" on="1"/>
        <pt x="159" y="318" on="1"/>
      </contour>
      <contour>
        <pt x="313" y="710" on="1"/>
        <pt x="348" y="740" on="0"/>
        <pt x="377" y="740" on="0"/>
        <pt x="411" y="702" on="1"/>
        <pt x="414" y="698" on="0"/>
        <pt x="416" y="696" on="1"/>
        <pt x="267" y="567" on="1"/>
        <pt x="222" y="624" on="1"/>
      </contour>
    </TTGlyph>
    <TTGlyph name="ecircumflex" xMin="59" yMin="-7" xMax="409" yMax="734">
      <contour>
        <pt x="183" y="-7" on="1"/>
        <pt x="113" y="-7" on="0"/>
        <pt x="59" y="43" on="0"/>
        <pt x="59" y="104" on="1"/>
        <pt x="59" y="452" on="0"/>
        <pt x="194" y="526" on="1"/>
        <pt x="226" y="544" on="0"/>
        <pt x="324" y="544" on="0"/>
        <pt x="370" y="495" on="0"/>
        <pt x="370" y="442" on="1"/>
        <pt x="370" y="394" on="0"/>
        <pt x="352" y="334" on="1"/>
        <pt x="340" y="297" on="0"/>
        <pt x="281" y="249" on="0"/>
        <pt x="237" y="249" on="1"/>
        <pt x="149" y="249" on="1"/>
        <pt x="149" y="238" on="1"/>
        <pt x="143" y="194" on="0"/>
        <pt x="143" y="126" on="0"/>
        <pt x="145" y="105" on="0"/>
        <pt x="153" y="81" on="0"/>
        <pt x="173" y="74" on="0"/>
        <pt x="241" y="74" on="0"/>
        <pt x="321" y="91" on="1"/>
        <pt x="310" y="11" on="1"/>
        <pt x="220" y="-7" on="0"/>
      </contour>
      <contour>
        <pt x="226" y="318" on="1"/>
        <pt x="248" y="318" on="0"/>
        <pt x="262" y="341" on="1"/>
        <pt x="285" y="377" on="0"/>
        <pt x="285" y="465" on="0"/>
        <pt x="258" y="465" on="1"/>
        <pt x="215" y="465" on="0"/>
        <pt x="175" y="402" on="0"/>
        <pt x="165" y="334" on="1"/>
        <pt x="159" y="318" on="1"/>
      </contour>
      <contour>
        <pt x="395" y="587" on="1"/>
        <pt x="282" y="656" on="1"/>
        <pt x="143" y="585" on="1"/>
        <pt x="157" y="671" on="1"/>
        <pt x="275" y="734" on="1"/>
        <pt x="307" y="734" on="1"/>
        <pt x="409" y="669" on="1"/>
      </contour>
    </TTGlyph>
    <TTGlyph name="edieresis" xMin="59" yMin="-7" xMax="407" yMax="703">
      <contour>
        <pt x="183" y="-7" on="1"/>
        <pt x="113" y="-7" on="0"/>
        <pt x="59" y="43" on="0"/>
        <pt x="59" y="104" on="1"/>
        <pt x="59" y="452" on="0"/>
        <pt x="194" y="526" on="1"/>
        <pt x="226" y="544" on="0"/>
        <pt x="324" y="544" on="0"/>
        <pt x="370" y="495" on="0"/>
        <pt x="370" y="442" on="1"/>
        <pt x="370" y="394" on="0"/>
        <pt x="352" y="334" on="1"/>
        <pt x="340" y="297" on="0"/>
        <pt x="281" y="249" on="0"/>
        <pt x="237" y="249" on="1"/>
        <pt x="149" y="249" on="1"/>
        <pt x="149" y="238" on="1"/>
        <pt x="143" y="194" on="0"/>
        <pt x="143" y="126" on="0"/>
        <pt x="145" y="105" on="0"/>
        <pt x="153" y="81" on="0"/>
        <pt x="173" y="74" on="0"/>
        <pt x="241" y="74" on="0"/>
        <pt x="321" y="91" on="1"/>
        <pt x="310" y="11" on="1"/>
        <pt x="220" y="-7" on="0"/>
      </contour>
      <contour>
        <pt x="226" y="318" on="1"/>
        <pt x="248" y="318" on="0"/>
        <pt x="262" y="341" on="1"/>
        <pt x="285" y="377" on="0"/>
        <pt x="285" y="465" on="0"/>
        <pt x="258" y="465" on="1"/>
        <pt x="215" y="465" on="0"/>
        <pt x="175" y="402" on="0"/>
        <pt x="165" y="334" on="1"/>
        <pt x="159" y="318" on="1"/>
      </contour>
      <contour>
        <pt x="271" y="628" on="0"/>
        <pt x="232" y="589" on="0"/>
        <pt x="185" y="589" on="0"/>
        <pt x="155" y="618" on="0"/>
        <pt x="155" y="664" on="0"/>
        <pt x="195" y="703" on="0"/>
        <pt x="243" y="703" on="0"/>
        <pt x="271" y="675" on="0"/>
      </contour>
      <contour>
        <pt x="378" y="703" on="0"/>
        <pt x="407" y="675" on="0"/>
        <pt x="407" y="628" on="0"/>
        <pt x="367" y="589" on="0"/>
        <pt x="320" y="589" on="0"/>
        <pt x="290" y="618" on="0"/>
        <pt x="290" y="664" on="0"/>
        <pt x="331" y="703" on="0"/>
      </contour>
    </TTGlyph>
    <TTGlyph name="egrave" xMin="59" yMin="-7" xMax="370" yMax="740">
      <contour>
        <pt x="183" y="-7" on="1"/>
        <pt x="113" y="-7" on="0"/>
        <pt x="59" y="43" on="0"/>
        <pt x="59" y="104" on="1"/>
        <pt x="59" y="452" on="0"/>
        <pt x="194" y="526" on="1"/>
        <pt x="226" y="544" on="0"/>
        <pt x="324" y="544" on="0"/>
        <pt x="370" y="495" on="0"/>
        <pt x="370" y="442" on="1"/>
        <pt x="370" y="394" on="0"/>
        <pt x="352" y="334" on="1"/>
        <pt x="340" y="297" on="0"/>
        <pt x="281" y="249" on="0"/>
        <pt x="237" y="249" on="1"/>
        <pt x="149" y="249" on="1"/>
        <pt x="149" y="238" on="1"/>
        <pt x="143" y="194" on="0"/>
        <pt x="143" y="126" on="0"/>
        <pt x="145" y="105" on="0"/>
        <pt x="153" y="81" on="0"/>
        <pt x="173" y="74" on="0"/>
        <pt x="241" y="74" on="0"/>
        <pt x="321" y="91" on="1"/>
        <pt x="310" y="11" on="1"/>
        <pt x="220" y="-7" on="0"/>
      </contour>
      <contour>
        <pt x="226" y="318" on="1"/>
        <pt x="248" y="318" on="0"/>
        <pt x="262" y="341" on="1"/>
        <pt x="285" y="377" on="0"/>
        <pt x="285" y="465" on="0"/>
        <pt x="258" y="465" on="1"/>
        <pt x="215" y="465" on="0"/>
        <pt x="175" y="402" on="0"/>
        <pt x="165" y="334" on="1"/>
        <pt x="159" y="318" on="1"/>
      </contour>
      <contour>
        <pt x="204" y="713" on="1"/>
        <pt x="234" y="740" on="0"/>
        <pt x="264" y="740" on="0"/>
        <pt x="295" y="703" on="1"/>
        <pt x="355" y="620" on="1"/>
        <pt x="297" y="568" on="1"/>
        <pt x="187" y="698" on="1"/>
      </contour>
    </TTGlyph>
    <TTGlyph name="eight" xMin="60" yMin="-7" xMax="418" yMax="729">
      <contour>
        <pt x="167" y="391" on="1"/>
        <pt x="132" y="431" on="0"/>
        <pt x="132" y="549" on="0"/>
        <pt x="166" y="651" on="0"/>
        <pt x="247" y="729" on="0"/>
        <pt x="355" y="729" on="0"/>
        <pt x="418" y="667" on="0"/>
        <pt x="418" y="526" on="0"/>
        <pt x="370" y="412" on="0"/>
        <pt x="335" y="380" on="1"/>
        <pt x="382" y="331" on="0"/>
        <pt x="382" y="251" on="1"/>
        <pt x="382" y="116" on="0"/>
        <pt x="298" y="36" on="1"/>
        <pt x="253" y="-7" on="0"/>
        <pt x="128" y="-7" on="0"/>
        <pt x="60" y="73" on="0"/>
        <pt x="60" y="229" on="0"/>
        <pt x="121" y="354" on="0"/>
      </contour>
      <contour>
        <pt x="199" y="75" on="1"/>
        <pt x="238" y="75" on="0"/>
        <pt x="294" y="173" on="0"/>
        <pt x="294" y="256" on="1"/>
        <pt x="294" y="298" on="0"/>
        <pt x="267" y="347" on="0"/>
        <pt x="246" y="347" on="1"/>
        <pt x="210" y="347" on="0"/>
        <pt x="148" y="239" on="0"/>
        <pt x="148" y="75" on="0"/>
      </contour>
      <contour>
        <pt x="255" y="431" on="1"/>
        <pt x="277" y="431" on="0"/>
        <pt x="309" y="468" on="0"/>
        <pt x="316" y="497" on="1"/>
        <pt x="330" y="549" on="0"/>
        <pt x="330" y="648" on="0"/>
        <pt x="294" y="648" on="1"/>
        <pt x="272" y="648" on="0"/>
        <pt x="240" y="613" on="0"/>
        <pt x="232" y="585" on="1"/>
        <pt x="219" y="535" on="0"/>
        <pt x="219" y="431" on="0"/>
      </contour>
    </TTGlyph>
    <TTGlyph name="ellipsis" xMin="51" yMin="0" xMax="439" yMax="115">
      <contour>
        <pt x="140" y="115" on="0"/>
        <pt x="168" y="86" on="0"/>
        <pt x="168" y="39" on="0"/>
        <pt x="128" y="0" on="0"/>
        <pt x="81" y="0" on="0"/>
        <pt x="51" y="30" on="0"/>
        <pt x="51" y="76" on="0"/>
        <pt x="91" y="115" on="0"/>
      </contour>
      <contour>
        <pt x="306" y="39" on="0"/>
        <pt x="267" y="0" on="0"/>
        <pt x="219" y="0" on="0"/>
        <pt x="189" y="30" on="0"/>
        <pt x="189" y="75" on="0"/>
        <pt x="229" y="115" on="0"/>
        <pt x="278" y="115" on="0"/>
        <pt x="306" y="86" on="0"/>
      </contour>
      <contour>
        <pt x="410" y="115" on="0"/>
        <pt x="439" y="87" on="0"/>
        <pt x="439" y="39" on="0"/>
        <pt x="399" y="0" on="0"/>
        <pt x="352" y="0" on="0"/>
        <pt x="322" y="30" on="0"/>
        <pt x="322" y="75" on="0"/>
        <pt x="361" y="115" on="0"/>
      </contour>
    </TTGlyph>
    <TTGlyph name="emdash" xMin="95" yMin="284" xMax="600" yMax="361">
      <contour>
        <pt x="589" y="284" on="1"/>
        <pt x="95" y="284" on="1"/>
        <pt x="106" y="361" on="1"/>
        <pt x="600" y="361" on="1"/>
      </contour>
    </TTGlyph>
    <TTGlyph name="endash" xMin="92" yMin="284" xMax="390" yMax="361">
      <contour>
        <pt x="379" y="284" on="1"/>
        <pt x="92" y="284" on="1"/>
        <pt x="103" y="361" on="1"/>
        <pt x="390" y="361" on="1"/>
      </contour>
    </TTGlyph>
    <TTGlyph name="equal" xMin="76" yMin="214" xMax="398" yMax="409">
      <contour>
        <pt x="386" y="332" on="1"/>
        <pt x="99" y="332" on="1"/>
        <pt x="111" y="409" on="1"/>
        <pt x="398" y="409" on="1"/>
      </contour>
      <contour>
        <pt x="363" y="214" on="1"/>
        <pt x="76" y="214" on="1"/>
        <pt x="88" y="291" on="1"/>
        <pt x="375" y="291" on="1"/>
      </contour>
    </TTGlyph>
    <TTGlyph name="eth" xMin="39" yMin="0" xMax="400" yMax="722">
      <contour>
        <pt x="220" y="418" on="1"/>
        <pt x="186" y="418" on="0"/>
        <pt x="164" y="352" on="1"/>
        <pt x="129" y="250" on="0"/>
        <pt x="129" y="122" on="1"/>
        <pt x="129" y="97" on="0"/>
        <pt x="151" y="79" on="0"/>
        <pt x="206" y="79" on="0"/>
        <pt x="245" y="129" on="0"/>
        <pt x="258" y="180" on="1"/>
        <pt x="278" y="256" on="0"/>
        <pt x="297" y="389" on="1"/>
        <pt x="236" y="415" on="1"/>
        <pt x="227" y="418" on="0"/>
      </contour>
      <contour>
        <pt x="305" y="531" on="1"/>
        <pt x="305" y="586" on="0"/>
        <pt x="272" y="639" on="0"/>
        <pt x="235" y="639" on="1"/>
        <pt x="248" y="722" on="1"/>
        <pt x="331" y="722" on="0"/>
        <pt x="400" y="629" on="0"/>
        <pt x="400" y="540" on="1"/>
        <pt x="400" y="420" on="0"/>
        <pt x="364" y="212" on="0"/>
        <pt x="318" y="89" on="0"/>
        <pt x="231" y="0" on="0"/>
        <pt x="173" y="0" on="1"/>
        <pt x="97" y="0" on="0"/>
        <pt x="39" y="44" on="0"/>
        <pt x="39" y="160" on="0"/>
        <pt x="54" y="285" on="0"/>
        <pt x="87" y="419" on="0"/>
        <pt x="154" y="505" on="0"/>
        <pt x="199" y="505" on="1"/>
        <pt x="222" y="505" on="0"/>
        <pt x="249" y="493" on="1"/>
        <pt x="304" y="468" on="1"/>
        <pt x="305" y="525" on="1"/>
        <pt x="305" y="528" on="0"/>
      </contour>
    </TTGlyph>
    <TTGlyph name="exclam" xMin="28" yMin="4" xMax="263" yMax="713">
      <contour>
        <pt x="115" y="117" on="0"/>
        <pt x="144" y="88" on="0"/>
        <pt x="144" y="41" on="0"/>
        <pt x="105" y="4" on="0"/>
        <pt x="57" y="4" on="0"/>
        <pt x="28" y="32" on="0"/>
        <pt x="28" y="77" on="0"/>
        <pt x="68" y="117" on="0"/>
      </contour>
      <contour>
        <pt x="121" y="176" on="1"/>
        <pt x="75" y="178" on="1"/>
        <pt x="158" y="661" on="1"/>
        <pt x="163" y="693" on="0"/>
        <pt x="185" y="713" on="0"/>
        <pt x="212" y="713" on="1"/>
        <pt x="263" y="711" on="1"/>
        <pt x="169" y="229" on="1"/>
        <pt x="163" y="196" on="0"/>
        <pt x="147" y="176" on="0"/>
      </contour>
    </TTGlyph>
    <TTGlyph name="exclamdown" xMin="-12" yMin="-169" xMax="211" yMax="542">
      <contour>
        <pt x="211" y="492" on="1"/>
        <pt x="211" y="483" on="1"/>
        <pt x="207" y="460" on="0"/>
        <pt x="169" y="427" on="0"/>
        <pt x="124" y="427" on="0"/>
        <pt x="95" y="457" on="0"/>
        <pt x="95" y="503" on="0"/>
        <pt x="135" y="542" on="0"/>
        <pt x="182" y="542" on="0"/>
        <pt x="211" y="514" on="0"/>
      </contour>
      <contour>
        <pt x="-12" y="-169" on="1"/>
        <pt x="84" y="313" on="1"/>
        <pt x="92" y="354" on="0"/>
        <pt x="114" y="367" on="0"/>
        <pt x="175" y="368" on="1"/>
        <pt x="90" y="-114" on="1"/>
        <pt x="83" y="-150" on="0"/>
        <pt x="47" y="-169" on="0"/>
      </contour>
    </TTGlyph>
    <TTGlyph name="f" xMin="-81" yMin="-189" xMax="352" yMax="721">
      <contour>
        <pt x="-81" y="-189" on="1"/>
        <pt x="-70" y="-119" on="1"/>
        <pt x="-4" y="-119" on="0"/>
        <pt x="43" y="-56" on="0"/>
        <pt x="54" y="16" on="1"/>
        <pt x="119" y="433" on="1"/>
        <pt x="129" y="457" on="1"/>
        <pt x="76" y="457" on="1"/>
        <pt x="89" y="537" on="1"/>
        <pt x="144" y="537" on="1"/>
        <pt x="139" y="564" on="1"/>
        <pt x="156" y="669" on="0"/>
        <pt x="184" y="689" on="1"/>
        <pt x="218" y="714" on="0"/>
        <pt x="305" y="721" on="0"/>
        <pt x="352" y="721" on="1"/>
        <pt x="342" y="648" on="1"/>
        <pt x="270" y="648" on="0"/>
        <pt x="251" y="635" on="1"/>
        <pt x="237" y="625" on="0"/>
        <pt x="228" y="582" on="0"/>
        <pt x="224" y="558" on="1"/>
        <pt x="212" y="537" on="1"/>
        <pt x="302" y="537" on="1"/>
        <pt x="289" y="457" on="1"/>
        <pt x="197" y="457" on="1"/>
        <pt x="203" y="436" on="1"/>
        <pt x="136" y="12" on="1"/>
        <pt x="120" y="-83" on="0"/>
        <pt x="101" y="-112" on="1"/>
        <pt x="72" y="-155" on="0"/>
        <pt x="45" y="-166" on="1"/>
        <pt x="-10" y="-189" on="0"/>
      </contour>
    </TTGlyph>
    <TTGlyph name="f_f_i" xMin="-81" yMin="-189" xMax="655" yMax="721">
      <contour>
        <pt x="563" y="721" on="1"/>
        <pt x="655" y="721" on="1"/>
        <pt x="645" y="648" on="1"/>
        <pt x="553" y="648" on="1"/>
        <pt x="482" y="648" on="0"/>
        <pt x="462" y="635" on="1"/>
        <pt x="448" y="625" on="0"/>
        <pt x="439" y="582" on="0"/>
        <pt x="435" y="558" on="1"/>
        <pt x="423" y="537" on="1"/>
        <pt x="564" y="537" on="1"/>
        <pt x="630" y="537" on="0"/>
        <pt x="638" y="527" on="1"/>
        <pt x="642" y="522" on="0"/>
        <pt x="642" y="513" on="0"/>
        <pt x="636" y="477" on="1"/>
        <pt x="562" y="-4" on="1"/>
        <pt x="493" y="-4" on="0"/>
        <pt x="486" y="6" on="1"/>
        <pt x="482" y="10" on="0"/>
        <pt x="482" y="24" on="0"/>
        <pt x="483" y="27" on="1"/>
        <pt x="550" y="457" on="1"/>
        <pt x="408" y="457" on="1"/>
        <pt x="414" y="436" on="1"/>
        <pt x="347" y="12" on="1"/>
        <pt x="331" y="-83" on="0"/>
        <pt x="312" y="-112" on="1"/>
        <pt x="283" y="-155" on="0"/>
        <pt x="256" y="-166" on="1"/>
        <pt x="201" y="-189" on="0"/>
        <pt x="130" y="-189" on="1"/>
        <pt x="141" y="-119" on="1"/>
        <pt x="207" y="-119" on="0"/>
        <pt x="254" y="-56" on="0"/>
        <pt x="265" y="16" on="1"/>
        <pt x="330" y="433" on="1"/>
        <pt x="340" y="457" on="1"/>
        <pt x="197" y="457" on="1"/>
        <pt x="203" y="436" on="1"/>
        <pt x="136" y="12" on="1"/>
        <pt x="120" y="-83" on="0"/>
        <pt x="101" y="-112" on="1"/>
        <pt x="72" y="-155" on="0"/>
        <pt x="45" y="-166" on="1"/>
        <pt x="-10" y="-189" on="0"/>
        <pt x="-81" y="-189" on="1"/>
        <pt x="-70" y="-119" on="1"/>
        <pt x="-4" y="-119" on="0"/>
        <pt x="43" y="-56" on="0"/>
        <pt x="54" y="16" on="1"/>
        <pt x="119" y="433" on="1"/>
        <pt x="129" y="457" on="1"/>
        <pt x="76" y="457" on="1"/>
        <pt x="89" y="537" on="1"/>
        <pt x="144" y="537" on="1"/>
        <pt x="139" y="564" on="1"/>
        <pt x="145" y="600" on="0"/>
        <pt x="152" y="637" on="0"/>
        <pt x="170" y="680" on="0"/>
        <pt x="194" y="698" on="0"/>
        <pt x="216" y="707" on="1"/>
        <pt x="250" y="721" on="0"/>
        <pt x="342" y="721" on="1"/>
        <pt x="332" y="648" on="1"/>
        <pt x="265" y="648" on="0"/>
        <pt x="235" y="622" on="0"/>
        <pt x="224" y="558" on="1"/>
        <pt x="212" y="537" on="1"/>
        <pt x="355" y="537" on="1"/>
        <pt x="350" y="564" on="1"/>
        <pt x="367" y="669" on="0"/>
        <pt x="394" y="689" on="1"/>
        <pt x="429" y="714" on="0"/>
        <pt x="516" y="721" on="0"/>
      </contour>
    </TTGlyph>
    <TTGlyph name="f_t" xMin="-81" yMin="-189" xMax="492" yMax="721">
      <contour>
        <pt x="255" y="62" on="1"/>
        <pt x="255" y="68" on="0"/>
        <pt x="309" y="453" on="1"/>
        <pt x="311" y="457" on="1"/>
        <pt x="273" y="457" on="1"/>
        <pt x="286" y="537" on="1"/>
        <pt x="325" y="537" on="1"/>
        <pt x="338" y="648" on="1"/>
        <pt x="288" y="648" on="0"/>
        <pt x="248" y="636" on="0"/>
        <pt x="232" y="604" on="0"/>
        <pt x="224" y="558" on="1"/>
        <pt x="136" y="12" on="1"/>
        <pt x="120" y="-83" on="0"/>
        <pt x="101" y="-112" on="1"/>
        <pt x="72" y="-155" on="0"/>
        <pt x="45" y="-166" on="1"/>
        <pt x="-10" y="-189" on="0"/>
        <pt x="-81" y="-189" on="1"/>
        <pt x="-70" y="-119" on="1"/>
        <pt x="-4" y="-119" on="0"/>
        <pt x="43" y="-56" on="0"/>
        <pt x="54" y="16" on="1"/>
        <pt x="119" y="433" on="1"/>
        <pt x="129" y="457" on="1"/>
        <pt x="76" y="457" on="1"/>
        <pt x="89" y="537" on="1"/>
        <pt x="144" y="537" on="1"/>
        <pt x="139" y="564" on="1"/>
        <pt x="150" y="630" on="0"/>
        <pt x="171" y="680" on="0"/>
        <pt x="196" y="697" on="0"/>
        <pt x="218" y="706" on="1"/>
        <pt x="256" y="721" on="0"/>
        <pt x="401" y="721" on="0"/>
        <pt x="429" y="712" on="0"/>
        <pt x="429" y="689" on="1"/>
        <pt x="422" y="655" on="1"/>
        <pt x="406" y="537" on="1"/>
        <pt x="492" y="537" on="1"/>
        <pt x="483" y="483" on="0"/>
        <pt x="462" y="457" on="0"/>
        <pt x="421" y="457" on="1"/>
        <pt x="393" y="457" on="1"/>
        <pt x="393" y="446" on="1"/>
        <pt x="341" y="96" on="0"/>
        <pt x="341" y="90" on="1"/>
        <pt x="341" y="72" on="0"/>
        <pt x="355" y="72" on="1"/>
        <pt x="436" y="72" on="1"/>
        <pt x="425" y="1" on="1"/>
        <pt x="347" y="-5" on="1"/>
        <pt x="255" y="-5" on="0"/>
      </contour>
    </TTGlyph>
    <TTGlyph name="f_u" xMin="-81" yMin="-189" xMax="581" yMax="721">
      <contour>
        <pt x="581" y="514" on="1"/>
        <pt x="502" y="0" on="1"/>
        <pt x="450" y="0" on="0"/>
        <pt x="422" y="9" on="0"/>
        <pt x="422" y="31" on="1"/>
        <pt x="423" y="41" on="1"/>
        <pt x="349" y="-7" on="1"/>
        <pt x="233" y="-7" on="0"/>
        <pt x="233" y="80" on="1"/>
        <pt x="233" y="88" on="0"/>
        <pt x="285" y="457" on="1"/>
        <pt x="197" y="457" on="1"/>
        <pt x="203" y="436" on="1"/>
        <pt x="136" y="12" on="1"/>
        <pt x="120" y="-83" on="0"/>
        <pt x="101" y="-112" on="1"/>
        <pt x="72" y="-155" on="0"/>
        <pt x="45" y="-166" on="1"/>
        <pt x="-10" y="-189" on="0"/>
        <pt x="-81" y="-189" on="1"/>
        <pt x="-70" y="-119" on="1"/>
        <pt x="-4" y="-119" on="0"/>
        <pt x="43" y="-56" on="0"/>
        <pt x="54" y="16" on="1"/>
        <pt x="119" y="433" on="1"/>
        <pt x="129" y="457" on="1"/>
        <pt x="76" y="457" on="1"/>
        <pt x="89" y="537" on="1"/>
        <pt x="144" y="537" on="1"/>
        <pt x="139" y="564" on="1"/>
        <pt x="156" y="669" on="0"/>
        <pt x="184" y="689" on="1"/>
        <pt x="218" y="714" on="0"/>
        <pt x="305" y="721" on="0"/>
        <pt x="352" y="721" on="1"/>
        <pt x="342" y="648" on="1"/>
        <pt x="270" y="648" on="0"/>
        <pt x="251" y="635" on="1"/>
        <pt x="237" y="625" on="0"/>
        <pt x="228" y="582" on="0"/>
        <pt x="224" y="558" on="1"/>
        <pt x="212" y="537" on="1"/>
        <pt x="302" y="537" on="1"/>
        <pt x="346" y="537" on="0"/>
        <pt x="376" y="529" on="0"/>
        <pt x="376" y="513" on="1"/>
        <pt x="321" y="109" on="1"/>
        <pt x="321" y="72" on="0"/>
        <pt x="347" y="72" on="1"/>
        <pt x="439" y="128" on="1"/>
        <pt x="439" y="145" on="1"/>
        <pt x="502" y="537" on="1"/>
        <pt x="569" y="537" on="0"/>
        <pt x="577" y="528" on="1"/>
        <pt x="581" y="523" on="0"/>
      </contour>
    </TTGlyph>
    <TTGlyph name="ff" xMin="-81" yMin="-189" xMax="562" yMax="721">
      <contour>
        <pt x="129" y="-189" on="1"/>
        <pt x="140" y="-119" on="1"/>
        <pt x="206" y="-119" on="0"/>
        <pt x="253" y="-56" on="0"/>
        <pt x="264" y="16" on="1"/>
        <pt x="329" y="433" on="1"/>
        <pt x="339" y="457" on="1"/>
        <pt x="197" y="457" on="1"/>
        <pt x="203" y="436" on="1"/>
        <pt x="136" y="12" on="1"/>
        <pt x="120" y="-83" on="0"/>
        <pt x="101" y="-112" on="1"/>
        <pt x="72" y="-155" on="0"/>
        <pt x="45" y="-166" on="1"/>
        <pt x="-10" y="-189" on="0"/>
        <pt x="-81" y="-189" on="1"/>
        <pt x="-70" y="-119" on="1"/>
        <pt x="-4" y="-119" on="0"/>
        <pt x="43" y="-56" on="0"/>
        <pt x="54" y="16" on="1"/>
        <pt x="119" y="433" on="1"/>
        <pt x="129" y="457" on="1"/>
        <pt x="76" y="457" on="1"/>
        <pt x="89" y="537" on="1"/>
        <pt x="144" y="537" on="1"/>
        <pt x="139" y="564" on="1"/>
        <pt x="145" y="600" on="0"/>
        <pt x="152" y="637" on="0"/>
        <pt x="170" y="680" on="0"/>
        <pt x="194" y="698" on="0"/>
        <pt x="216" y="707" on="1"/>
        <pt x="250" y="721" on="0"/>
        <pt x="342" y="721" on="1"/>
        <pt x="332" y="648" on="1"/>
        <pt x="269" y="648" on="0"/>
        <pt x="255" y="638" on="0"/>
        <pt x="245" y="633" on="0"/>
        <pt x="239" y="614" on="0"/>
        <pt x="235" y="602" on="0"/>
        <pt x="231" y="586" on="1"/>
        <pt x="224" y="558" on="1"/>
        <pt x="212" y="537" on="1"/>
        <pt x="354" y="537" on="1"/>
        <pt x="349" y="564" on="1"/>
        <pt x="366" y="669" on="0"/>
        <pt x="394" y="689" on="1"/>
        <pt x="428" y="714" on="0"/>
        <pt x="515" y="721" on="0"/>
        <pt x="562" y="721" on="1"/>
        <pt x="552" y="648" on="1"/>
        <pt x="480" y="648" on="0"/>
        <pt x="461" y="635" on="1"/>
        <pt x="447" y="625" on="0"/>
        <pt x="438" y="582" on="0"/>
        <pt x="434" y="558" on="1"/>
        <pt x="422" y="537" on="1"/>
        <pt x="512" y="537" on="1"/>
        <pt x="499" y="457" on="1"/>
        <pt x="407" y="457" on="1"/>
        <pt x="413" y="436" on="1"/>
        <pt x="346" y="12" on="1"/>
        <pt x="330" y="-83" on="0"/>
        <pt x="311" y="-112" on="1"/>
        <pt x="282" y="-155" on="0"/>
        <pt x="255" y="-166" on="1"/>
        <pt x="200" y="-189" on="0"/>
      </contour>
    </TTGlyph>
    <TTGlyph name="ffl" xMin="-81" yMin="-189" xMax="704" yMax="721">
      <contour>
        <pt x="519" y="6" on="1"/>
        <pt x="516" y="10" on="0"/>
        <pt x="516" y="25" on="0"/>
        <pt x="613" y="648" on="1"/>
        <pt x="553" y="648" on="1"/>
        <pt x="482" y="648" on="0"/>
        <pt x="449" y="622" on="0"/>
        <pt x="438" y="558" on="1"/>
        <pt x="426" y="537" on="1"/>
        <pt x="516" y="537" on="1"/>
        <pt x="503" y="457" on="1"/>
        <pt x="411" y="457" on="1"/>
        <pt x="417" y="436" on="1"/>
        <pt x="350" y="12" on="1"/>
        <pt x="334" y="-83" on="0"/>
        <pt x="315" y="-112" on="1"/>
        <pt x="286" y="-155" on="0"/>
        <pt x="259" y="-166" on="1"/>
        <pt x="204" y="-189" on="0"/>
        <pt x="133" y="-189" on="1"/>
        <pt x="144" y="-119" on="1"/>
        <pt x="210" y="-119" on="0"/>
        <pt x="257" y="-56" on="0"/>
        <pt x="268" y="16" on="1"/>
        <pt x="333" y="433" on="1"/>
        <pt x="343" y="457" on="1"/>
        <pt x="197" y="457" on="1"/>
        <pt x="203" y="436" on="1"/>
        <pt x="136" y="12" on="1"/>
        <pt x="120" y="-83" on="0"/>
        <pt x="101" y="-112" on="1"/>
        <pt x="72" y="-155" on="0"/>
        <pt x="45" y="-166" on="1"/>
        <pt x="-10" y="-189" on="0"/>
        <pt x="-81" y="-189" on="1"/>
        <pt x="-70" y="-119" on="1"/>
        <pt x="-4" y="-119" on="0"/>
        <pt x="43" y="-56" on="0"/>
        <pt x="54" y="16" on="1"/>
        <pt x="119" y="433" on="1"/>
        <pt x="129" y="457" on="1"/>
        <pt x="76" y="457" on="1"/>
        <pt x="89" y="537" on="1"/>
        <pt x="144" y="537" on="1"/>
        <pt x="139" y="564" on="1"/>
        <pt x="156" y="669" on="0"/>
        <pt x="184" y="689" on="1"/>
        <pt x="218" y="714" on="0"/>
        <pt x="305" y="721" on="0"/>
        <pt x="352" y="721" on="1"/>
        <pt x="342" y="648" on="1"/>
        <pt x="270" y="648" on="0"/>
        <pt x="251" y="635" on="1"/>
        <pt x="237" y="625" on="0"/>
        <pt x="228" y="582" on="0"/>
        <pt x="224" y="558" on="1"/>
        <pt x="212" y="537" on="1"/>
        <pt x="358" y="537" on="1"/>
        <pt x="353" y="564" on="1"/>
        <pt x="364" y="630" on="0"/>
        <pt x="385" y="680" on="0"/>
        <pt x="410" y="697" on="0"/>
        <pt x="432" y="706" on="1"/>
        <pt x="470" y="721" on="0"/>
        <pt x="563" y="721" on="1"/>
        <pt x="625" y="721" on="1"/>
        <pt x="692" y="721" on="0"/>
        <pt x="700" y="710" on="1"/>
        <pt x="704" y="705" on="0"/>
        <pt x="704" y="695" on="0"/>
        <pt x="670" y="477" on="0"/>
        <pt x="597" y="9" on="1"/>
        <pt x="583" y="-4" on="1"/>
        <pt x="525" y="-4" on="0"/>
      </contour>
    </TTGlyph>
    <TTGlyph name="fi" xMin="-81" yMin="-189" xMax="451" yMax="721">
      <contour>
        <pt x="352" y="721" on="1"/>
        <pt x="451" y="721" on="1"/>
        <pt x="434" y="648" on="1"/>
        <pt x="342" y="648" on="1"/>
        <pt x="270" y="648" on="0"/>
        <pt x="251" y="635" on="1"/>
        <pt x="237" y="625" on="0"/>
        <pt x="228" y="582" on="0"/>
        <pt x="224" y="558" on="1"/>
        <pt x="212" y="537" on="1"/>
        <pt x="302" y="537" on="1"/>
        <pt x="289" y="457" on="1"/>
        <pt x="197" y="457" on="1"/>
        <pt x="203" y="436" on="1"/>
        <pt x="136" y="12" on="1"/>
        <pt x="120" y="-83" on="0"/>
        <pt x="101" y="-112" on="1"/>
        <pt x="72" y="-155" on="0"/>
        <pt x="45" y="-166" on="1"/>
        <pt x="-10" y="-189" on="0"/>
        <pt x="-81" y="-189" on="1"/>
        <pt x="-70" y="-119" on="1"/>
        <pt x="-4" y="-119" on="0"/>
        <pt x="43" y="-56" on="0"/>
        <pt x="54" y="16" on="1"/>
        <pt x="119" y="433" on="1"/>
        <pt x="129" y="457" on="1"/>
        <pt x="76" y="457" on="1"/>
        <pt x="89" y="537" on="1"/>
        <pt x="144" y="537" on="1"/>
        <pt x="139" y="564" on="1"/>
        <pt x="156" y="669" on="0"/>
        <pt x="184" y="689" on="1"/>
        <pt x="218" y="714" on="0"/>
        <pt x="305" y="721" on="0"/>
      </contour>
      <contour>
        <pt x="418" y="514" on="1"/>
        <pt x="338" y="-4" on="1"/>
        <pt x="269" y="-4" on="0"/>
        <pt x="262" y="6" on="1"/>
        <pt x="258" y="10" on="0"/>
        <pt x="258" y="24" on="0"/>
        <pt x="259" y="27" on="1"/>
        <pt x="339" y="537" on="1"/>
        <pt x="406" y="537" on="0"/>
        <pt x="414" y="528" on="1"/>
        <pt x="418" y="523" on="0"/>
      </contour>
    </TTGlyph>
    <TTGlyph name="five" xMin="60" yMin="-8" xMax="428" yMax="710">
      <contour>
        <pt x="181" y="72" on="1"/>
        <pt x="211" y="72" on="0"/>
        <pt x="257" y="140" on="0"/>
        <pt x="268" y="190" on="1"/>
        <pt x="290" y="292" on="0"/>
        <pt x="290" y="367" on="1"/>
        <pt x="290" y="391" on="0"/>
        <pt x="268" y="408" on="0"/>
        <pt x="239" y="408" on="1"/>
        <pt x="124" y="408" on="1"/>
        <pt x="172" y="710" on="1"/>
        <pt x="428" y="710" on="1"/>
        <pt x="415" y="632" on="1"/>
        <pt x="237" y="632" on="1"/>
        <pt x="244" y="607" on="1"/>
        <pt x="229" y="506" on="1"/>
        <pt x="216" y="487" on="1"/>
        <pt x="276" y="487" on="1"/>
        <pt x="334" y="487" on="0"/>
        <pt x="380" y="442" on="0"/>
        <pt x="380" y="340" on="0"/>
        <pt x="372" y="246" on="0"/>
        <pt x="347" y="133" on="0"/>
        <pt x="307" y="49" on="0"/>
        <pt x="235" y="-8" on="0"/>
        <pt x="187" y="-8" on="1"/>
        <pt x="186" y="-8" on="0"/>
        <pt x="181" y="-8" on="1"/>
        <pt x="145" y="-4" on="0"/>
        <pt x="60" y="1" on="1"/>
        <pt x="70" y="72" on="1"/>
      </contour>
    </TTGlyph>
    <TTGlyph name="fl" xMin="-81" yMin="-189" xMax="473" yMax="721">
      <contour>
        <pt x="288" y="6" on="1"/>
        <pt x="285" y="10" on="0"/>
        <pt x="285" y="25" on="0"/>
        <pt x="382" y="648" on="1"/>
        <pt x="329" y="648" on="1"/>
        <pt x="265" y="647" on="0"/>
        <pt x="234" y="620" on="0"/>
        <pt x="224" y="558" on="1"/>
        <pt x="212" y="537" on="1"/>
        <pt x="302" y="537" on="1"/>
        <pt x="289" y="457" on="1"/>
        <pt x="197" y="457" on="1"/>
        <pt x="203" y="436" on="1"/>
        <pt x="136" y="12" on="1"/>
        <pt x="120" y="-83" on="0"/>
        <pt x="101" y="-112" on="1"/>
        <pt x="72" y="-155" on="0"/>
        <pt x="45" y="-166" on="1"/>
        <pt x="-10" y="-189" on="0"/>
        <pt x="-81" y="-189" on="1"/>
        <pt x="-70" y="-119" on="1"/>
        <pt x="-4" y="-119" on="0"/>
        <pt x="43" y="-56" on="0"/>
        <pt x="54" y="16" on="1"/>
        <pt x="119" y="433" on="1"/>
        <pt x="129" y="457" on="1"/>
        <pt x="76" y="457" on="1"/>
        <pt x="89" y="537" on="1"/>
        <pt x="144" y="537" on="1"/>
        <pt x="139" y="564" on="1"/>
        <pt x="156" y="669" on="0"/>
        <pt x="184" y="689" on="1"/>
        <pt x="218" y="714" on="0"/>
        <pt x="304" y="721" on="0"/>
        <pt x="351" y="721" on="1"/>
        <pt x="394" y="721" on="1"/>
        <pt x="461" y="721" on="0"/>
        <pt x="469" y="710" on="1"/>
        <pt x="473" y="705" on="0"/>
        <pt x="473" y="695" on="0"/>
        <pt x="439" y="477" on="0"/>
        <pt x="366" y="9" on="1"/>
        <pt x="352" y="-4" on="1"/>
        <pt x="294" y="-4" on="0"/>
      </contour>
    </TTGlyph>
    <TTGlyph name="florin" xMin="84" yMin="-104" xMax="360" yMax="540">
      <contour>
        <pt x="220" y="272" on="1"/>
        <pt x="220" y="260" on="1"/>
        <pt x="162" y="-104" on="1"/>
        <pt x="98" y="-104" on="0"/>
        <pt x="88" y="-90" on="1"/>
        <pt x="84" y="-84" on="0"/>
        <pt x="84" y="-66" on="0"/>
        <pt x="136" y="267" on="1"/>
        <pt x="138" y="272" on="1"/>
        <pt x="90" y="272" on="1"/>
        <pt x="104" y="351" on="1"/>
        <pt x="151" y="351" on="1"/>
        <pt x="151" y="364" on="1"/>
        <pt x="152" y="368" on="0"/>
        <pt x="162" y="431" on="0"/>
        <pt x="167" y="450" on="0"/>
        <pt x="185" y="499" on="0"/>
        <pt x="195" y="509" on="1"/>
        <pt x="224" y="538" on="0"/>
        <pt x="263" y="540" on="1"/>
        <pt x="360" y="536" on="1"/>
        <pt x="352" y="487" on="0"/>
        <pt x="334" y="469" on="0"/>
        <pt x="289" y="468" on="1"/>
        <pt x="263" y="467" on="1"/>
        <pt x="252" y="455" on="0"/>
        <pt x="239" y="372" on="1"/>
        <pt x="233" y="351" on="1"/>
        <pt x="326" y="351" on="1"/>
        <pt x="313" y="272" on="1"/>
      </contour>
    </TTGlyph>
    <TTGlyph name="four" xMin="60" yMin="0" xMax="432" yMax="710">
      <contour>
        <pt x="240" y="32" on="1"/>
        <pt x="267" y="214" on="1"/>
        <pt x="278" y="235" on="1"/>
        <pt x="60" y="235" on="1"/>
        <pt x="336" y="710" on="1"/>
        <pt x="432" y="710" on="1"/>
        <pt x="374" y="339" on="1"/>
        <pt x="364" y="313" on="1"/>
        <pt x="406" y="313" on="1"/>
        <pt x="394" y="235" on="1"/>
        <pt x="350" y="235" on="1"/>
        <pt x="352" y="214" on="1"/>
        <pt x="317" y="0" on="1"/>
        <pt x="267" y="0" on="0"/>
        <pt x="240" y="9" on="0"/>
      </contour>
      <contour>
        <pt x="292" y="313" on="1"/>
        <pt x="287" y="339" on="1"/>
        <pt x="318" y="538" on="1"/>
        <pt x="203" y="313" on="1"/>
      </contour>
    </TTGlyph>
    <TTGlyph name="fraction" xMin="-13" yMin="0" xMax="487" yMax="722">
      <contour>
        <pt x="84" y="0" on="1"/>
        <pt x="-13" y="0" on="1"/>
        <pt x="390" y="722" on="1"/>
        <pt x="487" y="722" on="1"/>
      </contour>
    </TTGlyph>
    <TTGlyph name="g" xMin="60" yMin="-189" xMax="412" yMax="545">
      <contour>
        <pt x="161" y="-189" on="1"/>
        <pt x="118" y="-189" on="1"/>
        <pt x="84" y="-189" on="0"/>
        <pt x="64" y="-182" on="0"/>
        <pt x="60" y="-169" on="0"/>
        <pt x="60" y="-156" on="1"/>
        <pt x="64" y="-117" on="1"/>
        <pt x="167" y="-110" on="1"/>
        <pt x="212" y="-110" on="0"/>
        <pt x="233" y="-85" on="0"/>
        <pt x="242" y="-34" on="1"/>
        <pt x="252" y="26" on="1"/>
        <pt x="194" y="-7" on="1"/>
        <pt x="123" y="-7" on="0"/>
        <pt x="68" y="49" on="0"/>
        <pt x="68" y="178" on="0"/>
        <pt x="77" y="246" on="1"/>
        <pt x="102" y="434" on="0"/>
        <pt x="170" y="505" on="1"/>
        <pt x="209" y="545" on="0"/>
        <pt x="259" y="545" on="1"/>
        <pt x="265" y="545" on="0"/>
        <pt x="271" y="544" on="1"/>
        <pt x="346" y="537" on="1"/>
        <pt x="389" y="537" on="0"/>
        <pt x="412" y="529" on="0"/>
        <pt x="412" y="514" on="1"/>
        <pt x="412" y="510" on="0"/>
        <pt x="411" y="506" on="1"/>
        <pt x="324" y="-52" on="1"/>
        <pt x="312" y="-131" on="0"/>
        <pt x="251" y="-189" on="0"/>
      </contour>
      <contour>
        <pt x="267" y="465" on="1"/>
        <pt x="230" y="465" on="0"/>
        <pt x="174" y="326" on="0"/>
        <pt x="154" y="183" on="0"/>
        <pt x="154" y="103" on="0"/>
        <pt x="175" y="73" on="0"/>
        <pt x="199" y="72" on="1"/>
        <pt x="269" y="108" on="1"/>
        <pt x="267" y="126" on="1"/>
        <pt x="319" y="457" on="1"/>
        <pt x="322" y="465" on="1"/>
      </contour>
    </TTGlyph>
    <TTGlyph name="germandbls" xMin="46" yMin="-7" xMax="502" yMax="721">
      <contour>
        <pt x="345" y="79" on="1"/>
        <pt x="379" y="79" on="0"/>
        <pt x="409" y="132" on="0"/>
        <pt x="409" y="172" on="1"/>
        <pt x="409" y="201" on="0"/>
        <pt x="336" y="260" on="1"/>
        <pt x="308" y="282" on="0"/>
        <pt x="262" y="350" on="0"/>
        <pt x="262" y="411" on="0"/>
        <pt x="274" y="463" on="0"/>
        <pt x="300" y="511" on="0"/>
        <pt x="350" y="540" on="0"/>
        <pt x="384" y="540" on="1"/>
        <pt x="389" y="540" on="0"/>
        <pt x="392" y="544" on="1"/>
        <pt x="399" y="555" on="0"/>
        <pt x="410" y="623" on="1"/>
        <pt x="410" y="627" on="1"/>
        <pt x="410" y="643" on="0"/>
        <pt x="360" y="643" on="1"/>
        <pt x="315" y="643" on="1"/>
        <pt x="258" y="643" on="0"/>
        <pt x="233" y="620" on="0"/>
        <pt x="223" y="559" on="1"/>
        <pt x="145" y="67" on="1"/>
        <pt x="138" y="22" on="0"/>
        <pt x="107" y="0" on="0"/>
        <pt x="46" y="0" on="1"/>
        <pt x="136" y="563" on="1"/>
        <pt x="150" y="657" on="0"/>
        <pt x="162" y="677" on="1"/>
        <pt x="181" y="705" on="0"/>
        <pt x="209" y="712" on="0"/>
        <pt x="229" y="716" on="1"/>
        <pt x="254" y="721" on="0"/>
        <pt x="323" y="721" on="1"/>
        <pt x="373" y="721" on="1"/>
        <pt x="448" y="721" on="0"/>
        <pt x="481" y="681" on="1"/>
        <pt x="494" y="665" on="0"/>
        <pt x="494" y="643" on="1"/>
        <pt x="494" y="509" on="0"/>
        <pt x="443" y="476" on="1"/>
        <pt x="419" y="460" on="0"/>
        <pt x="386" y="460" on="1"/>
        <pt x="348" y="460" on="0"/>
        <pt x="348" y="393" on="1"/>
        <pt x="348" y="363" on="0"/>
        <pt x="425" y="304" on="1"/>
        <pt x="454" y="281" on="0"/>
        <pt x="502" y="210" on="0"/>
        <pt x="502" y="174" on="1"/>
        <pt x="502" y="0" on="0"/>
        <pt x="333" y="-7" on="1"/>
        <pt x="203" y="1" on="1"/>
        <pt x="214" y="79" on="1"/>
      </contour>
    </TTGlyph>
    <TTGlyph name="grave" xMin="99" yMin="550" xMax="267" yMax="722">
      <contour>
        <pt x="116" y="695" on="1"/>
        <pt x="146" y="722" on="0"/>
        <pt x="176" y="722" on="0"/>
        <pt x="207" y="685" on="1"/>
        <pt x="267" y="602" on="1"/>
        <pt x="209" y="550" on="1"/>
        <pt x="99" y="680" on="1"/>
      </contour>
    </TTGlyph>
    <TTGlyph name="greater" xMin="20" yMin="54" xMax="280" yMax="537">
      <contour>
        <pt x="108" y="54" on="1"/>
        <pt x="20" y="54" on="1"/>
        <pt x="200" y="301" on="1"/>
        <pt x="100" y="537" on="1"/>
        <pt x="182" y="537" on="1"/>
        <pt x="280" y="313" on="1"/>
        <pt x="275" y="282" on="1"/>
      </contour>
    </TTGlyph>
    <TTGlyph name="greaterequal" xMin="24" yMin="81" xMax="275" yMax="506">
      <contour>
        <pt x="123" y="154" on="1"/>
        <pt x="35" y="154" on="1"/>
        <pt x="195" y="342" on="1"/>
        <pt x="95" y="506" on="1"/>
        <pt x="177" y="506" on="1"/>
        <pt x="275" y="354" on="1"/>
        <pt x="270" y="323" on="1"/>
      </contour>
      <contour>
        <pt x="255" y="81" on="1"/>
        <pt x="24" y="81" on="1"/>
        <pt x="35" y="154" on="1"/>
        <pt x="266" y="154" on="1"/>
      </contour>
    </TTGlyph>
    <TTGlyph name="guillemotleft" xMin="37" yMin="128" xMax="360" yMax="474">
      <contour>
        <pt x="166" y="128" on="1"/>
        <pt x="85" y="128" on="1"/>
        <pt x="37" y="288" on="1"/>
        <pt x="41" y="318" on="1"/>
        <pt x="138" y="474" on="1"/>
        <pt x="223" y="474" on="1"/>
        <pt x="115" y="297" on="1"/>
      </contour>
      <contour>
        <pt x="303" y="128" on="1"/>
        <pt x="222" y="128" on="1"/>
        <pt x="174" y="288" on="1"/>
        <pt x="178" y="318" on="1"/>
        <pt x="275" y="474" on="1"/>
        <pt x="360" y="474" on="1"/>
        <pt x="252" y="297" on="1"/>
      </contour>
    </TTGlyph>
    <TTGlyph name="guillemotright" xMin="9" yMin="128" xMax="339" yMax="474">
      <contour>
        <pt x="240" y="128" on="1"/>
        <pt x="154" y="128" on="1"/>
        <pt x="261" y="304" on="1"/>
        <pt x="212" y="474" on="1"/>
        <pt x="291" y="474" on="1"/>
        <pt x="339" y="313" on="1"/>
        <pt x="335" y="283" on="1"/>
      </contour>
      <contour>
        <pt x="95" y="128" on="1"/>
        <pt x="9" y="128" on="1"/>
        <pt x="116" y="304" on="1"/>
        <pt x="67" y="474" on="1"/>
        <pt x="146" y="474" on="1"/>
        <pt x="194" y="313" on="1"/>
        <pt x="190" y="283" on="1"/>
      </contour>
    </TTGlyph>
    <TTGlyph name="guilsinglleft" xMin="49" yMin="128" xMax="235" yMax="474">
      <contour>
        <pt x="178" y="128" on="1"/>
        <pt x="97" y="128" on="1"/>
        <pt x="49" y="288" on="1"/>
        <pt x="53" y="318" on="1"/>
        <pt x="150" y="474" on="1"/>
        <pt x="235" y="474" on="1"/>
        <pt x="127" y="297" on="1"/>
      </contour>
    </TTGlyph>
    <TTGlyph name="guilsinglright" xMin="38" yMin="128" xMax="222" yMax="474">
      <contour>
        <pt x="124" y="128" on="1"/>
        <pt x="38" y="128" on="1"/>
        <pt x="145" y="304" on="1"/>
        <pt x="95" y="474" on="1"/>
        <pt x="175" y="474" on="1"/>
        <pt x="222" y="313" on="1"/>
        <pt x="219" y="283" on="1"/>
      </contour>
    </TTGlyph>
    <TTGlyph name="h" xMin="46" yMin="0" xMax="399" yMax="722">
      <contour>
        <pt x="238" y="697" on="1"/>
        <pt x="215" y="544" on="1"/>
        <pt x="289" y="544" on="1"/>
        <pt x="399" y="544" on="0"/>
        <pt x="399" y="459" on="1"/>
        <pt x="399" y="450" on="0"/>
        <pt x="335" y="0" on="1"/>
        <pt x="284" y="0" on="0"/>
        <pt x="257" y="10" on="0"/>
        <pt x="257" y="34" on="1"/>
        <pt x="311" y="418" on="0"/>
        <pt x="311" y="427" on="1"/>
        <pt x="311" y="465" on="0"/>
        <pt x="281" y="465" on="1"/>
        <pt x="195" y="465" on="1"/>
        <pt x="201" y="440" on="1"/>
        <pt x="139" y="56" on="1"/>
        <pt x="134" y="16" on="0"/>
        <pt x="107" y="0" on="0"/>
        <pt x="46" y="0" on="1"/>
        <pt x="159" y="722" on="1"/>
        <pt x="228" y="722" on="0"/>
        <pt x="234" y="712" on="1"/>
        <pt x="238" y="706" on="0"/>
      </contour>
    </TTGlyph>
    <TTGlyph name="hungarumlaut" xMin="112" yMin="549" xMax="468" yMax="722">
      <contour>
        <pt x="306" y="678" on="1"/>
        <pt x="157" y="549" on="1"/>
        <pt x="112" y="606" on="1"/>
        <pt x="203" y="692" on="1"/>
        <pt x="233" y="720" on="0"/>
        <pt x="251" y="722" on="1"/>
        <pt x="263" y="722" on="0"/>
        <pt x="285" y="700" on="1"/>
      </contour>
      <contour>
        <pt x="468" y="678" on="1"/>
        <pt x="319" y="549" on="1"/>
        <pt x="274" y="606" on="1"/>
        <pt x="365" y="692" on="1"/>
        <pt x="395" y="720" on="0"/>
        <pt x="413" y="722" on="1"/>
        <pt x="425" y="722" on="0"/>
        <pt x="447" y="700" on="1"/>
      </contour>
    </TTGlyph>
    <TTGlyph name="hyphen" xMin="91" yMin="284" xMax="333" yMax="361">
      <contour>
        <pt x="322" y="284" on="1"/>
        <pt x="91" y="284" on="1"/>
        <pt x="102" y="361" on="1"/>
        <pt x="333" y="361" on="1"/>
      </contour>
    </TTGlyph>
    <TTGlyph name="i" xMin="35" yMin="-4" xMax="228" yMax="710">
      <contour>
        <pt x="228" y="634" on="0"/>
        <pt x="193" y="596" on="0"/>
        <pt x="146" y="596" on="0"/>
        <pt x="122" y="624" on="0"/>
        <pt x="122" y="671" on="0"/>
        <pt x="157" y="710" on="0"/>
        <pt x="181" y="710" on="1"/>
        <pt x="228" y="710" on="0"/>
        <pt x="228" y="660" on="1"/>
      </contour>
      <contour>
        <pt x="195" y="514" on="1"/>
        <pt x="115" y="-4" on="1"/>
        <pt x="46" y="-4" on="0"/>
        <pt x="38" y="6" on="1"/>
        <pt x="35" y="10" on="0"/>
        <pt x="35" y="24" on="0"/>
        <pt x="36" y="27" on="1"/>
        <pt x="116" y="537" on="1"/>
        <pt x="183" y="537" on="0"/>
        <pt x="191" y="528" on="1"/>
        <pt x="195" y="523" on="0"/>
      </contour>
    </TTGlyph>
    <TTGlyph name="i_j" xMin="51" yMin="-189" xMax="441" yMax="710">
      <contour>
        <pt x="244" y="634" on="0"/>
        <pt x="209" y="596" on="0"/>
        <pt x="162" y="596" on="0"/>
        <pt x="138" y="624" on="0"/>
        <pt x="138" y="671" on="0"/>
        <pt x="173" y="710" on="0"/>
        <pt x="197" y="710" on="1"/>
        <pt x="244" y="710" on="0"/>
        <pt x="244" y="660" on="1"/>
      </contour>
      <contour>
        <pt x="211" y="514" on="1"/>
        <pt x="131" y="-4" on="1"/>
        <pt x="62" y="-4" on="0"/>
        <pt x="54" y="6" on="1"/>
        <pt x="51" y="10" on="0"/>
        <pt x="51" y="24" on="0"/>
        <pt x="52" y="27" on="1"/>
        <pt x="132" y="537" on="1"/>
        <pt x="199" y="537" on="0"/>
        <pt x="207" y="528" on="1"/>
        <pt x="211" y="523" on="0"/>
      </contour>
      <contour>
        <pt x="441" y="634" on="0"/>
        <pt x="406" y="596" on="0"/>
        <pt x="358" y="596" on="0"/>
        <pt x="334" y="624" on="0"/>
        <pt x="334" y="672" on="0"/>
        <pt x="370" y="710" on="0"/>
        <pt x="417" y="710" on="0"/>
        <pt x="441" y="683" on="0"/>
      </contour>
      <contour>
        <pt x="113" y="-189" on="1"/>
        <pt x="124" y="-119" on="1"/>
        <pt x="190" y="-119" on="0"/>
        <pt x="237" y="-56" on="0"/>
        <pt x="248" y="16" on="1"/>
        <pt x="330" y="537" on="1"/>
        <pt x="397" y="537" on="0"/>
        <pt x="404" y="528" on="1"/>
        <pt x="408" y="523" on="0"/>
        <pt x="408" y="515" on="1"/>
        <pt x="330" y="12" on="1"/>
        <pt x="324" y="-28" on="0"/>
        <pt x="314" y="-72" on="0"/>
        <pt x="285" y="-134" on="0"/>
        <pt x="264" y="-150" on="1"/>
        <pt x="210" y="-189" on="0"/>
      </contour>
    </TTGlyph>
    <TTGlyph name="iacute" xMin="64" yMin="-4" xMax="336" yMax="754">
      <contour>
        <pt x="224" y="514" on="1"/>
        <pt x="144" y="-4" on="1"/>
        <pt x="75" y="-4" on="0"/>
        <pt x="68" y="6" on="1"/>
        <pt x="64" y="10" on="0"/>
        <pt x="64" y="24" on="0"/>
        <pt x="144" y="537" on="1"/>
        <pt x="212" y="537" on="0"/>
        <pt x="220" y="528" on="1"/>
        <pt x="224" y="523" on="0"/>
      </contour>
      <contour>
        <pt x="267" y="754" on="0"/>
        <pt x="297" y="754" on="0"/>
        <pt x="331" y="716" on="1"/>
        <pt x="334" y="712" on="0"/>
        <pt x="336" y="710" on="1"/>
        <pt x="187" y="581" on="1"/>
        <pt x="142" y="638" on="1"/>
        <pt x="233" y="724" on="1"/>
      </contour>
    </TTGlyph>
    <TTGlyph name="icircumflex" xMin="79" yMin="-4" xMax="358" yMax="744">
      <contour>
        <pt x="238" y="513" on="1"/>
        <pt x="238" y="510" on="0"/>
        <pt x="238" y="506" on="1"/>
        <pt x="158" y="-4" on="1"/>
        <pt x="106" y="-4" on="0"/>
        <pt x="79" y="4" on="0"/>
        <pt x="79" y="20" on="1"/>
        <pt x="79" y="23" on="0"/>
        <pt x="80" y="27" on="1"/>
        <pt x="159" y="537" on="1"/>
        <pt x="211" y="537" on="0"/>
        <pt x="238" y="529" on="0"/>
      </contour>
      <contour>
        <pt x="344" y="597" on="1"/>
        <pt x="231" y="666" on="1"/>
        <pt x="92" y="595" on="1"/>
        <pt x="106" y="681" on="1"/>
        <pt x="224" y="744" on="1"/>
        <pt x="256" y="744" on="1"/>
        <pt x="358" y="679" on="1"/>
      </contour>
    </TTGlyph>
    <TTGlyph name="idieresis" xMin="96" yMin="-4" xMax="369" yMax="718">
      <contour>
        <pt x="256" y="513" on="1"/>
        <pt x="256" y="510" on="0"/>
        <pt x="255" y="506" on="1"/>
        <pt x="176" y="-4" on="1"/>
        <pt x="123" y="-4" on="0"/>
        <pt x="96" y="4" on="0"/>
        <pt x="96" y="20" on="1"/>
        <pt x="96" y="23" on="0"/>
        <pt x="97" y="27" on="1"/>
        <pt x="177" y="537" on="1"/>
        <pt x="228" y="537" on="0"/>
        <pt x="256" y="529" on="0"/>
      </contour>
      <contour>
        <pt x="233" y="643" on="0"/>
        <pt x="194" y="604" on="0"/>
        <pt x="147" y="604" on="0"/>
        <pt x="117" y="633" on="0"/>
        <pt x="117" y="679" on="0"/>
        <pt x="157" y="718" on="0"/>
        <pt x="205" y="718" on="0"/>
        <pt x="233" y="690" on="0"/>
      </contour>
      <contour>
        <pt x="340" y="718" on="0"/>
        <pt x="369" y="690" on="0"/>
        <pt x="369" y="643" on="0"/>
        <pt x="329" y="604" on="0"/>
        <pt x="282" y="604" on="0"/>
        <pt x="252" y="633" on="0"/>
        <pt x="252" y="679" on="0"/>
        <pt x="293" y="718" on="0"/>
      </contour>
    </TTGlyph>
    <TTGlyph name="igrave" xMin="60" yMin="-4" xMax="270" yMax="756">
      <contour>
        <pt x="220" y="514" on="1"/>
        <pt x="140" y="-4" on="1"/>
        <pt x="71" y="-4" on="0"/>
        <pt x="64" y="6" on="1"/>
        <pt x="60" y="10" on="0"/>
        <pt x="60" y="19" on="1"/>
        <pt x="141" y="537" on="1"/>
        <pt x="208" y="537" on="0"/>
        <pt x="216" y="528" on="1"/>
        <pt x="220" y="523" on="0"/>
      </contour>
      <contour>
        <pt x="119" y="729" on="1"/>
        <pt x="149" y="756" on="0"/>
        <pt x="179" y="756" on="0"/>
        <pt x="210" y="719" on="1"/>
        <pt x="270" y="636" on="1"/>
        <pt x="212" y="584" on="1"/>
        <pt x="102" y="714" on="1"/>
      </contour>
    </TTGlyph>
    <TTGlyph name="j" xMin="-90" yMin="-189" xMax="238" yMax="710">
      <contour>
        <pt x="238" y="634" on="0"/>
        <pt x="203" y="596" on="0"/>
        <pt x="155" y="596" on="0"/>
        <pt x="131" y="624" on="0"/>
        <pt x="131" y="672" on="0"/>
        <pt x="167" y="710" on="0"/>
        <pt x="214" y="710" on="0"/>
        <pt x="238" y="683" on="0"/>
      </contour>
      <contour>
        <pt x="-90" y="-189" on="1"/>
        <pt x="-79" y="-119" on="1"/>
        <pt x="-13" y="-119" on="0"/>
        <pt x="34" y="-56" on="0"/>
        <pt x="45" y="16" on="1"/>
        <pt x="127" y="537" on="1"/>
        <pt x="194" y="537" on="0"/>
        <pt x="202" y="528" on="1"/>
        <pt x="205" y="523" on="0"/>
        <pt x="205" y="515" on="1"/>
        <pt x="127" y="12" on="1"/>
        <pt x="121" y="-28" on="0"/>
        <pt x="111" y="-72" on="0"/>
        <pt x="82" y="-134" on="0"/>
        <pt x="61" y="-150" on="1"/>
        <pt x="7" y="-189" on="0"/>
      </contour>
    </TTGlyph>
    <TTGlyph name="k" xMin="57" yMin="0" xMax="455" yMax="722">
      <contour>
        <pt x="384" y="0" on="1"/>
        <pt x="293" y="0" on="1"/>
        <pt x="205" y="295" on="1"/>
        <pt x="363" y="537" on="1"/>
        <pt x="455" y="537" on="1"/>
        <pt x="293" y="289" on="1"/>
      </contour>
      <contour>
        <pt x="124" y="0" on="1"/>
        <pt x="80" y="0" on="0"/>
        <pt x="57" y="8" on="0"/>
        <pt x="57" y="27" on="0"/>
        <pt x="58" y="31" on="1"/>
        <pt x="165" y="722" on="1"/>
        <pt x="212" y="722" on="0"/>
        <pt x="240" y="715" on="0"/>
        <pt x="244" y="704" on="0"/>
        <pt x="244" y="694" on="0"/>
        <pt x="243" y="689" on="1"/>
        <pt x="138" y="12" on="1"/>
      </contour>
    </TTGlyph>
    <TTGlyph name="l" xMin="54" yMin="-4" xMax="242" yMax="722">
      <contour>
        <pt x="57" y="6" on="1"/>
        <pt x="54" y="10" on="0"/>
        <pt x="54" y="24" on="0"/>
        <pt x="163" y="722" on="1"/>
        <pt x="230" y="722" on="0"/>
        <pt x="238" y="712" on="1"/>
        <pt x="242" y="706" on="0"/>
        <pt x="242" y="696" on="0"/>
        <pt x="202" y="439" on="0"/>
        <pt x="135" y="9" on="1"/>
        <pt x="121" y="-4" on="1"/>
        <pt x="63" y="-4" on="0"/>
      </contour>
    </TTGlyph>
    <TTGlyph name="less" xMin="42" yMin="54" xMax="300" yMax="537">
      <contour>
        <pt x="222" y="54" on="1"/>
        <pt x="139" y="54" on="1"/>
        <pt x="42" y="285" on="1"/>
        <pt x="46" y="317" on="1"/>
        <pt x="214" y="537" on="1"/>
        <pt x="300" y="537" on="1"/>
        <pt x="121" y="297" on="1"/>
      </contour>
    </TTGlyph>
    <TTGlyph name="lessequal" xMin="50" yMin="80" xMax="350" yMax="518">
      <contour>
        <pt x="292" y="155" on="1"/>
        <pt x="209" y="155" on="1"/>
        <pt x="112" y="336" on="1"/>
        <pt x="116" y="368" on="1"/>
        <pt x="264" y="518" on="1"/>
        <pt x="350" y="518" on="1"/>
        <pt x="191" y="348" on="1"/>
      </contour>
      <contour>
        <pt x="281" y="80" on="1"/>
        <pt x="50" y="80" on="1"/>
        <pt x="61" y="155" on="1"/>
        <pt x="292" y="155" on="1"/>
      </contour>
    </TTGlyph>
    <TTGlyph name="logicalnot" xMin="61" yMin="210" xMax="355" yMax="365">
      <contour>
        <pt x="258" y="210" on="1"/>
        <pt x="269" y="286" on="1"/>
        <pt x="61" y="286" on="1"/>
        <pt x="74" y="365" on="1"/>
        <pt x="355" y="365" on="1"/>
        <pt x="340" y="272" on="1"/>
        <pt x="332" y="225" on="0"/>
        <pt x="312" y="210" on="0"/>
      </contour>
    </TTGlyph>
    <TTGlyph name="lslash" xMin="38" yMin="-4" xMax="336" yMax="722">
      <contour>
        <pt x="105" y="6" on="1"/>
        <pt x="102" y="10" on="0"/>
        <pt x="102" y="24" on="0"/>
        <pt x="211" y="722" on="1"/>
        <pt x="278" y="722" on="0"/>
        <pt x="286" y="712" on="1"/>
        <pt x="290" y="706" on="0"/>
        <pt x="290" y="696" on="0"/>
        <pt x="250" y="439" on="0"/>
        <pt x="183" y="9" on="1"/>
        <pt x="169" y="-4" on="1"/>
        <pt x="111" y="-4" on="0"/>
      </contour>
      <contour>
        <pt x="325" y="284" on="1"/>
        <pt x="38" y="284" on="1"/>
        <pt x="49" y="361" on="1"/>
        <pt x="336" y="361" on="1"/>
      </contour>
    </TTGlyph>
    <TTGlyph name="m" xMin="54" yMin="0" xMax="607" yMax="544">
      <contour>
        <pt x="258" y="23" on="1"/>
        <pt x="315" y="429" on="1"/>
        <pt x="315" y="465" on="0"/>
        <pt x="280" y="465" on="1"/>
        <pt x="196" y="418" on="1"/>
        <pt x="196" y="401" on="1"/>
        <pt x="134" y="0" on="1"/>
        <pt x="65" y="0" on="0"/>
        <pt x="58" y="10" on="1"/>
        <pt x="54" y="14" on="0"/>
        <pt x="54" y="28" on="0"/>
        <pt x="134" y="537" on="1"/>
        <pt x="137" y="537" on="0"/>
        <pt x="167" y="537" on="0"/>
        <pt x="189" y="534" on="0"/>
        <pt x="208" y="515" on="0"/>
        <pt x="208" y="495" on="1"/>
        <pt x="208" y="487" on="1"/>
        <pt x="217" y="493" on="0"/>
        <pt x="236" y="509" on="1"/>
        <pt x="276" y="544" on="0"/>
        <pt x="288" y="544" on="1"/>
        <pt x="332" y="544" on="0"/>
        <pt x="381" y="522" on="0"/>
        <pt x="393" y="498" on="0"/>
        <pt x="396" y="476" on="1"/>
        <pt x="407" y="502" on="0"/>
        <pt x="470" y="544" on="0"/>
        <pt x="490" y="544" on="1"/>
        <pt x="551" y="544" on="0"/>
        <pt x="607" y="515" on="0"/>
        <pt x="607" y="474" on="1"/>
        <pt x="607" y="467" on="0"/>
        <pt x="540" y="0" on="1"/>
        <pt x="471" y="0" on="0"/>
        <pt x="464" y="10" on="1"/>
        <pt x="460" y="14" on="0"/>
        <pt x="460" y="22" on="1"/>
        <pt x="466" y="78" on="0"/>
        <pt x="519" y="438" on="1"/>
        <pt x="519" y="465" on="0"/>
        <pt x="482" y="465" on="1"/>
        <pt x="470" y="465" on="0"/>
        <pt x="399" y="419" on="1"/>
        <pt x="399" y="401" on="1"/>
        <pt x="337" y="0" on="1"/>
        <pt x="269" y="0" on="0"/>
        <pt x="262" y="10" on="1"/>
        <pt x="258" y="14" on="0"/>
      </contour>
    </TTGlyph>
    <TTGlyph name="macron" xMin="147" yMin="634" xMax="392" yMax="710">
      <contour>
        <pt x="379" y="634" on="1"/>
        <pt x="147" y="634" on="1"/>
        <pt x="160" y="710" on="1"/>
        <pt x="392" y="710" on="1"/>
      </contour>
    </TTGlyph>
    <TTGlyph name="minus" xMin="91" yMin="284" xMax="333" yMax="361">
      <contour>
        <pt x="322" y="284" on="1"/>
        <pt x="91" y="284" on="1"/>
        <pt x="102" y="361" on="1"/>
        <pt x="333" y="361" on="1"/>
      </contour>
    </TTGlyph>
    <TTGlyph name="mu" xMin="17" yMin="-183" xMax="440" yMax="539">
      <contour>
        <pt x="210" y="507" on="1"/>
        <pt x="210" y="501" on="0"/>
        <pt x="148" y="111" on="1"/>
        <pt x="144" y="103" on="1"/>
        <pt x="216" y="74" on="1"/>
        <pt x="262" y="75" on="0"/>
        <pt x="303" y="217" on="0"/>
        <pt x="346" y="483" on="1"/>
        <pt x="353" y="525" on="0"/>
        <pt x="376" y="539" on="0"/>
        <pt x="440" y="539" on="1"/>
        <pt x="397" y="271" on="1"/>
        <pt x="373" y="121" on="0"/>
        <pt x="354" y="82" on="1"/>
        <pt x="327" y="28" on="0"/>
        <pt x="300" y="16" on="1"/>
        <pt x="258" y="-5" on="0"/>
        <pt x="203" y="-5" on="1"/>
        <pt x="132" y="25" on="1"/>
        <pt x="132" y="16" on="1"/>
        <pt x="109" y="-127" on="1"/>
        <pt x="104" y="-167" on="0"/>
        <pt x="78" y="-183" on="0"/>
        <pt x="17" y="-183" on="1"/>
        <pt x="131" y="539" on="1"/>
        <pt x="182" y="539" on="0"/>
        <pt x="210" y="530" on="0"/>
      </contour>
    </TTGlyph>
    <TTGlyph name="multiply" xMin="56" yMin="189" xMax="280" yMax="454">
      <contour>
        <pt x="214" y="189" on="1"/>
        <pt x="173" y="250" on="1"/>
        <pt x="167" y="267" on="1"/>
        <pt x="102" y="202" on="1"/>
        <pt x="56" y="265" on="1"/>
        <pt x="122" y="331" on="1"/>
        <pt x="106" y="341" on="1"/>
        <pt x="68" y="399" on="1"/>
        <pt x="122" y="454" on="1"/>
        <pt x="160" y="396" on="1"/>
        <pt x="168" y="377" on="1"/>
        <pt x="234" y="443" on="1"/>
        <pt x="280" y="380" on="1"/>
        <pt x="213" y="313" on="1"/>
        <pt x="229" y="303" on="1"/>
        <pt x="269" y="244" on="1"/>
      </contour>
    </TTGlyph>
    <TTGlyph name="n" xMin="52" yMin="0" xMax="401" yMax="544">
      <contour>
        <pt x="256" y="24" on="1"/>
        <pt x="314" y="429" on="1"/>
        <pt x="314" y="450" on="0"/>
        <pt x="299" y="465" on="0"/>
        <pt x="281" y="465" on="1"/>
        <pt x="196" y="420" on="1"/>
        <pt x="196" y="403" on="1"/>
        <pt x="131" y="0" on="1"/>
        <pt x="63" y="0" on="0"/>
        <pt x="56" y="10" on="1"/>
        <pt x="52" y="14" on="0"/>
        <pt x="52" y="28" on="0"/>
        <pt x="131" y="537" on="1"/>
        <pt x="154" y="537" on="1"/>
        <pt x="209" y="537" on="0"/>
        <pt x="211" y="506" on="1"/>
        <pt x="219" y="510" on="0"/>
        <pt x="233" y="520" on="1"/>
        <pt x="264" y="544" on="0"/>
        <pt x="286" y="544" on="1"/>
        <pt x="345" y="544" on="0"/>
        <pt x="401" y="512" on="0"/>
        <pt x="401" y="470" on="1"/>
        <pt x="401" y="462" on="0"/>
        <pt x="336" y="0" on="1"/>
        <pt x="287" y="0" on="0"/>
        <pt x="256" y="7" on="0"/>
      </contour>
    </TTGlyph>
    <TTGlyph name="nine" xMin="60" yMin="-2" xMax="433" yMax="722">
      <contour>
        <pt x="322" y="407" on="0"/>
        <pt x="346" y="576" on="0"/>
        <pt x="346" y="627" on="0"/>
        <pt x="330" y="643" on="0"/>
        <pt x="311" y="643" on="1"/>
        <pt x="274" y="643" on="0"/>
        <pt x="248" y="590" on="1"/>
        <pt x="202" y="498" on="0"/>
        <pt x="202" y="349" on="1"/>
        <pt x="202" y="325" on="0"/>
        <pt x="222" y="308" on="0"/>
        <pt x="249" y="307" on="1"/>
        <pt x="306" y="333" on="1"/>
      </contour>
      <contour>
        <pt x="197" y="82" on="1"/>
        <pt x="243" y="82" on="0"/>
        <pt x="285" y="247" on="1"/>
        <pt x="248" y="228" on="1"/>
        <pt x="169" y="228" on="0"/>
        <pt x="112" y="270" on="0"/>
        <pt x="112" y="328" on="1"/>
        <pt x="112" y="722" on="0"/>
        <pt x="318" y="722" on="1"/>
        <pt x="383" y="722" on="0"/>
        <pt x="433" y="679" on="0"/>
        <pt x="433" y="543" on="0"/>
        <pt x="407" y="345" on="0"/>
        <pt x="356" y="139" on="0"/>
        <pt x="264" y="-2" on="0"/>
        <pt x="206" y="-2" on="1"/>
        <pt x="203" y="-2" on="0"/>
        <pt x="125" y="5" on="0"/>
        <pt x="60" y="10" on="1"/>
        <pt x="71" y="82" on="1"/>
      </contour>
    </TTGlyph>
    <TTGlyph name="notequal" xMin="47" yMin="190" xMax="369" yMax="385">
      <contour>
        <pt x="357" y="308" on="1"/>
        <pt x="70" y="308" on="1"/>
        <pt x="82" y="385" on="1"/>
        <pt x="369" y="385" on="1"/>
      </contour>
      <contour>
        <pt x="334" y="190" on="1"/>
        <pt x="47" y="190" on="1"/>
        <pt x="59" y="267" on="1"/>
        <pt x="346" y="267" on="1"/>
      </contour>
    </TTGlyph>
    <TTGlyph name="ntilde" xMin="52" yMin="0" xMax="430" yMax="682">
      <component glyphName="n" x="0" y="0" flags="0x1004"/>
      <component glyphName="tilde" x="12" y="-28" flags="0x1004"/>
    </TTGlyph>
    <TTGlyph name="numbersign" xMin="24" yMin="0" xMax="725" yMax="722">
      <contour>
        <pt x="617" y="226" on="1"/>
        <pt x="448" y="226" on="1"/>
        <pt x="323" y="0" on="1"/>
        <pt x="226" y="0" on="1"/>
        <pt x="351" y="226" on="1"/>
        <pt x="246" y="226" on="1"/>
        <pt x="121" y="0" on="1"/>
        <pt x="24" y="0" on="1"/>
        <pt x="149" y="226" on="1"/>
        <pt x="50" y="226" on="1"/>
        <pt x="63" y="314" on="1"/>
        <pt x="199" y="314" on="1"/>
        <pt x="259" y="421" on="1"/>
        <pt x="122" y="421" on="1"/>
        <pt x="135" y="509" on="1"/>
        <pt x="309" y="509" on="1"/>
        <pt x="427" y="722" on="1"/>
        <pt x="524" y="722" on="1"/>
        <pt x="404" y="509" on="1"/>
        <pt x="510" y="509" on="1"/>
        <pt x="629" y="722" on="1"/>
        <pt x="725" y="722" on="1"/>
        <pt x="606" y="509" on="1"/>
        <pt x="703" y="509" on="1"/>
        <pt x="689" y="421" on="1"/>
        <pt x="558" y="421" on="1"/>
        <pt x="497" y="314" on="1"/>
        <pt x="631" y="314" on="1"/>
      </contour>
      <contour>
        <pt x="400" y="314" on="1"/>
        <pt x="461" y="421" on="1"/>
        <pt x="356" y="421" on="1"/>
        <pt x="295" y="314" on="1"/>
      </contour>
    </TTGlyph>
    <TTGlyph name="o" xMin="60" yMin="-7" xMax="386" yMax="544">
      <contour>
        <pt x="298" y="38" on="0"/>
        <pt x="227" y="-7" on="0"/>
        <pt x="113" y="-7" on="0"/>
        <pt x="60" y="45" on="0"/>
        <pt x="60" y="186" on="0"/>
        <pt x="78" y="327" on="0"/>
        <pt x="120" y="463" on="0"/>
        <pt x="205" y="544" on="0"/>
        <pt x="332" y="544" on="0"/>
        <pt x="386" y="493" on="0"/>
        <pt x="386" y="391" on="0"/>
        <pt x="382" y="316" on="0"/>
        <pt x="370" y="206" on="0"/>
        <pt x="341" y="119" on="0"/>
      </contour>
      <contour>
        <pt x="190" y="72" on="1"/>
        <pt x="223" y="72" on="0"/>
        <pt x="271" y="159" on="0"/>
        <pt x="281" y="222" on="1"/>
        <pt x="300" y="342" on="0"/>
        <pt x="300" y="413" on="1"/>
        <pt x="300" y="441" on="0"/>
        <pt x="280" y="465" on="0"/>
        <pt x="256" y="465" on="1"/>
        <pt x="220" y="465" on="0"/>
        <pt x="193" y="396" on="1"/>
        <pt x="146" y="277" on="0"/>
        <pt x="146" y="125" on="1"/>
        <pt x="146" y="97" on="0"/>
        <pt x="166" y="72" on="0"/>
      </contour>
    </TTGlyph>
    <TTGlyph name="o_t" xMin="60" yMin="-7" xMax="677" yMax="612">
      <contour>
        <pt x="578" y="453" on="1"/>
        <pt x="524" y="90" on="1"/>
        <pt x="524" y="72" on="0"/>
        <pt x="538" y="72" on="1"/>
        <pt x="619" y="72" on="1"/>
        <pt x="608" y="1" on="1"/>
        <pt x="530" y="-5" on="1"/>
        <pt x="438" y="-5" on="0"/>
        <pt x="438" y="62" on="1"/>
        <pt x="438" y="67" on="0"/>
        <pt x="494" y="461" on="1"/>
        <pt x="496" y="465" on="1"/>
        <pt x="384" y="465" on="1"/>
        <pt x="386" y="445" on="0"/>
        <pt x="386" y="391" on="0"/>
        <pt x="382" y="316" on="0"/>
        <pt x="370" y="206" on="0"/>
        <pt x="341" y="119" on="0"/>
        <pt x="320" y="78" on="1"/>
        <pt x="274" y="-7" on="0"/>
        <pt x="181" y="-7" on="1"/>
        <pt x="113" y="-7" on="0"/>
        <pt x="60" y="45" on="0"/>
        <pt x="60" y="186" on="0"/>
        <pt x="78" y="327" on="0"/>
        <pt x="120" y="463" on="0"/>
        <pt x="205" y="544" on="0"/>
        <pt x="265" y="544" on="1"/>
        <pt x="510" y="544" on="1"/>
        <pt x="510" y="555" on="1"/>
        <pt x="519" y="612" on="1"/>
        <pt x="570" y="612" on="0"/>
        <pt x="598" y="603" on="0"/>
        <pt x="598" y="580" on="1"/>
        <pt x="593" y="553" on="1"/>
        <pt x="591" y="544" on="1"/>
        <pt x="677" y="544" on="1"/>
        <pt x="668" y="490" on="0"/>
        <pt x="647" y="464" on="0"/>
        <pt x="606" y="464" on="1"/>
        <pt x="578" y="464" on="1"/>
      </contour>
      <contour>
        <pt x="256" y="465" on="1"/>
        <pt x="220" y="465" on="0"/>
        <pt x="193" y="396" on="1"/>
        <pt x="146" y="277" on="0"/>
        <pt x="146" y="125" on="1"/>
        <pt x="146" y="97" on="0"/>
        <pt x="166" y="72" on="0"/>
        <pt x="190" y="72" on="1"/>
        <pt x="223" y="72" on="0"/>
        <pt x="271" y="159" on="0"/>
        <pt x="281" y="222" on="1"/>
        <pt x="300" y="342" on="0"/>
        <pt x="300" y="413" on="1"/>
        <pt x="300" y="439" on="0"/>
        <pt x="282" y="464" on="0"/>
        <pt x="261" y="465" on="1"/>
      </contour>
    </TTGlyph>
    <TTGlyph name="oacute" xMin="60" yMin="-7" xMax="417" yMax="744">
      <contour>
        <pt x="298" y="38" on="0"/>
        <pt x="227" y="-7" on="0"/>
        <pt x="113" y="-7" on="0"/>
        <pt x="60" y="45" on="0"/>
        <pt x="60" y="186" on="0"/>
        <pt x="78" y="327" on="0"/>
        <pt x="120" y="463" on="0"/>
        <pt x="205" y="544" on="0"/>
        <pt x="332" y="544" on="0"/>
        <pt x="386" y="493" on="0"/>
        <pt x="386" y="391" on="0"/>
        <pt x="382" y="316" on="0"/>
        <pt x="370" y="206" on="0"/>
        <pt x="341" y="119" on="0"/>
      </contour>
      <contour>
        <pt x="190" y="72" on="1"/>
        <pt x="223" y="72" on="0"/>
        <pt x="271" y="159" on="0"/>
        <pt x="281" y="222" on="1"/>
        <pt x="300" y="342" on="0"/>
        <pt x="300" y="413" on="1"/>
        <pt x="300" y="441" on="0"/>
        <pt x="280" y="465" on="0"/>
        <pt x="256" y="465" on="1"/>
        <pt x="220" y="465" on="0"/>
        <pt x="193" y="396" on="1"/>
        <pt x="146" y="277" on="0"/>
        <pt x="146" y="125" on="1"/>
        <pt x="146" y="97" on="0"/>
        <pt x="166" y="72" on="0"/>
      </contour>
      <contour>
        <pt x="348" y="744" on="0"/>
        <pt x="378" y="744" on="0"/>
        <pt x="412" y="706" on="1"/>
        <pt x="415" y="702" on="0"/>
        <pt x="417" y="700" on="1"/>
        <pt x="268" y="571" on="1"/>
        <pt x="223" y="628" on="1"/>
        <pt x="314" y="714" on="1"/>
      </contour>
    </TTGlyph>
    <TTGlyph name="ocircumflex" xMin="60" yMin="-7" xMax="414" yMax="734">
      <component glyphName="o" x="0" y="0" flags="0x1004"/>
      <component glyphName="circumflex" x="13" y="12" flags="0x1004"/>
    </TTGlyph>
    <TTGlyph name="odieresis" xMin="60" yMin="-7" xMax="412" yMax="701">
      <contour>
        <pt x="298" y="38" on="0"/>
        <pt x="227" y="-7" on="0"/>
        <pt x="113" y="-7" on="0"/>
        <pt x="60" y="45" on="0"/>
        <pt x="60" y="186" on="0"/>
        <pt x="78" y="327" on="0"/>
        <pt x="120" y="463" on="0"/>
        <pt x="205" y="544" on="0"/>
        <pt x="332" y="544" on="0"/>
        <pt x="386" y="493" on="0"/>
        <pt x="386" y="391" on="0"/>
        <pt x="382" y="316" on="0"/>
        <pt x="370" y="206" on="0"/>
        <pt x="341" y="119" on="0"/>
      </contour>
      <contour>
        <pt x="190" y="72" on="1"/>
        <pt x="223" y="72" on="0"/>
        <pt x="271" y="159" on="0"/>
        <pt x="281" y="222" on="1"/>
        <pt x="300" y="342" on="0"/>
        <pt x="300" y="413" on="1"/>
        <pt x="300" y="441" on="0"/>
        <pt x="280" y="465" on="0"/>
        <pt x="256" y="465" on="1"/>
        <pt x="220" y="465" on="0"/>
        <pt x="193" y="396" on="1"/>
        <pt x="146" y="277" on="0"/>
        <pt x="146" y="125" on="1"/>
        <pt x="146" y="97" on="0"/>
        <pt x="166" y="72" on="0"/>
      </contour>
      <contour>
        <pt x="276" y="626" on="0"/>
        <pt x="237" y="587" on="0"/>
        <pt x="190" y="587" on="0"/>
        <pt x="160" y="616" on="0"/>
        <pt x="160" y="662" on="0"/>
        <pt x="200" y="701" on="0"/>
        <pt x="248" y="701" on="0"/>
        <pt x="276" y="673" on="0"/>
      </contour>
      <contour>
        <pt x="383" y="701" on="0"/>
        <pt x="412" y="673" on="0"/>
        <pt x="412" y="626" on="0"/>
        <pt x="372" y="587" on="0"/>
        <pt x="325" y="587" on="0"/>
        <pt x="295" y="616" on="0"/>
        <pt x="295" y="662" on="0"/>
        <pt x="336" y="701" on="0"/>
      </contour>
    </TTGlyph>
    <TTGlyph name="oe" xMin="69" yMin="-7" xMax="611" yMax="544">
      <contour>
        <pt x="417" y="-7" on="1"/>
        <pt x="341" y="-7" on="0"/>
        <pt x="314" y="27" on="1"/>
        <pt x="277" y="-7" on="0"/>
        <pt x="127" y="-7" on="0"/>
        <pt x="69" y="48" on="0"/>
        <pt x="69" y="176" on="0"/>
        <pt x="79" y="290" on="0"/>
        <pt x="108" y="408" on="0"/>
        <pt x="154" y="491" on="0"/>
        <pt x="232" y="544" on="0"/>
        <pt x="283" y="544" on="1"/>
        <pt x="359" y="544" on="0"/>
        <pt x="388" y="512" on="1"/>
        <pt x="426" y="544" on="0"/>
        <pt x="562" y="544" on="0"/>
        <pt x="611" y="494" on="0"/>
        <pt x="611" y="405" on="0"/>
        <pt x="594" y="276" on="0"/>
        <pt x="592" y="248" on="1"/>
        <pt x="384" y="248" on="1"/>
        <pt x="384" y="232" on="1"/>
        <pt x="370" y="146" on="0"/>
        <pt x="370" y="94" on="0"/>
        <pt x="394" y="72" on="0"/>
        <pt x="481" y="72" on="0"/>
        <pt x="558" y="88" on="1"/>
        <pt x="546" y="11" on="1"/>
        <pt x="460" y="-7" on="0"/>
      </contour>
      <contour>
        <pt x="407" y="340" on="1"/>
        <pt x="406" y="333" on="1"/>
        <pt x="404" y="329" on="1"/>
        <pt x="405" y="331" on="1"/>
        <pt x="404" y="330" on="0"/>
        <pt x="404" y="329" on="1"/>
        <pt x="518" y="329" on="1"/>
        <pt x="528" y="411" on="0"/>
        <pt x="528" y="451" on="0"/>
        <pt x="513" y="465" on="0"/>
        <pt x="492" y="465" on="1"/>
        <pt x="445" y="465" on="0"/>
        <pt x="417" y="413" on="0"/>
        <pt x="407" y="343" on="1"/>
        <pt x="407" y="341" on="0"/>
      </contour>
      <contour>
        <pt x="155" y="100" on="0"/>
        <pt x="179" y="72" on="0"/>
        <pt x="246" y="72" on="0"/>
        <pt x="299" y="148" on="0"/>
        <pt x="310" y="209" on="1"/>
        <pt x="327" y="311" on="0"/>
        <pt x="327" y="408" on="1"/>
        <pt x="327" y="438" on="0"/>
        <pt x="303" y="465" on="0"/>
        <pt x="244" y="465" on="0"/>
        <pt x="198" y="407" on="0"/>
        <pt x="174" y="327" on="0"/>
        <pt x="166" y="276" on="1"/>
        <pt x="155" y="198" on="0"/>
        <pt x="155" y="131" on="1"/>
      </contour>
    </TTGlyph>
    <TTGlyph name="ogonek" xMin="0" yMin="-189" xMax="180" yMax="28">
      <contour>
        <pt x="180" y="-189" on="1"/>
        <pt x="80" y="-189" on="1"/>
        <pt x="0" y="-97" on="1"/>
        <pt x="0" y="-63" on="1"/>
        <pt x="57" y="28" on="1"/>
        <pt x="143" y="28" on="1"/>
        <pt x="77" y="-79" on="1"/>
      </contour>
    </TTGlyph>
    <TTGlyph name="ograve" xMin="60" yMin="-7" xMax="386" yMax="744">
      <contour>
        <pt x="298" y="38" on="0"/>
        <pt x="227" y="-7" on="0"/>
        <pt x="113" y="-7" on="0"/>
        <pt x="60" y="45" on="0"/>
        <pt x="60" y="186" on="0"/>
        <pt x="78" y="327" on="0"/>
        <pt x="120" y="463" on="0"/>
        <pt x="205" y="544" on="0"/>
        <pt x="332" y="544" on="0"/>
        <pt x="386" y="493" on="0"/>
        <pt x="386" y="391" on="0"/>
        <pt x="382" y="316" on="0"/>
        <pt x="370" y="206" on="0"/>
        <pt x="341" y="119" on="0"/>
      </contour>
      <contour>
        <pt x="190" y="72" on="1"/>
        <pt x="223" y="72" on="0"/>
        <pt x="271" y="159" on="0"/>
        <pt x="281" y="222" on="1"/>
        <pt x="300" y="342" on="0"/>
        <pt x="300" y="413" on="1"/>
        <pt x="300" y="441" on="0"/>
        <pt x="280" y="465" on="0"/>
        <pt x="256" y="465" on="1"/>
        <pt x="220" y="465" on="0"/>
        <pt x="193" y="396" on="1"/>
        <pt x="146" y="277" on="0"/>
        <pt x="146" y="125" on="1"/>
        <pt x="146" y="97" on="0"/>
        <pt x="166" y="72" on="0"/>
      </contour>
      <contour>
        <pt x="221" y="717" on="1"/>
        <pt x="251" y="744" on="0"/>
        <pt x="281" y="744" on="0"/>
        <pt x="312" y="707" on="1"/>
        <pt x="372" y="624" on="1"/>
        <pt x="314" y="572" on="1"/>
        <pt x="204" y="702" on="1"/>
      </contour>
    </TTGlyph>
    <TTGlyph name="one" xMin="60" yMin="0" xMax="375" yMax="710">
      <contour>
        <pt x="349" y="679" on="1"/>
        <pt x="349" y="679" on="0"/>
        <pt x="257" y="84" on="1"/>
        <pt x="375" y="84" on="1"/>
        <pt x="362" y="0" on="1"/>
        <pt x="60" y="0" on="1"/>
        <pt x="74" y="84" on="1"/>
        <pt x="168" y="84" on="1"/>
        <pt x="254" y="629" on="1"/>
        <pt x="194" y="619" on="1"/>
        <pt x="205" y="699" on="1"/>
        <pt x="278" y="710" on="1"/>
        <pt x="284" y="710" on="1"/>
        <pt x="326" y="710" on="0"/>
        <pt x="348" y="701" on="0"/>
      </contour>
    </TTGlyph>
    <TTGlyph name="onehalf" xMin="69" yMin="0" xMax="327" yMax="723">
      <contour>
        <pt x="116" y="152" on="0"/>
        <pt x="158" y="172" on="0"/>
        <pt x="198" y="203" on="0"/>
        <pt x="198" y="228" on="1"/>
        <pt x="198" y="234" on="0"/>
        <pt x="183" y="234" on="1"/>
        <pt x="150" y="234" on="1"/>
        <pt x="133" y="234" on="0"/>
        <pt x="127" y="235" on="1"/>
        <pt x="112" y="238" on="0"/>
        <pt x="112" y="260" on="1"/>
        <pt x="112" y="266" on="0"/>
        <pt x="117" y="298" on="1"/>
        <pt x="192" y="304" on="1"/>
        <pt x="239" y="303" on="0"/>
        <pt x="274" y="273" on="0"/>
        <pt x="274" y="209" on="0"/>
        <pt x="241" y="160" on="0"/>
        <pt x="171" y="104" on="0"/>
        <pt x="158" y="89" on="1"/>
        <pt x="152" y="60" on="1"/>
        <pt x="247" y="60" on="1"/>
        <pt x="238" y="0" on="1"/>
        <pt x="69" y="0" on="1"/>
        <pt x="85" y="98" on="1"/>
        <pt x="84" y="118" on="0"/>
      </contour>
      <contour>
        <pt x="263" y="723" on="1"/>
        <pt x="290" y="723" on="0"/>
        <pt x="308" y="714" on="0"/>
        <pt x="305" y="695" on="1"/>
        <pt x="261" y="428" on="1"/>
        <pt x="185" y="428" on="1"/>
        <pt x="222" y="647" on="1"/>
        <pt x="180" y="636" on="1"/>
        <pt x="190" y="708" on="1"/>
        <pt x="236" y="723" on="1"/>
      </contour>
      <contour>
        <pt x="317" y="324" on="1"/>
        <pt x="96" y="323" on="1"/>
        <pt x="107" y="397" on="1"/>
        <pt x="327" y="397" on="1"/>
      </contour>
    </TTGlyph>
    <TTGlyph name="onequarter" xMin="8" yMin="0" xMax="307" yMax="723">
      <contour>
        <pt x="246" y="723" on="1"/>
        <pt x="272" y="723" on="0"/>
        <pt x="287" y="715" on="0"/>
        <pt x="287" y="685" on="0"/>
        <pt x="245" y="428" on="1"/>
        <pt x="169" y="428" on="1"/>
        <pt x="205" y="646" on="1"/>
        <pt x="161" y="636" on="1"/>
        <pt x="172" y="710" on="1"/>
        <pt x="215" y="723" on="1"/>
      </contour>
      <contour>
        <pt x="297" y="324" on="1"/>
        <pt x="76" y="324" on="1"/>
        <pt x="87" y="397" on="1"/>
        <pt x="307" y="397" on="1"/>
      </contour>
      <contour>
        <pt x="198" y="71" on="1"/>
        <pt x="199" y="68" on="1"/>
        <pt x="188" y="0" on="1"/>
        <pt x="121" y="0" on="1"/>
        <pt x="132" y="70" on="1"/>
        <pt x="132" y="71" on="1"/>
        <pt x="8" y="71" on="1"/>
        <pt x="159" y="288" on="1"/>
        <pt x="230" y="288" on="1"/>
        <pt x="206" y="125" on="1"/>
        <pt x="228" y="125" on="1"/>
        <pt x="221" y="71" on="1"/>
      </contour>
      <contour>
        <pt x="150" y="126" on="1"/>
        <pt x="150" y="131" on="1"/>
        <pt x="167" y="210" on="1"/>
        <pt x="108" y="126" on="1"/>
      </contour>
    </TTGlyph>
    <TTGlyph name="onesuperior" xMin="126" yMin="401" xMax="252" yMax="723">
      <contour>
        <pt x="210" y="723" on="1"/>
        <pt x="240" y="723" on="0"/>
        <pt x="252" y="713" on="0"/>
        <pt x="252" y="702" on="0"/>
        <pt x="249" y="685" on="1"/>
        <pt x="205" y="401" on="1"/>
        <pt x="129" y="401" on="1"/>
        <pt x="169" y="647" on="1"/>
        <pt x="126" y="636" on="1"/>
        <pt x="137" y="708" on="1"/>
        <pt x="183" y="723" on="1"/>
      </contour>
    </TTGlyph>
    <TTGlyph name="ordfeminine" xMin="101" yMin="368" xMax="320" yMax="723">
      <contour>
        <pt x="218" y="460" on="1"/>
        <pt x="228" y="521" on="1"/>
        <pt x="186" y="519" on="0"/>
        <pt x="184" y="507" on="1"/>
        <pt x="174" y="439" on="1"/>
        <pt x="175" y="438" on="1"/>
      </contour>
      <contour>
        <pt x="150" y="681" on="1"/>
        <pt x="152" y="712" on="1"/>
        <pt x="232" y="723" on="1"/>
        <pt x="320" y="723" on="0"/>
        <pt x="320" y="674" on="1"/>
        <pt x="276" y="373" on="1"/>
        <pt x="222" y="373" on="0"/>
        <pt x="214" y="385" on="0"/>
        <pt x="213" y="393" on="1"/>
        <pt x="174" y="368" on="1"/>
        <pt x="145" y="368" on="0"/>
        <pt x="121" y="371" on="0"/>
        <pt x="101" y="387" on="0"/>
        <pt x="101" y="414" on="0"/>
        <pt x="114" y="510" on="1"/>
        <pt x="125" y="590" on="0"/>
        <pt x="242" y="594" on="1"/>
        <pt x="250" y="647" on="1"/>
        <pt x="250" y="655" on="0"/>
        <pt x="227" y="655" on="1"/>
        <pt x="202" y="655" on="0"/>
        <pt x="150" y="655" on="0"/>
      </contour>
    </TTGlyph>
    <TTGlyph name="ordmasculine" xMin="108" yMin="370" xMax="328" yMax="722">
      <contour>
        <pt x="292" y="431" on="0"/>
        <pt x="233" y="370" on="0"/>
        <pt x="145" y="370" on="0"/>
        <pt x="108" y="404" on="0"/>
        <pt x="108" y="529" on="0"/>
        <pt x="132" y="645" on="0"/>
        <pt x="195" y="722" on="0"/>
        <pt x="291" y="722" on="0"/>
        <pt x="328" y="693" on="0"/>
        <pt x="328" y="608" on="0"/>
        <pt x="318" y="527" on="0"/>
      </contour>
      <contour>
        <pt x="200" y="447" on="1"/>
        <pt x="221" y="447" on="0"/>
        <pt x="254" y="574" on="0"/>
        <pt x="254" y="627" on="1"/>
        <pt x="254" y="639" on="0"/>
        <pt x="245" y="645" on="0"/>
        <pt x="235" y="645" on="1"/>
        <pt x="216" y="645" on="0"/>
        <pt x="202" y="606" on="1"/>
        <pt x="181" y="543" on="0"/>
        <pt x="181" y="470" on="1"/>
        <pt x="181" y="456" on="0"/>
        <pt x="189" y="447" on="0"/>
      </contour>
    </TTGlyph>
    <TTGlyph name="oslash" xMin="18" yMin="-89" xMax="452" yMax="633">
      <contour>
        <pt x="86" y="33" on="1"/>
        <pt x="71" y="60" on="0"/>
        <pt x="71" y="169" on="0"/>
        <pt x="81" y="281" on="0"/>
        <pt x="109" y="402" on="0"/>
        <pt x="152" y="488" on="0"/>
        <pt x="227" y="544" on="0"/>
        <pt x="275" y="544" on="1"/>
        <pt x="296" y="544" on="0"/>
        <pt x="305" y="543" on="1"/>
        <pt x="355" y="633" on="1"/>
        <pt x="452" y="633" on="1"/>
        <pt x="380" y="504" on="1"/>
        <pt x="396" y="479" on="0"/>
        <pt x="396" y="333" on="0"/>
        <pt x="375" y="194" on="0"/>
        <pt x="331" y="68" on="0"/>
        <pt x="248" y="-7" on="0"/>
        <pt x="192" y="-7" on="1"/>
        <pt x="171" y="-7" on="0"/>
        <pt x="161" y="-5" on="1"/>
        <pt x="114" y="-89" on="1"/>
        <pt x="18" y="-89" on="1"/>
      </contour>
      <contour>
        <pt x="201" y="72" on="1"/>
        <pt x="237" y="72" on="0"/>
        <pt x="264" y="140" on="1"/>
        <pt x="310" y="258" on="0"/>
        <pt x="310" y="413" on="1"/>
        <pt x="310" y="441" on="0"/>
        <pt x="291" y="465" on="0"/>
        <pt x="267" y="465" on="1"/>
        <pt x="231" y="465" on="0"/>
        <pt x="204" y="396" on="1"/>
        <pt x="157" y="277" on="0"/>
        <pt x="157" y="125" on="1"/>
        <pt x="157" y="96" on="0"/>
        <pt x="176" y="72" on="0"/>
      </contour>
    </TTGlyph>
    <TTGlyph name="otilde" xMin="60" yMin="7" xMax="420" yMax="689">
      <contour>
        <pt x="240" y="689" on="1"/>
        <pt x="366" y="679" on="1"/>
        <pt x="378" y="679" on="0"/>
        <pt x="390" y="682" on="1"/>
        <pt x="420" y="680" on="1"/>
        <pt x="416" y="644" on="1"/>
        <pt x="412" y="614" on="0"/>
        <pt x="392" y="603" on="0"/>
        <pt x="341" y="603" on="1"/>
        <pt x="214" y="613" on="1"/>
        <pt x="206" y="613" on="0"/>
        <pt x="190" y="611" on="1"/>
        <pt x="160" y="613" on="1"/>
        <pt x="165" y="649" on="1"/>
        <pt x="169" y="679" on="0"/>
        <pt x="188" y="689" on="0"/>
      </contour>
      <contour>
        <pt x="298" y="52" on="0"/>
        <pt x="227" y="7" on="0"/>
        <pt x="113" y="7" on="0"/>
        <pt x="60" y="59" on="0"/>
        <pt x="60" y="200" on="0"/>
        <pt x="78" y="341" on="0"/>
        <pt x="120" y="477" on="0"/>
        <pt x="205" y="558" on="0"/>
        <pt x="332" y="558" on="0"/>
        <pt x="386" y="507" on="0"/>
        <pt x="386" y="405" on="0"/>
        <pt x="382" y="330" on="0"/>
        <pt x="370" y="220" on="0"/>
        <pt x="341" y="133" on="0"/>
      </contour>
      <contour>
        <pt x="190" y="86" on="1"/>
        <pt x="223" y="86" on="0"/>
        <pt x="271" y="173" on="0"/>
        <pt x="281" y="236" on="1"/>
        <pt x="300" y="356" on="0"/>
        <pt x="300" y="427" on="1"/>
        <pt x="300" y="455" on="0"/>
        <pt x="280" y="479" on="0"/>
        <pt x="256" y="479" on="1"/>
        <pt x="220" y="479" on="0"/>
        <pt x="193" y="410" on="1"/>
        <pt x="146" y="291" on="0"/>
        <pt x="146" y="139" on="1"/>
        <pt x="146" y="111" on="0"/>
        <pt x="166" y="86" on="0"/>
      </contour>
    </TTGlyph>
    <TTGlyph name="p" xMin="16" yMin="-189" xMax="388" yMax="544">
      <contour>
        <pt x="20" y="-180" on="1"/>
        <pt x="16" y="-175" on="0"/>
        <pt x="16" y="-161" on="0"/>
        <pt x="126" y="536" on="1"/>
        <pt x="269" y="544" on="1"/>
        <pt x="335" y="544" on="0"/>
        <pt x="388" y="484" on="0"/>
        <pt x="388" y="357" on="0"/>
        <pt x="372" y="223" on="0"/>
        <pt x="335" y="79" on="0"/>
        <pt x="262" y="-13" on="0"/>
        <pt x="213" y="-13" on="1"/>
        <pt x="194" y="-13" on="0"/>
        <pt x="129" y="27" on="1"/>
        <pt x="95" y="-189" on="1"/>
        <pt x="27" y="-189" on="0"/>
      </contour>
      <contour>
        <pt x="205" y="69" on="1"/>
        <pt x="246" y="69" on="0"/>
        <pt x="301" y="313" on="0"/>
        <pt x="301" y="438" on="0"/>
        <pt x="286" y="465" on="0"/>
        <pt x="256" y="465" on="1"/>
        <pt x="197" y="465" on="1"/>
        <pt x="197" y="454" on="1"/>
        <pt x="145" y="121" on="1"/>
        <pt x="139" y="106" on="1"/>
        <pt x="200" y="69" on="0"/>
      </contour>
    </TTGlyph>
    <TTGlyph name="paragraph" xMin="112" yMin="0" xMax="589" yMax="721">
      <contour>
        <pt x="112" y="564" on="1"/>
        <pt x="112" y="625" on="0"/>
        <pt x="206" y="716" on="0"/>
        <pt x="271" y="721" on="1"/>
        <pt x="589" y="721" on="1"/>
        <pt x="576" y="633" on="1"/>
        <pt x="476" y="633" on="1"/>
        <pt x="378" y="0" on="1"/>
        <pt x="289" y="0" on="1"/>
        <pt x="389" y="633" on="1"/>
        <pt x="332" y="633" on="1"/>
        <pt x="234" y="0" on="1"/>
        <pt x="145" y="0" on="1"/>
        <pt x="216" y="446" on="1"/>
        <pt x="173" y="454" on="0"/>
        <pt x="112" y="521" on="0"/>
      </contour>
    </TTGlyph>
    <TTGlyph name="parenleft" xMin="52" yMin="-106" xMax="363" yMax="768">
      <contour>
        <pt x="128" y="-106" on="0"/>
        <pt x="52" y="-34" on="0"/>
        <pt x="52" y="118" on="0"/>
        <pt x="66" y="286" on="0"/>
        <pt x="104" y="490" on="0"/>
        <pt x="160" y="656" on="0"/>
        <pt x="255" y="768" on="0"/>
        <pt x="314" y="768" on="1"/>
        <pt x="336" y="768" on="0"/>
        <pt x="363" y="760" on="1"/>
        <pt x="353" y="706" on="0"/>
        <pt x="335" y="687" on="0"/>
        <pt x="291" y="687" on="1"/>
        <pt x="254" y="687" on="0"/>
        <pt x="178" y="402" on="0"/>
        <pt x="137" y="101" on="0"/>
        <pt x="137" y="-33" on="0"/>
        <pt x="211" y="-33" on="0"/>
        <pt x="233" y="-44" on="0"/>
        <pt x="233" y="-76" on="0"/>
        <pt x="225" y="-106" on="1"/>
      </contour>
    </TTGlyph>
</ttFont>
